<?xml version="1.0" encoding="UTF-8"?>
<!DOCTYPE svg PUBLIC "-//W3C//DTD SVG 1.1//EN" "http://www.w3.org/Graphics/SVG/1.1/DTD/svg11.dtd">
<!-- Creator: CorelDRAW X7 -->
<svg xmlns="http://www.w3.org/2000/svg" xml:space="preserve" width="5.05631in" height="0.749654in" version="1.1" style="shape-rendering:geometricPrecision; text-rendering:geometricPrecision; image-rendering:optimizeQuality; fill-rule:evenodd; clip-rule:evenodd"
viewBox="0 0 11091 1644"
 xmlns:xlink="http://www.w3.org/1999/xlink">
 <defs>
  <style type="text/css">
   <![CDATA[
    .fil1 {fill:#FDDDCF}
    .fil0 {fill:#FAE9D3}
    .fil2 {fill:#DC5E65;fill-rule:nonzero}
   ]]>
  </style>
 </defs>
 <g id="Layer_x0020_1">
  <metadata id="CorelCorpID_0Corel-Layer"/>
  <polygon class="fil0" points="324,402 10767,402 10767,1587 324,1587 "/>
  <path class="fil1" d="M5469 496l-1339 -5 -688 -2c-230,-1 -459,-3 -688,-6l-1377 -16 -689 -12c-229,-4 -459,-9 -688,-15 229,-7 459,-12 688,-15l689 -13 1377 -16c229,-3 458,-5 688,-5l688 -3 1377 -5 39 0 -1 114 -76 -1z"/>
  <path class="fil1" d="M5623 496l1338 -5 688 -2c230,-1 459,-3 689,-6l1376 -16 689 -12c229,-4 459,-9 688,-15 -229,-7 -459,-12 -688,-15l-689 -13 -1376 -16c-230,-3 -459,-5 -689,-5l-688 -3 -1377 -5 -38 0 0 114 77 -1z"/>
  <polygon class="fil1" points="4139,0 6952,0 6952,425 4139,425 "/>
  <g id="_1853932035600">
   <path class="fil2" d="M4573 308c0,0 0,0 0,0 0,1 0,1 0,1 0,2 -1,3 -2,5 -2,1 -4,2 -7,2l-105 0c-3,0 -5,-1 -7,-2 -1,-2 -2,-3 -2,-5 0,0 0,0 0,-1 0,0 0,0 0,0 0,-2 1,-4 2,-6 2,-2 4,-3 7,-3l27 0 -81 -80 -23 19 0 61 26 0c3,0 6,1 7,3 2,2 2,4 2,6 0,0 0,0 0,0 0,1 0,1 0,1 0,2 -1,3 -2,5 -2,1 -4,2 -7,2l-88 0c-2,0 -5,-1 -6,-2 -2,-2 -3,-3 -3,-5 0,0 0,0 0,-1 0,0 0,0 0,0 0,-2 1,-4 2,-6 2,-2 4,-3 7,-3l25 0 0 -176 -25 0c-3,0 -5,-1 -7,-3 -1,-1 -2,-3 -2,-5 0,-3 1,-5 2,-6 2,-2 4,-3 7,-3l88 0c3,0 6,1 7,3 2,1 2,3 2,6 0,2 0,4 -2,5 -1,2 -4,3 -7,3l-26 0 0 93 118 -93 -37 0c-3,0 -5,-1 -7,-3 -1,-1 -2,-3 -2,-5 0,-3 1,-5 2,-6 2,-2 4,-3 7,-3l94 0c4,0 6,1 7,3 2,1 3,3 3,6 0,2 -1,4 -3,5 -1,2 -3,3 -7,3l-29 0 -95 74c0,0 6,6 16,16 11,11 22,22 35,35 13,13 24,25 35,35 10,11 15,16 16,16l29 0c3,0 6,1 7,3 2,2 2,4 2,6zm223 -20c-6,10 -15,17 -25,23 -11,6 -22,8 -33,8 -19,0 -35,-6 -49,-19 -14,-13 -21,-29 -21,-48 0,-9 2,-18 6,-26 3,-8 8,-15 15,-22 6,-6 14,-11 22,-14 8,-4 17,-5 26,-5 5,0 9,0 14,1 5,1 9,3 13,5 5,2 9,4 12,8 4,3 7,6 10,10 0,0 1,1 1,2 0,1 0,2 0,3 0,1 0,2 -1,4 -1,1 -2,2 -3,3l-81 44c3,6 5,12 9,17 3,4 8,9 14,12 3,2 7,3 10,4 4,1 7,2 11,2 7,0 13,-2 20,-6 6,-4 11,-9 16,-16 0,-1 1,-2 2,-3 1,0 3,-1 4,-1 0,0 0,0 1,0 0,0 0,0 0,0 1,0 1,0 1,0 0,0 1,0 1,0 0,0 1,0 2,0 0,1 1,1 1,1 1,1 2,2 3,3 1,2 1,3 1,4 0,1 0,2 -1,3 0,1 0,2 -1,3zm-44 -70c-3,-3 -7,-5 -11,-7 -4,-1 -8,-2 -12,-2 -2,0 -4,0 -7,1 -2,0 -4,1 -6,2 -6,2 -11,6 -14,12 -3,6 -4,13 -4,20 0,1 0,1 0,2 0,1 0,1 0,2l54 -30zm211 -30c4,-1 8,-2 11,-3 4,-1 7,-1 11,-1 19,0 34,7 46,20 12,14 18,30 18,48 0,17 -6,33 -18,47 -12,13 -27,20 -46,20 0,0 -1,0 -1,0 -1,0 -2,0 -3,0 -5,0 -11,-2 -17,-4 -5,-2 -11,-4 -15,-8l0 71 15 0c3,-1 6,0 7,2 2,2 2,4 2,6 0,2 0,4 -2,6 -1,2 -4,3 -7,3l-58 0c-3,0 -5,-1 -6,-3 -2,-2 -2,-4 -2,-6 0,-2 0,-4 2,-6 1,-2 3,-2 6,-2l13 0 0 -162 -6 4c-1,0 -2,0 -3,1 0,0 -1,0 -2,0 -2,0 -3,0 -4,-1 -2,-1 -3,-3 -3,-4 -1,-1 -1,-1 -1,-2 0,0 0,-1 0,-2 0,0 0,-1 0,-1 0,0 0,-1 0,-1 0,-1 1,-2 2,-3 0,-1 1,-2 3,-3l46 -23c1,0 2,-1 2,-1 1,0 2,0 2,0 2,0 3,0 5,1 1,1 2,2 3,4 0,0 0,0 0,0 0,1 0,1 0,1 0,1 0,1 0,1 0,0 0,1 0,1zm-14 38l0 56c3,5 8,10 13,13 5,3 11,5 18,5 11,0 20,-4 27,-13 7,-9 11,-19 12,-29 0,-1 0,-1 0,-2 0,-1 0,-1 0,-2 0,-1 0,-1 0,-2 0,-1 0,-1 0,-2 -1,-11 -5,-20 -12,-29 -7,-9 -16,-13 -27,-13 -7,0 -13,2 -18,5 -5,3 -10,7 -13,13zm335 64c0,0 -1,1 -1,1 0,0 0,1 0,2 -2,2 -3,5 -4,7 -1,3 -3,5 -5,7 -2,4 -6,6 -9,8 -4,2 -8,3 -12,3 -5,0 -10,-1 -14,-3 -4,-3 -7,-6 -10,-10 -5,3 -11,7 -17,9 -7,2 -13,4 -20,4 0,0 -1,0 -2,0 0,0 -1,0 -1,0 -1,0 -2,0 -3,0 0,0 -1,0 -2,0 -8,-1 -15,-3 -21,-8 -7,-4 -10,-11 -10,-19 0,-11 4,-20 12,-26 7,-6 16,-11 26,-14 1,-1 2,-1 3,-1 1,-1 2,-1 3,-1 5,-2 10,-4 15,-5 6,-1 10,-2 14,-3l0 -20c0,-4 0,-7 -2,-9 -1,-2 -3,-4 -7,-5 0,0 -1,0 -2,0 0,0 -1,0 -1,0 -1,0 -2,0 -3,0 -1,0 -2,0 -2,0 -6,1 -11,4 -16,7 -5,4 -9,8 -12,12 -1,1 -1,1 -2,2 -1,1 -2,1 -2,2 -1,0 -1,0 -2,1 -1,0 -2,0 -2,0 -1,0 -2,0 -2,-1 -1,0 -2,0 -2,0 -1,-1 -2,-2 -3,-4 -1,-1 -2,-2 -2,-4 0,-1 1,-2 1,-3 0,0 0,-1 1,-2 4,-9 11,-16 19,-22 8,-5 17,-9 27,-9 0,0 1,0 1,0 1,0 1,-1 2,-1 0,0 1,0 1,0 1,0 1,0 2,0 10,0 19,3 27,7 7,5 11,13 11,25l0 75c0,0 0,1 1,2 0,0 1,1 2,1 0,0 0,0 0,0 0,0 0,0 0,0 1,0 2,0 3,-1 1,-1 2,-1 2,-2 1,-1 1,-2 2,-3 0,-1 1,-2 1,-3 1,-1 1,-2 2,-3 1,-1 1,-2 2,-3 1,-1 2,-2 3,-2 0,-1 2,-1 3,-1 0,0 0,0 1,0 0,0 0,0 1,0 0,0 0,0 0,0 1,0 1,1 1,1 2,0 3,1 4,3 1,1 1,3 1,4 0,1 0,2 0,2 0,1 -1,2 -1,3zm-58 -7l0 -24c-2,1 -4,1 -6,2 -3,0 -5,1 -7,2 -8,2 -15,6 -21,9 -6,4 -9,9 -9,15 0,0 0,1 0,1 0,0 0,0 0,1 0,3 2,6 5,7 3,2 6,3 10,3 0,0 0,0 0,0 0,0 0,0 0,0 0,0 0,0 1,0 0,0 0,0 0,0 1,0 2,0 3,0 1,-1 2,-1 3,-1 5,-2 9,-4 12,-6 4,-3 7,-6 9,-9zm310 9c0,1 0,1 0,2 1,1 1,2 1,3 0,0 0,0 0,0 0,1 0,1 -1,1 0,1 0,2 -1,3 -1,1 -2,2 -4,3l-33 17c-1,0 -1,0 -2,0 -1,0 -1,0 -2,0 -1,0 -1,0 -2,0 -1,0 -1,0 -2,0 -1,-1 -2,-2 -3,-3 -1,-1 -2,-3 -2,-5l0 -5c-5,4 -10,7 -17,9 -6,2 -13,3 -19,3 -19,0 -34,-7 -46,-21 -12,-13 -18,-29 -18,-47 0,-17 6,-33 18,-47 12,-13 27,-20 46,-20 0,0 1,0 2,0 0,0 1,0 2,0 6,0 11,2 17,4 6,2 11,4 15,8l0 -56 -6 3c-1,1 -2,1 -3,1 0,0 -1,0 -2,0 -1,0 -3,0 -4,-1 -1,-1 -3,-2 -3,-3 -1,-1 -1,-1 -1,-2 0,0 0,0 0,-1 0,0 0,0 0,-1 0,0 0,0 0,0 0,-2 0,-4 1,-5 1,-2 2,-3 4,-3l47 -24c1,0 1,0 2,-1 1,0 2,0 2,0 2,0 4,1 5,2 1,0 2,2 3,3 0,0 1,1 1,2 0,0 0,1 0,2 0,0 0,1 0,1 0,0 0,0 -1,1 0,1 0,2 -1,3 -1,1 -2,2 -4,3 -1,1 -3,2 -4,3 -1,1 -2,3 -3,5 -1,1 -2,3 -3,4 0,2 -1,4 -1,6l0 154 10 -4c1,-1 1,-1 2,-1 1,-1 2,-1 2,-1 2,0 3,1 5,2 1,1 2,2 3,3zm-51 -13l0 -57c-3,-5 -8,-9 -13,-13 -5,-3 -11,-5 -18,-5 -11,0 -20,4 -27,13 -7,9 -11,18 -12,29 0,0 0,1 0,2 0,1 0,1 0,2 0,1 0,2 0,3 0,1 0,2 0,3 1,10 5,19 12,28 7,8 16,12 27,12 7,0 13,-1 18,-5 6,-3 10,-7 13,-12zm286 11c0,0 0,1 0,1 -1,0 -1,1 -1,2 -1,2 -2,5 -4,7 -1,3 -2,5 -4,7 -3,4 -6,6 -10,8 -3,2 -7,3 -12,3 -5,0 -9,-1 -14,-3 -4,-3 -7,-6 -9,-10 -5,3 -11,7 -18,9 -6,2 -13,4 -19,4 -1,0 -2,0 -2,0 -1,0 -1,0 -2,0 -1,0 -2,0 -2,0 -1,0 -2,0 -3,0 -7,-1 -15,-3 -21,-8 -7,-4 -10,-11 -10,-19 0,-11 4,-20 12,-26 8,-6 17,-11 26,-14 1,-1 2,-1 3,-1 1,-1 2,-1 3,-1 5,-2 11,-4 16,-5 5,-1 10,-2 14,-3l0 -20c0,-4 -1,-7 -2,-9 -1,-2 -4,-4 -7,-5 -1,0 -2,0 -2,0 -1,0 -1,0 -2,0 -1,0 -2,0 -2,0 -1,0 -2,0 -3,0 -5,1 -10,4 -16,7 -5,4 -9,8 -12,12 0,1 -1,1 -2,2 0,1 -1,1 -2,2 0,0 -1,0 -2,1 0,0 -1,0 -2,0 -1,0 -1,0 -2,-1 0,0 -1,0 -2,0 -1,-1 -2,-2 -3,-4 -1,-1 -1,-2 -1,-4 0,-1 0,-2 0,-3 0,0 1,-1 1,-2 5,-9 11,-16 19,-22 8,-5 17,-9 27,-9 1,0 1,0 2,0 0,0 1,-1 1,-1 1,0 1,0 2,0 0,0 1,0 1,0 10,0 19,3 27,7 8,5 12,13 12,25l0 75c0,0 0,1 0,2 1,0 1,1 2,1 0,0 0,0 0,0 1,0 1,0 1,0 1,0 2,0 3,-1 0,-1 1,-1 2,-2 0,-1 1,-2 1,-3 1,-1 1,-2 2,-3 0,-1 1,-2 1,-3 1,-1 2,-2 2,-3 1,-1 2,-2 3,-2 1,-1 2,-1 3,-1 1,0 1,0 1,0 0,0 1,0 1,0 0,0 0,0 1,0 0,0 0,1 1,1 1,0 2,1 3,3 1,1 1,3 1,4 0,1 0,2 0,2 0,1 0,2 -1,3zm-57 -7l0 -24c-2,1 -4,1 -7,2 -2,0 -4,1 -7,2 -7,2 -14,6 -20,9 -6,4 -10,9 -10,15 0,0 0,1 0,1 0,0 0,0 0,1 1,3 3,6 6,7 3,2 6,3 9,3 0,0 0,0 0,0 1,0 1,0 1,0 0,0 0,0 0,0 0,0 0,0 0,0 2,0 3,0 4,0 1,-1 2,-1 3,-1 4,-2 8,-4 12,-6 4,-3 7,-6 9,-9zm455 -168c0,2 -1,4 -2,5 -2,2 -4,3 -7,3l-24 0 -72 119 0 57 28 0c3,0 6,1 7,3 2,2 2,4 2,6 0,0 0,0 0,0 0,1 0,1 0,1 0,2 -1,3 -2,5 -2,1 -4,2 -7,2l-96 0c-3,0 -5,-1 -6,-2 -2,-2 -3,-3 -3,-5 0,0 0,0 0,-1 0,0 0,0 0,0 0,-2 1,-4 2,-6 2,-2 4,-3 7,-3l31 0 0 -58 -70 -118 -20 0c-3,0 -5,-1 -6,-3 -2,-1 -2,-3 -2,-5 0,-1 0,-1 0,-1 0,0 0,0 0,0 0,-2 0,-4 2,-5 1,-2 4,-3 6,-3l82 0c3,0 5,1 7,3 1,1 2,3 2,5 0,0 0,0 0,0 0,0 0,0 0,1 0,2 0,4 -2,5 -1,2 -4,3 -7,3l-19 0 57 96 59 -96 -24 0c-3,0 -5,-1 -7,-3 -2,-1 -2,-3 -2,-5 0,-1 0,-1 0,-1 0,0 0,0 0,0 0,-2 1,-4 2,-5 2,-2 4,-3 7,-3l68 0c3,0 5,1 6,3 2,1 3,3 3,5 0,0 0,0 0,0 0,0 0,0 0,1zm202 83c0,2 -1,4 -3,6 -1,2 -3,3 -6,3 -4,0 -8,0 -12,0 -3,0 -7,0 -11,0 -4,0 -7,0 -11,0 -4,0 -8,0 -11,0 0,6 0,12 0,18 0,6 0,12 0,18 0,7 0,13 0,19 0,6 0,13 0,19 0,5 1,9 4,11 4,3 7,4 11,5 0,0 0,0 1,0 0,0 0,0 0,0 4,0 8,-2 11,-5 3,-2 5,-6 5,-12 0,-2 1,-5 3,-6 2,-2 4,-2 6,-2 2,0 4,0 6,2 2,1 3,4 3,7 0,10 -4,20 -12,27 -7,8 -17,12 -28,12 -10,0 -19,-4 -27,-11 -8,-8 -11,-17 -11,-28 0,-12 0,-25 0,-37 0,-12 0,-25 0,-37l-23 0c-2,0 -5,-1 -7,-2 -2,-1 -3,-4 -3,-7 0,-2 1,-4 2,-6 2,-2 4,-2 7,-2 9,0 16,-3 22,-8 6,-4 9,-11 11,-20 0,-2 1,-4 2,-5 2,-1 4,-2 5,-2 1,0 1,0 1,0 1,0 1,0 1,0 0,0 0,0 0,0 0,0 0,0 0,0 0,0 0,0 1,0 0,0 0,0 0,0 2,0 4,1 6,2 2,1 3,3 3,6 0,2 0,5 0,7 0,2 0,4 0,6 0,3 0,5 0,7 0,2 0,4 0,7 3,0 7,0 11,0 4,0 7,0 11,0 4,0 8,0 11,0 4,0 8,0 12,0 3,0 5,0 6,2 2,2 3,4 3,6z"/>
   <path class="fil2" d="M6646 308c0,2 -1,4 -2,5 -2,2 -4,3 -7,3l-68 0c-3,0 -5,-1 -7,-3 -1,-1 -2,-3 -2,-5 0,-3 1,-5 2,-6 2,-2 4,-3 7,-3l19 0 0 -62c0,-11 -3,-19 -9,-24 -6,-5 -12,-7 -20,-7 0,0 0,0 -1,0 0,0 0,0 -1,0 0,0 0,0 0,0 -1,0 -1,0 -1,0 -10,1 -18,5 -24,11 -6,6 -9,14 -9,24l0 58 15 0c3,0 6,1 7,3 2,1 3,3 3,6 0,2 -1,4 -3,5 -1,2 -4,3 -7,3l-57 0c-3,0 -6,-1 -7,-3 -2,-1 -2,-3 -2,-5 0,-3 0,-5 2,-6 1,-2 4,-3 7,-3l13 0 0 -158 -7 4c-1,0 -1,0 -2,0 -1,1 -2,1 -2,1 -2,0 -4,-1 -5,-2 -1,-1 -2,-2 -3,-3 0,-1 0,-1 0,-1 0,-1 -1,-1 -1,-1 0,-1 0,-1 0,-1 0,-1 0,-1 0,-1 0,-2 1,-3 1,-5 1,-1 3,-2 4,-3l47 -23c0,-1 1,-1 2,-1 0,0 1,0 1,0 2,0 4,0 5,1 1,1 2,2 3,3 0,1 0,1 1,1 0,1 0,1 0,1 0,1 0,1 0,1 0,1 0,1 0,1 0,2 0,3 -1,5 -1,1 -2,2 -3,3 -3,2 -6,4 -8,8 -2,3 -3,7 -3,11l0 60c5,-4 10,-7 16,-10 6,-2 13,-3 19,-4 1,0 1,0 2,0 0,0 1,0 1,0 1,0 1,0 1,0 1,0 1,0 1,0 14,0 27,4 38,13 11,8 17,21 17,38l0 62 19 0c3,0 5,1 7,3 1,1 2,3 2,6zm134 -3c0,4 -1,7 -4,10 -3,3 -6,4 -10,4 -4,0 -8,-1 -11,-4 -2,-3 -4,-6 -4,-10 0,-4 2,-8 4,-10 3,-3 7,-5 11,-5 4,0 7,2 10,5 3,2 4,6 4,10zm0 -62c0,4 -1,7 -4,10 -3,3 -6,5 -10,5 -4,0 -8,-2 -11,-5 -2,-3 -4,-6 -4,-10 0,-4 2,-7 4,-10 3,-3 7,-4 11,-4 4,0 7,1 10,4 3,3 4,6 4,10z"/>
  </g>
  <path class="fil1" d="M5469 1644l-1339 -5 -688 -3c-230,0 -459,-2 -688,-5l-1377 -16 -689 -13c-229,-4 -459,-9 -688,-15 229,-6 459,-11 688,-15l689 -13 1377 -15c229,-3 458,-6 688,-6l688 -2 1377 -5 39 -1 -1 114 -76 0z"/>
  <path class="fil1" d="M5623 1644l1338 -5 688 -3c230,0 459,-2 689,-5l1376 -16 689 -13c229,-4 459,-9 688,-15 -229,-6 -459,-11 -688,-15l-689 -13 -1376 -15c-230,-3 -459,-6 -689,-6l-688 -2 -1377 -5 -38 -1 0 114 77 0z"/>
 </g>
</svg>
