<?xml version="1.0" encoding="UTF-8"?>
<!DOCTYPE svg PUBLIC "-//W3C//DTD SVG 1.1//EN" "http://www.w3.org/Graphics/SVG/1.1/DTD/svg11.dtd">
<!-- Creator: CorelDRAW X7 -->
<svg xmlns="http://www.w3.org/2000/svg" xml:space="preserve" width="1.55806in" height="1.55809in" version="1.1" style="shape-rendering:geometricPrecision; text-rendering:geometricPrecision; image-rendering:optimizeQuality; fill-rule:evenodd; clip-rule:evenodd"
viewBox="0 0 567 567"
 xmlns:xlink="http://www.w3.org/1999/xlink">
 <defs>
  <style type="text/css">
   <![CDATA[
    .fil4 {fill:none}
    .fil1 {fill:#FAE9D3}
    .fil0 {fill:#DC5E65}
    .fil2 {fill:#C47E3C}
    .fil3 {fill:#AC713A}
   ]]>
  </style>
   <clipPath id="id0">
    <path d="M189 189l-189 0 0 -189 189 0 0 189z"/>
   </clipPath>
   <clipPath id="id1">
    <path d="M189 378l-189 0 0 -189 189 0 0 189z"/>
   </clipPath>
   <clipPath id="id2">
    <path d="M378 378l189 0 0 189 -189 0 0 -189z"/>
   </clipPath>
   <clipPath id="id3">
    <path d="M378 189l-189 0 0 -189 189 0 0 189z"/>
   </clipPath>
   <clipPath id="id4">
    <path d="M378 378l-189 0 0 -189 189 0 0 189z"/>
   </clipPath>
   <clipPath id="id5">
    <path d="M189 378l189 0 0 189 -189 0 0 -189z"/>
   </clipPath>
   <clipPath id="id6">
    <path d="M378 189l189 0 0 -189 -189 0 0 189z"/>
   </clipPath>
   <clipPath id="id7">
    <path d="M378 378l189 0 0 -189 -189 0 0 189z"/>
   </clipPath>
   <clipPath id="id8">
    <path d="M189 378l-189 0 0 189 189 0 0 -189z"/>
   </clipPath>
 </defs>
 <g id="Layer_x0020_1">
  <metadata id="CorelCorpID_0Corel-Layer"/>
  <g>
  </g>
  <g style="clip-path:url(#id0)">
   <g>
    <path class="fil0" d="M85 866c0,0 0,0 0,0 0,0 0,0 0,0z"/>
    <path class="fil0" d="M84 867c0,0 0,0 0,0 0,0 0,0 0,0z"/>
    <path class="fil0" d="M2140 866c0,0 0,0 0,0 0,0 0,0 0,0z"/>
    <path class="fil0" d="M2141 867c0,0 0,0 0,0 0,0 0,0 0,0z"/>
    <path class="fil1" d="M189 775c-11,-73 -68,-131 -141,-142l0 -444c73,-11 130,-68 141,-141l1847 0c10,73 68,130 141,141l0 444c-73,11 -131,69 -141,142l-1847 0z"/>
    <path class="fil2" d="M153 812l1919 0 0 -13c0,-71 58,-129 129,-129l14 0 0 -517 -14 0c-71,0 -129,-58 -129,-129l0 -14 -1919 0 0 14c0,71 -58,129 -129,129l-14 0 0 517 14 0c71,0 129,58 129,129l0 13zm1929 10l-1939 0 0 -23c0,-66 -54,-120 -119,-120l-24 0 0 -536 24 0c65,0 119,-54 119,-119l0 -24 1939 0 0 24c0,65 53,119 119,119l24 0 0 536 -24 0c-66,0 -119,54 -119,120l0 23z"/>
    <path class="fil3" d="M170 795l1885 0c2,-78 65,-141 143,-142l0 -483c-78,-2 -141,-65 -143,-143l-1885 0c-2,78 -65,141 -143,143l0 483c78,1 141,64 143,142zm1891 7l-1898 0 0 -3c0,-77 -62,-140 -139,-140l-4 0 0 -496 4 0c77,0 139,-62 139,-139l0 -4 1898 0 0 4c0,77 63,139 140,139l3 0 0 496 -3 0c-77,0 -140,63 -140,140l0 3z"/>
    <path class="fil2" d="M62 46c-13,0 -23,10 -23,23 0,13 10,23 23,23 13,0 23,-10 23,-23 0,-13 -10,-23 -23,-23z"/>
    <path class="fil2" d="M2165 46c-13,0 -23,10 -23,23 0,13 10,23 23,23 12,0 23,-10 23,-23 0,-13 -11,-23 -23,-23z"/>
    <path class="fil2" d="M62 728c-13,0 -23,10 -23,23 0,12 10,23 23,23 13,0 23,-11 23,-23 0,-13 -10,-23 -23,-23z"/>
    <path class="fil2" d="M2165 728c-13,0 -23,10 -23,23 0,12 10,23 23,23 12,0 23,-11 23,-23 0,-13 -11,-23 -23,-23z"/>
   </g>
  </g>
  <polygon class="fil4" points="189,189 0,189 0,0 189,0 "/>
  <g>
  </g>
  <g style="clip-path:url(#id1)">
   <g>
    <path class="fil0" d="M85 801c0,0 0,0 0,0 0,0 0,0 0,0z"/>
    <path class="fil0" d="M84 802c0,0 0,0 0,0 0,0 0,0 0,0z"/>
    <path class="fil0" d="M2140 801c0,0 0,0 0,0 0,0 0,0 0,0z"/>
    <path class="fil0" d="M2141 802c0,0 0,0 0,0 0,0 0,0 0,0z"/>
    <path class="fil1" d="M189 710c-11,-73 -68,-131 -141,-141l0 -445c73,-10 130,-68 141,-141l1847 0c10,73 68,131 141,141l0 445c-73,10 -131,68 -141,141l-1847 0z"/>
    <path class="fil2" d="M153 748l1919 0 0 -14c0,-71 58,-129 129,-129l14 0 0 -517 -14 0c-71,0 -129,-58 -129,-129l0 -14 -1919 0 0 14c0,71 -58,129 -129,129l-14 0 0 517 14 0c71,0 129,58 129,129l0 14zm1929 10l-1939 0 0 -24c0,-66 -54,-119 -119,-119l-24 0 0 -537 24 0c65,0 119,-53 119,-119l0 -24 1939 0 0 24c0,66 53,119 119,119l24 0 0 537 -24 0c-66,0 -119,53 -119,119l0 24z"/>
    <path class="fil3" d="M170 731l1885 0c2,-78 65,-141 143,-143l0 -483c-78,-2 -141,-65 -143,-143l-1885 0c-2,78 -65,141 -143,143l0 483c78,2 141,65 143,143zm1891 6l-1898 0 0 -3c0,-77 -62,-140 -139,-140l-4 0 0 -496 4 0c77,0 139,-62 139,-139l0 -3 1898 0 0 3c0,77 63,139 140,139l3 0 0 496 -3 0c-77,0 -140,63 -140,140l0 3z"/>
    <path class="fil2" d="M62 -19c-13,0 -23,10 -23,23 0,13 10,23 23,23 13,0 23,-10 23,-23 0,-13 -10,-23 -23,-23z"/>
    <path class="fil2" d="M2165 -19c-13,0 -23,10 -23,23 0,13 10,23 23,23 12,0 23,-10 23,-23 0,-13 -11,-23 -23,-23z"/>
    <path class="fil2" d="M62 663c-13,0 -23,10 -23,23 0,13 10,23 23,23 13,0 23,-10 23,-23 0,-13 -10,-23 -23,-23z"/>
    <path class="fil2" d="M2165 663c-13,0 -23,10 -23,23 0,13 10,23 23,23 12,0 23,-10 23,-23 0,-13 -11,-23 -23,-23z"/>
   </g>
  </g>
  <polygon class="fil4" points="189,378 0,378 0,189 189,189 "/>
  <g>
  </g>
  <g style="clip-path:url(#id2)">
   <g>
    <path class="fil0" d="M482 -299c0,0 0,0 0,0 0,0 0,0 0,0z"/>
    <path class="fil0" d="M483 -300c0,0 0,0 0,0 0,0 0,0 0,0z"/>
    <path class="fil0" d="M-1573 -299c0,0 0,0 0,0 0,0 0,0 0,0z"/>
    <path class="fil0" d="M-1574 -300c0,0 0,0 0,0 0,0 0,0 0,0z"/>
    <path class="fil1" d="M378 -208c11,73 68,131 141,142l0 444c-73,11 -130,68 -141,141l-1847 0c-10,-73 -68,-130 -141,-141l0 -444c73,-11 131,-69 141,-142l1847 0z"/>
    <path class="fil2" d="M414 -245l-1919 0 0 13c0,71 -58,129 -129,129l-14 0 0 517 14 0c71,0 129,58 129,129l0 14 1919 0 0 -14c0,-71 58,-129 129,-129l14 0 0 -517 -14 0c-71,0 -129,-58 -129,-129l0 -13zm-1929 -10l1939 0 0 23c0,66 54,120 119,120l24 0 0 536 -24 0c-65,0 -119,54 -119,119l0 24 -1939 0 0 -24c0,-65 -53,-119 -119,-119l-24 0 0 -536 24 0c66,0 119,-54 119,-120l0 -23z"/>
    <path class="fil3" d="M397 -228l-1885 0c-2,78 -65,141 -143,142l0 483c78,2 141,65 143,143l1885 0c2,-78 65,-141 143,-143l0 -483c-78,-1 -141,-64 -143,-142zm-1891 -7l1898 0 0 3c0,77 62,140 139,140l4 0 0 496 -4 0c-77,0 -139,62 -139,139l0 4 -1898 0 0 -4c0,-77 -63,-139 -140,-139l-3 0 0 -496 3 0c77,0 140,-63 140,-140l0 -3z"/>
    <path class="fil2" d="M505 521c13,0 23,-10 23,-23 0,-13 -10,-23 -23,-23 -13,0 -23,10 -23,23 0,13 10,23 23,23z"/>
    <path class="fil2" d="M-1598 521c13,0 23,-10 23,-23 0,-13 -10,-23 -23,-23 -12,0 -23,10 -23,23 0,13 11,23 23,23z"/>
    <path class="fil2" d="M505 -161c13,0 23,-10 23,-23 0,-12 -10,-23 -23,-23 -13,0 -23,11 -23,23 0,13 10,23 23,23z"/>
    <path class="fil2" d="M-1598 -161c13,0 23,-10 23,-23 0,-12 -10,-23 -23,-23 -12,0 -23,11 -23,23 0,13 11,23 23,23z"/>
   </g>
  </g>
  <polygon class="fil4" points="378,378 567,378 567,567 378,567 "/>
  <g>
  </g>
  <g style="clip-path:url(#id3)">
   <g>
    <path class="fil0" d="M28 866c0,0 0,0 0,0 0,0 0,0 0,0z"/>
    <path class="fil0" d="M27 867c0,0 0,0 0,0 0,0 0,0 0,0z"/>
    <path class="fil0" d="M2083 866c0,0 0,0 0,0 0,0 0,0 0,0z"/>
    <path class="fil0" d="M2084 867c0,0 0,0 0,0 0,0 0,0 0,0z"/>
    <path class="fil1" d="M133 775c-11,-73 -69,-131 -142,-142l0 -444c73,-11 131,-68 142,-141l1846 0c11,73 68,130 141,141l0 444c-73,11 -130,69 -141,142l-1846 0z"/>
    <path class="fil2" d="M96 812l1919 0 0 -13c0,-71 58,-129 129,-129l14 0 0 -517 -14 0c-71,0 -129,-58 -129,-129l0 -14 -1919 0 0 14c0,71 -58,129 -129,129l-14 0 0 517 14 0c71,0 129,58 129,129l0 13zm1929 10l-1939 0 0 -23c0,-66 -53,-120 -119,-120l-23 0 0 -536 23 0c66,0 119,-54 119,-119l0 -24 1939 0 0 24c0,65 54,119 119,119l24 0 0 536 -24 0c-65,0 -119,54 -119,120l0 23z"/>
    <path class="fil3" d="M113 795l1885 0c2,-78 65,-141 143,-142l0 -483c-78,-2 -141,-65 -143,-143l-1885 0c-1,78 -65,141 -143,143l0 483c78,1 142,64 143,142zm1892 7l-1898 0 0 -3c0,-77 -63,-140 -140,-140l-3 0 0 -496 3 0c77,0 140,-62 140,-139l0 -4 1898 0 0 4c0,77 62,139 139,139l4 0 0 496 -4 0c-77,0 -139,63 -139,140l0 3z"/>
    <path class="fil2" d="M6 46c-13,0 -23,10 -23,23 0,13 10,23 23,23 12,0 23,-10 23,-23 0,-13 -11,-23 -23,-23z"/>
    <path class="fil2" d="M2108 46c-13,0 -23,10 -23,23 0,13 10,23 23,23 13,0 23,-10 23,-23 0,-13 -10,-23 -23,-23z"/>
    <path class="fil2" d="M6 728c-13,0 -23,10 -23,23 0,12 10,23 23,23 12,0 23,-11 23,-23 0,-13 -11,-23 -23,-23z"/>
    <path class="fil2" d="M2108 728c-13,0 -23,10 -23,23 0,12 10,23 23,23 13,0 23,-11 23,-23 0,-13 -10,-23 -23,-23z"/>
   </g>
  </g>
  <polygon class="fil4" points="378,189 189,189 189,0 378,0 "/>
  <g>
  </g>
  <g style="clip-path:url(#id4)">
   <g>
    <path class="fil0" d="M28 858c0,0 0,0 0,0 0,0 0,0 0,0z"/>
    <path class="fil0" d="M27 859c0,0 0,0 0,0 0,0 0,0 0,0z"/>
    <path class="fil0" d="M2083 858c0,0 0,0 0,0 0,0 0,0 0,0z"/>
    <path class="fil0" d="M2084 859c0,0 0,0 0,0 0,0 0,0 0,0z"/>
    <path class="fil1" d="M133 766c-11,-72 -69,-130 -142,-141l0 -444c73,-11 131,-68 142,-141l1846 0c11,73 68,130 141,141l0 444c-73,11 -130,69 -141,141l-1846 0z"/>
    <path class="fil2" d="M96 804l1919 0 0 -13c0,-72 58,-130 129,-130l14 0 0 -516 -14 0c-71,0 -129,-58 -129,-130l0 -13 -1919 0 0 13c0,72 -58,130 -129,130l-14 0 0 516 14 0c71,0 129,58 129,130l0 13zm1929 10l-1939 0 0 -23c0,-66 -53,-120 -119,-120l-23 0 0 -536 23 0c66,0 119,-54 119,-120l0 -23 1939 0 0 23c0,66 54,120 119,120l24 0 0 536 -24 0c-65,0 -119,54 -119,120l0 23z"/>
    <path class="fil3" d="M113 787l1885 0c2,-78 65,-141 143,-143l0 -482c-78,-2 -141,-65 -143,-143l-1885 0c-1,78 -65,141 -143,143l0 482c78,2 142,65 143,143zm1892 7l-1898 0 0 -3c0,-77 -63,-140 -140,-140l-3 0 0 -496 3 0c77,0 140,-63 140,-140l0 -3 1898 0 0 3c0,77 62,140 139,140l4 0 0 496 -4 0c-77,0 -139,63 -139,140l0 3z"/>
    <path class="fil2" d="M6 38c-13,0 -23,10 -23,23 0,12 10,23 23,23 12,0 23,-11 23,-23 0,-13 -11,-23 -23,-23z"/>
    <path class="fil2" d="M2108 38c-13,0 -23,10 -23,23 0,12 10,23 23,23 13,0 23,-11 23,-23 0,-13 -10,-23 -23,-23z"/>
    <path class="fil2" d="M6 719c-13,0 -23,11 -23,24 0,12 10,23 23,23 12,0 23,-11 23,-23 0,-13 -11,-24 -23,-24z"/>
    <path class="fil2" d="M2108 719c-13,0 -23,11 -23,24 0,12 10,23 23,23 13,0 23,-11 23,-23 0,-13 -10,-24 -23,-24z"/>
   </g>
  </g>
  <polygon class="fil4" points="378,378 189,378 189,189 378,189 "/>
  <g>
  </g>
  <g style="clip-path:url(#id5)">
   <g>
    <path class="fil0" d="M539 -299c0,0 0,0 0,0 0,0 0,0 0,0z"/>
    <path class="fil0" d="M540 -300c0,0 0,0 0,0 0,0 0,0 0,0z"/>
    <path class="fil0" d="M-1516 -299c0,0 0,0 -1,0 1,0 1,0 1,0z"/>
    <path class="fil0" d="M-1517 -300c0,0 0,0 0,0 0,0 0,0 0,0z"/>
    <path class="fil1" d="M434 -208c11,73 69,131 142,142l0 444c-73,11 -131,68 -142,141l-1846 0c-11,-73 -68,-130 -141,-141l0 -444c73,-11 130,-69 141,-142l1846 0z"/>
    <path class="fil2" d="M471 -245l-1919 0 0 13c0,71 -58,129 -130,129l-13 0 0 517 13 0c72,0 130,58 130,129l0 14 1919 0 0 -14c0,-71 58,-129 129,-129l14 0 0 -517 -14 0c-71,0 -129,-58 -129,-129l0 -13zm-1929 -10l1939 0 0 23c0,66 53,120 119,120l23 0 0 536 -23 0c-66,0 -119,54 -119,119l0 24 -1939 0 0 -24c0,-65 -54,-119 -120,-119l-23 0 0 -536 23 0c66,0 120,-54 120,-120l0 -23z"/>
    <path class="fil3" d="M454 -228l-1885 0c-2,78 -65,141 -143,142l0 483c78,2 141,65 143,143l1885 0c1,-78 65,-141 143,-143l0 -483c-78,-1 -142,-64 -143,-142zm-1892 -7l1898 0 0 3c0,77 63,140 140,140l3 0 0 496 -3 0c-77,0 -140,62 -140,139l0 4 -1898 0 0 -4c0,-77 -63,-139 -140,-139l-3 0 0 -496 3 0c77,0 140,-63 140,-140l0 -3z"/>
    <path class="fil2" d="M561 521c13,0 23,-10 23,-23 0,-13 -10,-23 -23,-23 -12,0 -23,10 -23,23 0,13 11,23 23,23z"/>
    <path class="fil2" d="M-1541 521c13,0 23,-10 23,-23 0,-13 -10,-23 -23,-23 -13,0 -23,10 -23,23 0,13 10,23 23,23z"/>
    <path class="fil2" d="M561 -161c13,0 23,-10 23,-23 0,-12 -10,-23 -23,-23 -12,0 -23,11 -23,23 0,13 11,23 23,23z"/>
    <path class="fil2" d="M-1541 -161c13,0 23,-10 23,-23 0,-12 -10,-23 -23,-23 -13,0 -23,11 -23,23 0,13 10,23 23,23z"/>
   </g>
  </g>
  <polygon class="fil4" points="189,378 378,378 378,567 189,567 "/>
  <g>
  </g>
  <g style="clip-path:url(#id6)">
   <g>
    <path class="fil0" d="M482 866c0,0 0,0 0,0 0,0 0,0 0,0z"/>
    <path class="fil0" d="M483 867c0,0 0,0 0,0 0,0 0,0 0,0z"/>
    <path class="fil0" d="M-1573 866c0,0 0,0 0,0 0,0 0,0 0,0z"/>
    <path class="fil0" d="M-1574 867c0,0 0,0 0,0 0,0 0,0 0,0z"/>
    <path class="fil1" d="M378 775c11,-73 68,-131 141,-142l0 -444c-73,-11 -130,-68 -141,-141l-1847 0c-10,73 -68,130 -141,141l0 444c73,11 131,69 141,142l1847 0z"/>
    <path class="fil2" d="M414 812l-1919 0 0 -13c0,-71 -58,-129 -129,-129l-14 0 0 -517 14 0c71,0 129,-58 129,-129l0 -14 1919 0 0 14c0,71 58,129 129,129l14 0 0 517 -14 0c-71,0 -129,58 -129,129l0 13zm-1929 10l1939 0 0 -23c0,-66 54,-120 119,-120l24 0 0 -536 -24 0c-65,0 -119,-54 -119,-119l0 -24 -1939 0 0 24c0,65 -53,119 -119,119l-24 0 0 536 24 0c66,0 119,54 119,120l0 23z"/>
    <path class="fil3" d="M397 795l-1885 0c-2,-78 -65,-141 -143,-142l0 -483c78,-2 141,-65 143,-143l1885 0c2,78 65,141 143,143l0 483c-78,1 -141,64 -143,142zm-1891 7l1898 0 0 -3c0,-77 62,-140 139,-140l4 0 0 -496 -4 0c-77,0 -139,-62 -139,-139l0 -4 -1898 0 0 4c0,77 -63,139 -140,139l-3 0 0 496 3 0c77,0 140,63 140,140l0 3z"/>
    <path class="fil2" d="M505 46c13,0 23,10 23,23 0,13 -10,23 -23,23 -13,0 -23,-10 -23,-23 0,-13 10,-23 23,-23z"/>
    <path class="fil2" d="M-1598 46c13,0 23,10 23,23 0,13 -10,23 -23,23 -12,0 -23,-10 -23,-23 0,-13 11,-23 23,-23z"/>
    <path class="fil2" d="M505 728c13,0 23,10 23,23 0,12 -10,23 -23,23 -13,0 -23,-11 -23,-23 0,-13 10,-23 23,-23z"/>
    <path class="fil2" d="M-1598 728c13,0 23,10 23,23 0,12 -10,23 -23,23 -12,0 -23,-11 -23,-23 0,-13 11,-23 23,-23z"/>
   </g>
  </g>
  <polygon class="fil4" points="378,189 567,189 567,0 378,0 "/>
  <g>
  </g>
  <g style="clip-path:url(#id7)">
   <g>
    <path class="fil0" d="M482 774c0,0 0,0 0,1 0,-1 0,-1 0,-1z"/>
    <path class="fil0" d="M483 775c0,0 0,0 0,0 0,0 0,0 0,0z"/>
    <path class="fil0" d="M-1573 774c0,0 0,0 0,1 0,-1 0,-1 0,-1z"/>
    <path class="fil0" d="M-1574 775c0,0 0,0 0,0 0,0 0,0 0,0z"/>
    <path class="fil1" d="M378 683c11,-73 68,-131 141,-141l0 -445c-73,-10 -130,-68 -141,-141l-1847 0c-10,73 -68,131 -141,141l0 445c73,10 131,68 141,141l1847 0z"/>
    <path class="fil2" d="M414 721l-1919 0 0 -14c0,-71 -58,-129 -129,-129l-14 0 0 -517 14 0c71,0 129,-58 129,-129l0 -14 1919 0 0 14c0,71 58,129 129,129l14 0 0 517 -14 0c-71,0 -129,58 -129,129l0 14zm-1929 10l1939 0 0 -24c0,-66 54,-119 119,-119l24 0 0 -537 -24 0c-65,0 -119,-53 -119,-119l0 -24 -1939 0 0 24c0,66 -53,119 -119,119l-24 0 0 537 24 0c66,0 119,53 119,119l0 24z"/>
    <path class="fil3" d="M397 704l-1885 0c-2,-78 -65,-141 -143,-143l0 -483c78,-1 141,-65 143,-143l1885 0c2,78 65,142 143,143l0 483c-78,2 -141,65 -143,143zm-1891 7l1898 0 0 -4c0,-77 62,-139 139,-139l4 0 0 -496 -4 0c-77,0 -139,-63 -139,-140l0 -3 -1898 0 0 3c0,77 -63,140 -140,140l-3 0 0 496 3 0c77,0 140,62 140,139l0 4z"/>
    <path class="fil2" d="M505 -46c13,0 23,11 23,23 0,13 -10,23 -23,23 -13,0 -23,-10 -23,-23 0,-12 10,-23 23,-23z"/>
    <path class="fil2" d="M-1598 -46c13,0 23,11 23,23 0,13 -10,23 -23,23 -12,0 -23,-10 -23,-23 0,-12 11,-23 23,-23z"/>
    <path class="fil2" d="M505 636c13,0 23,10 23,23 0,13 -10,23 -23,23 -13,0 -23,-10 -23,-23 0,-13 10,-23 23,-23z"/>
    <path class="fil2" d="M-1598 636c13,0 23,10 23,23 0,13 -10,23 -23,23 -12,0 -23,-10 -23,-23 0,-13 11,-23 23,-23z"/>
   </g>
  </g>
  <polygon class="fil4" points="378,378 567,378 567,189 378,189 "/>
  <g>
  </g>
  <g style="clip-path:url(#id8)">
   <g>
    <path class="fil0" d="M85 -299c0,0 0,0 0,0 0,0 0,0 0,0z"/>
    <path class="fil0" d="M84 -300c0,0 0,0 0,0 0,0 0,0 0,0z"/>
    <path class="fil0" d="M2140 -299c0,0 0,0 0,0 0,0 0,0 0,0z"/>
    <path class="fil0" d="M2141 -300c0,0 0,0 0,0 0,0 0,0 0,0z"/>
    <path class="fil1" d="M189 -208c-11,73 -68,131 -141,142l0 444c73,11 130,68 141,141l1847 0c10,-73 68,-130 141,-141l0 -444c-73,-11 -131,-69 -141,-142l-1847 0z"/>
    <path class="fil2" d="M153 -245l1919 0 0 13c0,71 58,129 129,129l14 0 0 517 -14 0c-71,0 -129,58 -129,129l0 14 -1919 0 0 -14c0,-71 -58,-129 -129,-129l-14 0 0 -517 14 0c71,0 129,-58 129,-129l0 -13zm1929 -10l-1939 0 0 23c0,66 -54,120 -119,120l-24 0 0 536 24 0c65,0 119,54 119,119l0 24 1939 0 0 -24c0,-65 53,-119 119,-119l24 0 0 -536 -24 0c-66,0 -119,-54 -119,-120l0 -23z"/>
    <path class="fil3" d="M170 -228l1885 0c2,78 65,141 143,142l0 483c-78,2 -141,65 -143,143l-1885 0c-2,-78 -65,-141 -143,-143l0 -483c78,-1 141,-64 143,-142zm1891 -7l-1898 0 0 3c0,77 -62,140 -139,140l-4 0 0 496 4 0c77,0 139,62 139,139l0 4 1898 0 0 -4c0,-77 63,-139 140,-139l3 0 0 -496 -3 0c-77,0 -140,-63 -140,-140l0 -3z"/>
    <path class="fil2" d="M62 521c-13,0 -23,-10 -23,-23 0,-13 10,-23 23,-23 13,0 23,10 23,23 0,13 -10,23 -23,23z"/>
    <path class="fil2" d="M2165 521c-13,0 -23,-10 -23,-23 0,-13 10,-23 23,-23 12,0 23,10 23,23 0,13 -11,23 -23,23z"/>
    <path class="fil2" d="M62 -161c-13,0 -23,-10 -23,-23 0,-12 10,-23 23,-23 13,0 23,11 23,23 0,13 -10,23 -23,23z"/>
    <path class="fil2" d="M2165 -161c-13,0 -23,-10 -23,-23 0,-12 10,-23 23,-23 12,0 23,11 23,23 0,13 -11,23 -23,23z"/>
   </g>
  </g>
  <polygon class="fil4" points="189,378 0,378 0,567 189,567 "/>
 </g>
</svg>
