<?xml version="1.0" encoding="UTF-8"?>
<!DOCTYPE svg PUBLIC "-//W3C//DTD SVG 1.1//EN" "http://www.w3.org/Graphics/SVG/1.1/DTD/svg11.dtd">
<!-- Creator: CorelDRAW X7 -->
<svg xmlns="http://www.w3.org/2000/svg" xml:space="preserve" width="5.92715in" height="5.92716in" version="1.1" style="shape-rendering:geometricPrecision; text-rendering:geometricPrecision; image-rendering:optimizeQuality; fill-rule:evenodd; clip-rule:evenodd"
viewBox="0 0 3696 3696"
 xmlns:xlink="http://www.w3.org/1999/xlink">
 <defs>
  <style type="text/css">
   <![CDATA[
    .fil0 {fill:#DC5E65}
    .fil1 {fill:#AC713A}
   ]]>
  </style>
 </defs>
 <g id="Layer_x0020_1">
  <metadata id="CorelCorpID_0Corel-Layer"/>
  <g id="_1853757983136">
   <path class="fil0" d="M260 177c-48,0 -87,39 -87,87 0,48 39,87 87,87 48,0 86,-39 86,-87 0,-48 -38,-87 -86,-87zm228 847c-2,-10 -25,-122 34,-180 0,0 -52,-5 -90,-73 -5,78 -51,104 -51,104 78,28 105,139 107,149zm-35 -569c0,0 14,24 40,55 13,16 29,34 47,52 18,17 38,35 58,53 80,74 161,146 161,146l2 -2c0,0 -72,-81 -146,-161 -18,-20 -36,-40 -53,-58 -18,-18 -36,-34 -52,-47 -31,-26 -55,-40 -55,-40l-2 2zm571 33c-10,-2 -122,-25 -180,34 0,0 -5,-52 -73,-90 78,-5 104,-51 104,-51 28,78 139,105 149,107zm-1002 -85l381 0 0 -381 -381 0 0 381zm403 22l-425 0 0 -425 425 0 0 425zm-221 -161c0,31 25,55 56,55 30,0 55,-24 55,-55 0,-30 -25,-55 -55,-55 -31,0 -56,25 -56,55zm56 108c-60,0 -108,-48 -108,-108 0,-59 48,-108 108,-108 59,0 108,49 108,108 0,60 -49,108 -108,108z"/>
   <path class="fil1" d="M1232 107c0,0 -275,7 -551,11 -69,1 -137,2 -202,3 -32,0 -63,0 -93,-1 -29,-1 -57,-2 -83,-2 -26,-1 -50,-3 -71,-4 -21,-1 -39,-2 -54,-3 -30,-2 -47,-4 -47,-4l0 -3c0,0 17,-2 47,-4 15,-1 33,-2 54,-3 21,-1 45,-2 71,-3 26,-1 53,-2 83,-3 30,-1 61,0 93,-1 65,1 133,3 202,4 276,4 551,10 551,10l0 3zm-1125 1125c0,0 7,-275 11,-551 1,-69 2,-137 3,-202 0,-32 0,-63 -1,-93 -1,-29 -2,-57 -3,-83 0,-26 -2,-50 -3,-71 -1,-21 -2,-39 -3,-54 -2,-30 -4,-47 -4,-47l-3 0c0,0 -2,17 -4,47 -1,15 -2,33 -3,54 -1,21 -2,45 -3,71 -1,26 -2,53 -3,83 -1,30 0,61 -1,93 1,65 3,133 4,202 4,276 10,551 10,551l3 0zm79 -41c0,0 8,-9 21,-25 13,-16 30,-40 47,-71 9,-16 18,-33 25,-52 4,-9 8,-19 11,-30 3,-10 6,-20 8,-32 2,-11 4,-22 5,-34 1,-11 2,-23 1,-35 -1,-12 -1,-24 -4,-36 -3,-12 -5,-24 -10,-35 -7,-24 -21,-46 -32,-65 -6,-10 -12,-20 -18,-29 -5,-10 -10,-19 -15,-28 -4,-9 -7,-19 -11,-28 -3,-10 -6,-19 -8,-28 -3,-18 -6,-36 -3,-52 1,-16 5,-31 10,-44 5,-12 11,-23 16,-31 11,-17 20,-25 20,-25l-2 -2c0,0 -11,5 -26,20 -8,8 -16,18 -24,31 -6,13 -15,29 -18,47 -4,19 -3,39 -1,61 2,10 4,21 7,32 4,10 8,21 12,32 6,10 12,21 18,31 6,9 13,19 19,28 13,20 26,37 34,58 5,10 7,21 10,32 3,10 4,21 5,32 2,11 1,22 1,33 0,11 -2,22 -3,32 -1,11 -4,21 -7,31 -2,10 -5,20 -8,29 -6,19 -14,36 -21,52 -15,32 -31,56 -42,73 -12,17 -19,26 -19,26l2 2zm168 -502c-6,-10 -26,-47 -87,-48 0,0 26,-34 12,-90 42,39 85,33 85,33 -28,55 -14,99 -10,105zm-85 -188c0,0 10,-1 26,-1 17,1 41,4 66,14 13,6 26,13 37,23 12,10 22,23 31,37 9,14 15,30 21,47 3,9 6,18 10,27 3,9 8,19 13,28 10,19 23,35 36,49 15,15 30,27 47,36 16,10 33,17 50,22 16,6 33,8 48,9 15,2 28,1 40,-1 12,-2 23,-5 31,-8 8,-3 14,-6 17,-9 4,-2 6,-4 6,-4 0,0 -2,1 -6,3 -4,2 -11,3 -19,5 -8,1 -18,2 -29,2 -12,0 -25,-2 -38,-5 -7,-1 -14,-3 -21,-5 -7,-2 -14,-5 -22,-8 -14,-5 -29,-14 -43,-23 -7,-4 -14,-10 -21,-15 -6,-6 -13,-12 -19,-19 -12,-13 -23,-27 -31,-43 -4,-8 -9,-14 -12,-24 -3,-8 -7,-17 -10,-26 -6,-19 -15,-37 -26,-53 -11,-16 -25,-30 -40,-39 -14,-11 -30,-17 -44,-22 -30,-8 -55,-6 -72,-4 -17,3 -26,7 -26,7zm232 -232c0,0 -1,10 -1,26 1,17 4,41 14,66 6,13 13,26 23,37 10,12 23,22 37,31 14,9 30,15 47,21 9,3 18,6 27,10 9,3 19,8 28,13 19,10 35,23 49,36 15,15 27,30 36,47 10,16 17,33 22,50 6,16 8,33 9,48 2,15 1,28 -1,40 -2,12 -5,23 -8,31 -3,8 -6,14 -9,17 -2,4 -4,6 -4,6 0,0 1,-2 3,-6 2,-4 3,-11 5,-19 1,-8 2,-18 2,-29 0,-12 -2,-25 -5,-38 -1,-7 -3,-14 -5,-21 -2,-7 -5,-14 -8,-22 -5,-14 -14,-29 -23,-43 -4,-7 -10,-14 -15,-21 -6,-6 -12,-13 -19,-19 -13,-12 -27,-23 -43,-31 -8,-4 -14,-9 -24,-12 -8,-3 -17,-7 -26,-10 -19,-6 -37,-15 -53,-26 -16,-11 -30,-25 -39,-40 -11,-14 -17,-30 -22,-44 -8,-30 -6,-55 -4,-72 3,-17 7,-26 7,-26zm188 85c-10,-6 -47,-26 -48,-87 0,0 -34,26 -90,12 39,42 33,85 33,85 55,-28 99,-14 105,-10zm502 -168c0,0 -9,8 -25,21 -16,13 -40,30 -71,47 -16,9 -33,18 -52,25 -9,4 -19,8 -30,11 -10,3 -20,6 -32,8 -11,2 -22,4 -34,5 -11,1 -23,2 -35,1 -12,-1 -24,-1 -36,-4 -12,-3 -24,-5 -35,-10 -24,-7 -46,-21 -65,-32 -10,-6 -20,-12 -29,-18 -10,-5 -19,-10 -28,-15 -9,-4 -19,-7 -28,-11 -10,-3 -19,-6 -28,-8 -18,-3 -36,-6 -52,-3 -16,1 -31,5 -44,10 -12,5 -23,11 -31,16 -17,11 -25,20 -25,20l-2 -2c0,0 5,-11 20,-26 8,-8 18,-16 31,-24 13,-6 28,-15 47,-18 19,-4 39,-3 61,-1 10,2 21,4 32,7 10,4 21,8 32,12 10,6 21,12 31,18 9,6 19,13 28,19 20,13 37,26 58,34 10,5 21,7 32,10 10,3 21,4 32,5 11,2 22,1 33,1 11,0 22,-2 32,-3 11,-1 21,-4 31,-7 10,-2 20,-5 29,-8 19,-6 36,-14 52,-21 32,-15 56,-31 73,-42 17,-12 26,-19 26,-19l2 2z"/>
  </g>
  <g id="_1853760780944">
   <path class="fil0" d="M260 3518c-48,0 -87,-39 -87,-87 0,-48 39,-86 87,-86 48,0 86,38 86,86 0,48 -38,87 -86,87zm228 -846c-2,10 -25,122 34,180 0,0 -52,4 -90,73 -5,-78 -51,-104 -51,-104 78,-28 105,-139 107,-149zm-35 568c0,0 14,-23 40,-55 13,-15 29,-33 47,-51 18,-18 38,-35 58,-54 80,-73 161,-145 161,-145l2 2c0,0 -72,81 -146,160 -18,20 -36,41 -53,59 -18,18 -36,34 -52,46 -31,26 -55,41 -55,41l-2 -3zm571 -33c-10,3 -122,25 -180,-34 0,0 -5,52 -73,90 78,6 104,51 104,51 28,-78 139,-104 149,-107zm-1002 85l381 0 0 382 -381 0 0 -382zm403 -21l-425 0 0 425 425 0 0 -425zm-221 160c0,-30 25,-55 56,-55 30,0 55,25 55,55 0,31 -25,56 -55,56 -31,0 -56,-25 -56,-56zm56 -108c-60,0 -108,49 -108,108 0,60 48,109 108,109 59,0 108,-49 108,-109 0,-59 -49,-108 -108,-108z"/>
   <path class="fil1" d="M1232 3588c0,0 -275,-6 -551,-10 -69,-1 -137,-3 -202,-4 -32,1 -63,0 -93,2 -29,0 -57,1 -83,2 -26,1 -50,2 -71,3 -21,1 -39,2 -54,4 -30,2 -47,3 -47,3l0 3c0,0 17,2 47,4 15,1 33,2 54,3 21,1 45,3 71,4 26,0 53,1 83,2 30,1 61,1 93,1 65,-1 133,-2 202,-3 276,-4 551,-11 551,-11l0 -3zm-1125 -1124c0,0 7,275 11,550 1,69 2,138 3,202 0,33 0,64 -1,93 -1,30 -2,58 -3,84 0,26 -2,49 -3,70 -1,21 -2,39 -3,55 -2,30 -4,47 -4,47l-3 0c0,0 -2,-17 -4,-47 -1,-16 -2,-34 -3,-55 -1,-21 -2,-44 -3,-70 -1,-26 -2,-54 -3,-84 -1,-29 0,-60 -1,-93 1,-64 3,-133 4,-202 4,-275 10,-550 10,-550l3 0zm79 41c0,0 8,8 21,25 13,16 30,40 47,71 9,15 18,32 25,51 4,10 8,20 11,30 3,10 6,21 8,32 2,11 4,22 5,34 1,12 2,24 1,36 -1,11 -1,24 -4,36 -3,11 -5,24 -10,35 -7,23 -21,45 -32,65 -6,10 -12,19 -18,29 -5,9 -10,19 -15,28 -4,9 -7,19 -11,28 -3,9 -6,19 -8,28 -3,18 -6,36 -3,52 1,16 5,31 10,43 5,13 11,23 16,32 11,16 20,24 20,24l-2 3c0,0 -11,-6 -26,-21 -8,-7 -16,-17 -24,-30 -6,-13 -15,-29 -18,-48 -4,-18 -3,-39 -1,-60 2,-11 4,-22 7,-33 4,-10 8,-21 12,-31 6,-11 12,-21 18,-32 6,-9 13,-18 19,-28 13,-19 26,-36 34,-57 5,-10 7,-21 10,-32 3,-11 4,-22 5,-33 2,-11 1,-22 1,-33 0,-11 -2,-21 -3,-32 -1,-11 -4,-21 -7,-31 -2,-10 -5,-20 -8,-29 -6,-19 -14,-36 -21,-52 -15,-31 -31,-56 -42,-72 -12,-17 -19,-26 -19,-26l2 -2zm168 501c-6,11 -26,47 -87,49 0,0 26,34 12,90 42,-40 85,-34 85,-34 -28,-54 -14,-98 -10,-105zm-85 189c0,0 10,1 26,0 17,0 41,-4 66,-14 13,-6 26,-13 37,-23 12,-9 22,-22 31,-36 9,-14 15,-31 21,-48 3,-9 6,-18 10,-27 3,-9 8,-19 13,-28 10,-18 23,-34 36,-49 15,-14 30,-26 47,-36 16,-9 33,-17 50,-22 16,-5 33,-8 48,-9 15,-1 28,0 40,2 12,1 23,4 31,7 8,3 14,7 17,9 4,3 6,4 6,4 0,0 -2,-1 -6,-2 -4,-2 -11,-4 -19,-5 -8,-2 -18,-3 -29,-2 -12,0 -25,2 -38,4 -7,2 -14,3 -21,6 -7,2 -14,4 -22,7 -14,6 -29,14 -43,23 -7,5 -14,11 -21,16 -6,6 -13,12 -19,18 -12,13 -23,28 -31,43 -4,8 -9,15 -12,24 -3,9 -7,18 -10,26 -6,19 -15,37 -26,53 -11,16 -25,30 -40,40 -14,11 -30,17 -44,21 -30,8 -55,6 -72,4 -17,-2 -26,-6 -26,-6zm232 231c0,0 -1,-9 -1,-26 1,-17 4,-40 14,-66 6,-12 13,-25 23,-37 10,-12 23,-21 37,-30 14,-9 30,-16 47,-21 9,-3 18,-7 27,-10 9,-3 19,-9 28,-13 19,-10 35,-23 49,-37 15,-14 27,-30 36,-46 10,-17 17,-34 22,-50 6,-17 8,-33 9,-48 2,-15 1,-29 -1,-41 -2,-12 -5,-22 -8,-30 -3,-8 -6,-14 -9,-18 -2,-4 -4,-6 -4,-6 0,0 1,3 3,7 2,4 3,10 5,18 1,8 2,18 2,30 0,11 -2,24 -5,38 -1,6 -3,13 -5,21 -2,7 -5,14 -8,21 -5,15 -14,29 -23,44 -4,7 -10,13 -15,20 -6,7 -12,13 -19,19 -13,12 -27,23 -43,32 -8,3 -14,8 -24,12 -8,3 -17,6 -26,9 -19,7 -37,16 -53,27 -16,11 -30,24 -39,39 -11,14 -17,30 -22,45 -8,29 -6,55 -4,71 3,17 7,26 7,26zm188 -85c-10,7 -47,27 -48,88 0,0 -34,-27 -90,-12 39,-43 33,-85 33,-85 55,28 99,13 105,9zm502 169c0,0 -9,-9 -25,-21 -16,-13 -40,-30 -71,-48 -16,-8 -33,-17 -52,-24 -9,-5 -19,-8 -30,-11 -10,-3 -20,-6 -32,-8 -11,-3 -22,-5 -34,-5 -11,-1 -23,-2 -35,-1 -12,0 -24,1 -36,4 -12,3 -24,4 -35,9 -24,7 -46,22 -65,33 -10,6 -20,12 -29,18 -10,5 -19,9 -28,14 -9,5 -19,8 -28,12 -10,2 -19,5 -28,8 -18,3 -36,5 -52,3 -16,-1 -31,-6 -44,-10 -12,-6 -23,-11 -31,-17 -17,-11 -25,-19 -25,-19l-2 1c0,0 5,11 20,26 8,8 18,16 31,24 13,7 28,15 47,18 19,4 39,4 61,2 10,-2 21,-4 32,-8 10,-4 21,-7 32,-12 10,-6 21,-11 31,-17 9,-7 19,-13 28,-20 20,-13 37,-25 58,-33 10,-5 21,-8 32,-10 10,-4 21,-5 32,-6 11,-1 22,-1 33,0 11,-1 22,1 32,3 11,1 21,3 31,6 10,2 20,5 29,9 19,6 36,13 52,21 32,15 56,30 73,42 17,11 26,19 26,19l2 -2z"/>
  </g>
  <g id="_1853760780560">
   <path class="fil0" d="M3436 177c48,0 86,39 86,87 0,48 -38,87 -86,87 -48,0 -87,-39 -87,-87 0,-48 39,-87 87,-87zm-229 847c3,-10 25,-122 -34,-180 0,0 52,-5 90,-73 6,78 51,104 51,104 -78,28 -104,139 -107,149zm36 -569c0,0 -15,24 -41,55 -12,16 -28,34 -46,52 -18,17 -39,35 -59,53 -79,74 -160,146 -160,146l-2 -2c0,0 72,-81 145,-161 19,-20 36,-40 54,-58 18,-18 36,-34 51,-47 32,-26 55,-40 55,-40l3 2zm-571 33c10,-2 122,-25 180,34 0,0 4,-52 73,-90 -78,-5 -104,-51 -104,-51 -28,78 -139,105 -149,107zm1002 -85l-382 0 0 -381 382 0 0 381zm-403 22l425 0 0 -425 -425 0 0 425zm220 -161c0,31 -25,55 -55,55 -31,0 -56,-24 -56,-55 0,-30 25,-55 56,-55 30,0 55,25 55,55zm-55 108c59,0 108,-48 108,-108 0,-59 -49,-108 -108,-108 -60,0 -109,49 -109,108 0,60 49,108 109,108z"/>
   <path class="fil1" d="M2464 107c0,0 275,7 550,11 69,1 138,2 202,3 33,0 64,0 93,-1 30,-1 58,-2 84,-2 26,-1 49,-3 70,-4 21,-1 39,-2 55,-3 30,-2 47,-4 47,-4l0 -3c0,0 -17,-2 -47,-4 -16,-1 -34,-2 -55,-3 -21,-1 -44,-2 -70,-3 -26,-1 -54,-2 -84,-3 -29,-1 -60,0 -93,-1 -64,1 -133,3 -202,4 -275,4 -550,10 -550,10l0 3zm1124 1125c0,0 -6,-275 -10,-551 -1,-69 -3,-137 -4,-202 1,-32 0,-63 2,-93 0,-29 1,-57 2,-83 1,-26 2,-50 3,-71 1,-21 2,-39 4,-54 2,-30 3,-47 3,-47l3 0c0,0 2,17 4,47 1,15 2,33 3,54 1,21 3,45 4,71 0,26 1,53 2,83 1,30 1,61 1,93 -1,65 -2,133 -3,202 -4,276 -11,551 -11,551l-3 0zm-78 -41c0,0 -9,-9 -21,-25 -13,-16 -30,-40 -48,-71 -8,-16 -17,-33 -24,-52 -5,-9 -8,-19 -11,-30 -3,-10 -6,-20 -8,-32 -3,-11 -5,-22 -5,-34 -1,-11 -2,-23 -1,-35 0,-12 1,-24 4,-36 3,-12 4,-24 9,-35 7,-24 22,-46 33,-65 6,-10 12,-20 18,-29 5,-10 9,-19 14,-28 5,-9 8,-19 12,-28 2,-10 5,-19 8,-28 3,-18 5,-36 3,-52 -1,-16 -6,-31 -10,-44 -6,-12 -11,-23 -17,-31 -11,-17 -19,-25 -19,-25l1 -2c0,0 11,5 26,20 8,8 16,18 24,31 7,13 15,29 18,47 4,19 4,39 2,61 -2,10 -4,21 -8,32 -4,10 -7,21 -12,32 -6,10 -11,21 -17,31 -7,9 -13,19 -20,28 -13,20 -25,37 -33,58 -5,10 -8,21 -10,32 -4,10 -5,21 -6,32 -1,11 -1,22 0,33 -1,11 1,22 3,32 1,11 3,21 6,31 2,10 5,20 9,29 6,19 13,36 21,52 15,32 30,56 42,73 11,17 19,26 19,26l-2 2zm-169 -502c7,-10 27,-47 88,-48 0,0 -27,-34 -12,-90 -43,39 -85,33 -85,33 28,55 13,99 9,105zm85 -188c0,0 -9,-1 -26,-1 -17,1 -40,4 -66,14 -12,6 -25,13 -37,23 -12,10 -21,23 -30,37 -9,14 -16,30 -21,47 -3,9 -7,18 -10,27 -3,9 -9,19 -13,28 -10,19 -23,35 -37,49 -14,15 -30,27 -46,36 -17,10 -34,17 -50,22 -17,6 -33,8 -48,9 -15,2 -29,1 -41,-1 -12,-2 -22,-5 -30,-8 -8,-3 -14,-6 -18,-9 -4,-2 -6,-4 -6,-4 0,0 3,1 7,3 4,2 10,3 18,5 8,1 18,2 30,2 11,0 24,-2 38,-5 6,-1 13,-3 21,-5 7,-2 14,-5 21,-8 15,-5 29,-14 44,-23 7,-4 13,-10 20,-15 7,-6 13,-12 19,-19 12,-13 23,-27 32,-43 3,-8 8,-14 12,-24 3,-8 6,-17 9,-26 7,-19 16,-37 27,-53 11,-16 24,-30 39,-39 14,-11 30,-17 45,-22 29,-8 55,-6 71,-4 17,3 26,7 26,7zm-231 -232c0,0 1,10 0,26 0,17 -4,41 -14,66 -6,13 -13,26 -23,37 -9,12 -22,22 -36,31 -14,9 -31,15 -48,21 -9,3 -18,6 -27,10 -9,3 -19,8 -28,13 -18,10 -34,23 -49,36 -14,15 -26,30 -36,47 -9,16 -17,33 -22,50 -5,16 -8,33 -9,48 -1,15 0,28 2,40 1,12 4,23 7,31 3,8 7,14 9,17 3,4 4,6 4,6 0,0 -1,-2 -2,-6 -2,-4 -4,-11 -5,-19 -2,-8 -3,-18 -2,-29 0,-12 2,-25 4,-38 2,-7 3,-14 6,-21 2,-7 4,-14 7,-22 6,-14 14,-29 23,-43 5,-7 11,-14 16,-21 6,-6 12,-13 18,-19 13,-12 28,-23 43,-31 8,-4 15,-9 24,-12 9,-3 18,-7 26,-10 19,-6 37,-15 53,-26 16,-11 30,-25 40,-40 11,-14 17,-30 21,-44 8,-30 6,-55 4,-72 -2,-17 -6,-26 -6,-26zm-189 85c11,-6 47,-26 49,-87 0,0 34,26 90,12 -40,42 -34,85 -34,85 -54,-28 -98,-14 -105,-10zm-501 -168c0,0 8,8 25,21 16,13 40,30 71,47 15,9 32,18 51,25 10,4 20,8 30,11 10,3 21,6 32,8 11,2 22,4 34,5 12,1 24,2 36,1 11,-1 24,-1 36,-4 11,-3 24,-5 35,-10 23,-7 45,-21 65,-32 10,-6 19,-12 29,-18 9,-5 19,-10 28,-15 9,-4 19,-7 28,-11 9,-3 19,-6 28,-8 18,-3 36,-6 52,-3 16,1 31,5 43,10 13,5 23,11 32,16 16,11 24,20 24,20l3 -2c0,0 -6,-11 -21,-26 -7,-8 -17,-16 -30,-24 -13,-6 -29,-15 -48,-18 -18,-4 -39,-3 -60,-1 -11,2 -22,4 -33,7 -10,4 -21,8 -31,12 -11,6 -21,12 -32,18 -9,6 -18,13 -28,19 -19,13 -36,26 -57,34 -10,5 -21,7 -32,10 -11,3 -22,4 -33,5 -11,2 -22,1 -33,1 -11,0 -21,-2 -32,-3 -11,-1 -21,-4 -31,-7 -10,-2 -20,-5 -29,-8 -19,-6 -36,-14 -52,-21 -31,-15 -56,-31 -72,-42 -17,-12 -26,-19 -26,-19l-2 2z"/>
  </g>
  <g id="_1853760790560">
   <path class="fil0" d="M3436 3518c48,0 86,-39 86,-87 0,-48 -38,-86 -86,-86 -48,0 -87,38 -87,86 0,48 39,87 87,87zm-229 -846c3,10 25,122 -34,180 0,0 52,4 90,73 6,-78 51,-104 51,-104 -78,-28 -104,-139 -107,-149zm36 568c0,0 -15,-23 -41,-55 -12,-15 -28,-33 -46,-51 -18,-18 -39,-35 -59,-54 -79,-73 -160,-145 -160,-145l-2 2c0,0 72,81 145,160 19,20 36,41 54,59 18,18 36,34 51,46 32,26 55,41 55,41l3 -3zm-571 -33c10,3 122,25 180,-34 0,0 4,52 73,90 -78,6 -104,51 -104,51 -28,-78 -139,-104 -149,-107zm1002 85l-382 0 0 382 382 0 0 -382zm-403 -21l425 0 0 425 -425 0 0 -425zm220 160c0,-30 -25,-55 -55,-55 -31,0 -56,25 -56,55 0,31 25,56 56,56 30,0 55,-25 55,-56zm-55 -108c59,0 108,49 108,108 0,60 -49,109 -108,109 -60,0 -109,-49 -109,-109 0,-59 49,-108 109,-108z"/>
   <path class="fil1" d="M2464 3588c0,0 275,-6 550,-10 69,-1 138,-3 202,-4 33,1 64,0 93,2 30,0 58,1 84,2 26,1 49,2 70,3 21,1 39,2 55,4 30,2 47,3 47,3l0 3c0,0 -17,2 -47,4 -16,1 -34,2 -55,3 -21,1 -44,3 -70,4 -26,0 -54,1 -84,2 -29,1 -60,1 -93,1 -64,-1 -133,-2 -202,-3 -275,-4 -550,-11 -550,-11l0 -3zm1124 -1124c0,0 -6,275 -10,550 -1,69 -3,138 -4,202 1,33 0,64 2,93 0,30 1,58 2,84 1,26 2,49 3,70 1,21 2,39 4,55 2,30 3,47 3,47l3 0c0,0 2,-17 4,-47 1,-16 2,-34 3,-55 1,-21 3,-44 4,-70 0,-26 1,-54 2,-84 1,-29 1,-60 1,-93 -1,-64 -2,-133 -3,-202 -4,-275 -11,-550 -11,-550l-3 0zm-78 41c0,0 -9,8 -21,25 -13,16 -30,40 -48,71 -8,15 -17,32 -24,51 -5,10 -8,20 -11,30 -3,10 -6,21 -8,32 -3,11 -5,22 -5,34 -1,12 -2,24 -1,36 0,11 1,24 4,36 3,11 4,24 9,35 7,23 22,45 33,65 6,10 12,19 18,29 5,9 9,19 14,28 5,9 8,19 12,28 2,9 5,19 8,28 3,18 5,36 3,52 -1,16 -6,31 -10,43 -6,13 -11,23 -17,32 -11,16 -19,24 -19,24l1 3c0,0 11,-6 26,-21 8,-7 16,-17 24,-30 7,-13 15,-29 18,-48 4,-18 4,-39 2,-60 -2,-11 -4,-22 -8,-33 -4,-10 -7,-21 -12,-31 -6,-11 -11,-21 -17,-32 -7,-9 -13,-18 -20,-28 -13,-19 -25,-36 -33,-57 -5,-10 -8,-21 -10,-32 -4,-11 -5,-22 -6,-33 -1,-11 -1,-22 0,-33 -1,-11 1,-21 3,-32 1,-11 3,-21 6,-31 2,-10 5,-20 9,-29 6,-19 13,-36 21,-52 15,-31 30,-56 42,-72 11,-17 19,-26 19,-26l-2 -2zm-169 501c7,11 27,47 88,49 0,0 -27,34 -12,90 -43,-40 -85,-34 -85,-34 28,-54 13,-98 9,-105zm85 189c0,0 -9,1 -26,0 -17,0 -40,-4 -66,-14 -12,-6 -25,-13 -37,-23 -12,-9 -21,-22 -30,-36 -9,-14 -16,-31 -21,-48 -3,-9 -7,-18 -10,-27 -3,-9 -9,-19 -13,-28 -10,-18 -23,-34 -37,-49 -14,-14 -30,-26 -46,-36 -17,-9 -34,-17 -50,-22 -17,-5 -33,-8 -48,-9 -15,-1 -29,0 -41,2 -12,1 -22,4 -30,7 -8,3 -14,7 -18,9 -4,3 -6,4 -6,4 0,0 3,-1 7,-2 4,-2 10,-4 18,-5 8,-2 18,-3 30,-2 11,0 24,2 38,4 6,2 13,3 21,6 7,2 14,4 21,7 15,6 29,14 44,23 7,5 13,11 20,16 7,6 13,12 19,18 12,13 23,28 32,43 3,8 8,15 12,24 3,9 6,18 9,26 7,19 16,37 27,53 11,16 24,30 39,40 14,11 30,17 45,21 29,8 55,6 71,4 17,-2 26,-6 26,-6zm-231 231c0,0 1,-9 0,-26 0,-17 -4,-40 -14,-66 -6,-12 -13,-25 -23,-37 -9,-12 -22,-21 -36,-30 -14,-9 -31,-16 -48,-21 -9,-3 -18,-7 -27,-10 -9,-3 -19,-9 -28,-13 -18,-10 -34,-23 -49,-37 -14,-14 -26,-30 -36,-46 -9,-17 -17,-34 -22,-50 -5,-17 -8,-33 -9,-48 -1,-15 0,-29 2,-41 1,-12 4,-22 7,-30 3,-8 7,-14 9,-18 3,-4 4,-6 4,-6 0,0 -1,3 -2,7 -2,4 -4,10 -5,18 -2,8 -3,18 -2,30 0,11 2,24 4,38 2,6 3,13 6,21 2,7 4,14 7,21 6,15 14,29 23,44 5,7 11,13 16,20 6,7 12,13 18,19 13,12 28,23 43,32 8,3 15,8 24,12 9,3 18,6 26,9 19,7 37,16 53,27 16,11 30,24 40,39 11,14 17,30 21,45 8,29 6,55 4,71 -2,17 -6,26 -6,26zm-189 -85c11,7 47,27 49,88 0,0 34,-27 90,-12 -40,-43 -34,-85 -34,-85 -54,28 -98,13 -105,9zm-501 169c0,0 8,-9 25,-21 16,-13 40,-30 71,-48 15,-8 32,-17 51,-24 10,-5 20,-8 30,-11 10,-3 21,-6 32,-8 11,-3 22,-5 34,-5 12,-1 24,-2 36,-1 11,0 24,1 36,4 11,3 24,4 35,9 23,7 45,22 65,33 10,6 19,12 29,18 9,5 19,9 28,14 9,5 19,8 28,12 9,2 19,5 28,8 18,3 36,5 52,3 16,-1 31,-6 43,-10 13,-6 23,-11 32,-17 16,-11 24,-19 24,-19l3 1c0,0 -6,11 -21,26 -7,8 -17,16 -30,24 -13,7 -29,15 -48,18 -18,4 -39,4 -60,2 -11,-2 -22,-4 -33,-8 -10,-4 -21,-7 -31,-12 -11,-6 -21,-11 -32,-17 -9,-7 -18,-13 -28,-20 -19,-13 -36,-25 -57,-33 -10,-5 -21,-8 -32,-10 -11,-4 -22,-5 -33,-6 -11,-1 -22,-1 -33,0 -11,-1 -21,1 -32,3 -11,1 -21,3 -31,6 -10,2 -20,5 -29,9 -19,6 -36,13 -52,21 -31,15 -56,30 -72,42 -17,11 -26,19 -26,19l-2 -2z"/>
  </g>
 </g>
</svg>
