<?xml version="1.0" encoding="UTF-8"?>
<!DOCTYPE svg PUBLIC "-//W3C//DTD SVG 1.1//EN" "http://www.w3.org/Graphics/SVG/1.1/DTD/svg11.dtd">
<!-- Creator: CorelDRAW X7 -->
<svg xmlns="http://www.w3.org/2000/svg" xml:space="preserve" width="2.46554in" height="0.864417in" version="1.1" style="shape-rendering:geometricPrecision; text-rendering:geometricPrecision; image-rendering:optimizeQuality; fill-rule:evenodd; clip-rule:evenodd"
viewBox="0 0 20153 7066"
 xmlns:xlink="http://www.w3.org/1999/xlink">
 <defs>
  <style type="text/css">
   <![CDATA[
    .fil1 {fill:#DC5E65}
    .fil0 {fill:#AC713A;fill-rule:nonzero}
   ]]>
  </style>
 </defs>
 <g id="Layer_x0020_1">
  <metadata id="CorelCorpID_0Corel-Layer"/>
  <path id="tanggal" class="fil0" d="M634 1076c0,9 -3,16 -8,22 -6,5 -12,8 -19,9 -1,0 -2,0 -2,0 0,0 -1,0 -2,0 0,0 0,0 0,0 -1,0 -1,0 -1,0 0,0 0,0 -1,0 0,0 0,0 0,0 -9,0 -17,-3 -24,-9 -8,-5 -11,-14 -11,-26 0,-19 -4,-36 -12,-50 -8,-15 -18,-28 -31,-39 -15,-12 -32,-22 -52,-30 -20,-8 -41,-14 -63,-17 -9,-2 -18,-3 -27,-4 -9,-1 -18,-1 -26,-1 -7,0 -13,0 -20,1 -6,0 -12,1 -18,2 -8,0 -17,2 -27,4 -9,2 -19,5 -29,8 -28,9 -54,23 -78,42 -24,20 -36,44 -36,74 0,26 10,48 29,66 19,19 40,32 64,42 44,17 88,34 133,51 44,17 89,34 133,51 56,21 101,53 132,96 32,43 47,90 46,139 0,33 -8,66 -25,98 -16,33 -42,62 -78,89 -32,23 -69,41 -111,54 -42,13 -87,20 -134,20 -12,0 -24,-1 -36,-2 -12,0 -24,-2 -35,-3 -67,-8 -128,-29 -183,-65 -55,-35 -82,-90 -82,-165 0,-17 5,-30 16,-39 10,-9 21,-14 34,-15 1,0 1,0 2,0 0,0 1,0 2,0 1,0 1,0 2,0 0,0 1,0 1,0 13,1 24,6 35,15 10,8 15,21 15,39 0,55 21,95 63,120 43,25 89,37 141,37 2,0 3,0 5,0 2,0 3,0 5,0 30,-1 59,-6 87,-15 28,-9 52,-21 72,-36 11,-9 21,-18 30,-27 8,-9 15,-17 20,-27 5,-9 9,-18 11,-27 2,-9 4,-18 4,-26 0,-27 -11,-52 -31,-74 -21,-22 -48,-41 -82,-55 -22,-9 -45,-18 -67,-27 -23,-10 -45,-19 -68,-28 -22,-9 -45,-18 -67,-27 -22,-10 -44,-19 -66,-28 -46,-19 -81,-46 -105,-81 -24,-35 -37,-72 -37,-110 0,-3 1,-7 1,-11 1,-3 1,-7 1,-11 3,-28 13,-55 30,-82 16,-26 40,-50 70,-69 33,-22 70,-39 111,-50 42,-11 84,-17 127,-17 49,0 97,8 143,23 46,16 86,39 119,71 3,2 5,4 7,7 1,4 3,8 3,12 0,1 0,1 0,2 0,1 0,2 0,3l0 96zm2167 3104c-63,177 -171,321 -325,433 -154,112 -323,168 -506,168 -22,0 -45,-2 -68,-4 -22,-2 -44,-4 -64,-7 -23,-4 -45,-9 -68,-15 -23,-5 -45,-13 -68,-22 -172,-61 -305,-168 -398,-320 -94,-153 -141,-317 -141,-491 0,-54 5,-108 15,-163 10,-54 24,-106 42,-156 66,-176 175,-321 328,-434 153,-113 320,-170 504,-170 22,0 45,2 68,4 22,2 45,4 67,7 21,4 42,9 65,15 22,6 45,13 68,22 174,63 307,172 398,326 92,153 138,317 138,492 0,18 -1,35 -2,52 -1,17 -3,35 -5,53 -2,36 -7,72 -15,107 -8,35 -19,69 -33,103zm-312 -288c0,-32 -2,-66 -6,-102 -5,-36 -12,-72 -21,-109 -27,-115 -78,-220 -152,-315 -75,-95 -175,-143 -299,-143 -124,0 -224,48 -299,143 -74,95 -126,200 -156,315 -9,37 -15,73 -20,109 -5,36 -7,70 -7,102 0,31 2,65 7,101 5,37 11,73 20,109 30,115 82,221 156,316 75,95 175,142 299,142 124,0 224,-47 299,-142 74,-95 125,-201 152,-316 9,-36 16,-72 21,-109 4,-36 6,-70 6,-101zm2158 268c2,185 -67,332 -208,441 -142,108 -298,176 -470,203 -25,3 -50,5 -75,7 -25,2 -50,4 -75,4 -13,0 -27,0 -40,0 -14,0 -28,-2 -41,-4 -2,0 -4,0 -5,0 -1,0 -3,0 -5,0 -177,-18 -338,-84 -485,-198 -147,-115 -221,-269 -221,-463 0,-177 55,-314 165,-413 109,-98 231,-185 364,-259 16,-9 32,-18 48,-27 16,-9 31,-18 47,-27 -104,-93 -197,-192 -280,-296 -82,-104 -123,-232 -123,-383 0,-170 68,-296 205,-380 137,-84 288,-127 453,-129 2,0 4,0 5,0 1,0 3,0 5,0 167,2 321,45 460,129 139,84 208,208 208,373 0,143 -48,266 -146,370 -97,104 -205,195 -325,271 2,3 4,4 5,5 1,2 3,2 5,2 131,95 252,204 361,326 110,122 166,271 168,448zm-536 -316c-52,-47 -104,-95 -158,-142 -53,-48 -105,-95 -157,-143 -16,9 -32,18 -48,27 -16,9 -30,17 -44,24 -16,9 -32,18 -48,27 -15,9 -31,18 -47,27 -77,48 -135,113 -173,195 -38,83 -58,170 -58,260 0,41 4,80 10,119 7,38 19,76 34,112 32,79 81,146 148,200 67,54 149,80 246,78 127,-2 230,-51 310,-146 81,-95 122,-199 124,-312 0,-2 0,-4 0,-5 0,-1 0,-3 0,-5 0,-59 -11,-116 -34,-170 -22,-54 -57,-103 -105,-146zm109 -1048c0,-111 -34,-193 -100,-246 -67,-53 -141,-83 -223,-90 -4,0 -9,0 -13,0 -5,0 -9,0 -14,0 -9,0 -18,0 -27,0 -9,0 -18,1 -27,3 -72,9 -136,36 -192,80 -55,44 -83,104 -83,178 0,21 4,43 10,68 7,25 16,50 27,75 30,61 69,119 119,174 50,56 102,106 156,151 16,12 31,23 44,34 14,12 28,23 41,34 79,-56 146,-121 200,-195 55,-73 82,-162 82,-266zm-2920 2790c0,10 -3,17 -9,23 -6,5 -12,8 -19,9 -1,0 -1,0 -2,0 0,0 -1,0 -2,0 0,0 0,0 0,0 -1,0 -1,0 -1,0 0,0 0,0 -1,0 0,0 0,0 0,0 -9,0 -17,-3 -25,-9 -7,-6 -11,-15 -11,-26 0,-20 -4,-37 -12,-52 -8,-15 -19,-28 -31,-39 -16,-12 -33,-23 -54,-31 -20,-8 -41,-14 -63,-17 -10,-2 -19,-3 -28,-4 -10,-1 -19,-1 -27,-1 -7,0 -13,0 -20,0 -6,1 -12,2 -18,2 -9,1 -18,3 -28,5 -9,2 -19,5 -29,8 -29,9 -56,24 -80,43 -24,20 -36,45 -36,75 0,27 10,49 29,68 20,19 41,33 65,42 45,18 90,35 135,53 46,17 91,34 136,51 58,21 103,54 135,98 32,44 48,91 47,141 0,34 -9,68 -26,101 -17,33 -43,63 -80,90 -32,24 -69,42 -112,56 -43,13 -89,19 -137,19 -12,0 -24,0 -36,-1 -13,-1 -25,-2 -37,-4 -67,-7 -129,-29 -185,-65 -56,-36 -84,-93 -84,-169 0,-17 5,-30 16,-39 10,-10 22,-15 35,-16 0,0 1,0 1,0 1,0 2,0 2,0 1,0 2,0 2,0 1,0 1,0 2,0 13,1 25,6 35,15 11,9 16,22 16,40 0,56 22,97 64,122 43,26 91,38 143,38 2,0 4,0 6,0 1,0 3,0 5,0 30,0 60,-6 88,-15 28,-9 53,-22 73,-37 12,-9 22,-18 31,-27 8,-9 15,-18 20,-28 6,-9 10,-18 12,-27 2,-10 3,-19 3,-27 0,-27 -10,-52 -31,-75 -21,-23 -48,-42 -83,-56 -23,-10 -46,-19 -69,-28 -23,-10 -46,-19 -69,-28 -22,-10 -45,-19 -68,-28 -22,-10 -45,-19 -68,-28 -46,-20 -82,-47 -107,-83 -24,-36 -36,-73 -36,-112 0,-3 0,-7 0,-11 1,-3 1,-8 1,-12 3,-28 13,-55 30,-82 17,-28 41,-51 72,-72 34,-22 72,-38 114,-50 41,-11 85,-17 129,-17 50,0 98,8 145,23 47,16 88,40 122,72 2,2 4,5 6,8 2,3 3,7 4,11 0,1 0,2 0,3 0,1 0,2 0,2l0 98zm1000 448l-51 199c0,1 0,1 -1,2 0,0 0,1 0,2 -2,3 -5,7 -9,10 -4,4 -9,7 -13,10 -2,1 -4,1 -6,2 -2,0 -4,0 -5,0l-757 0c-13,0 -23,-3 -29,-11 -6,-8 -9,-16 -9,-24 0,-10 3,-18 9,-24 6,-7 16,-11 29,-11l93 0 0 -726 -93 0c-13,0 -23,-4 -29,-11 -6,-8 -9,-16 -9,-25 0,0 0,-1 0,-2 0,0 0,-1 0,-1 0,-8 4,-15 10,-21 7,-7 16,-10 28,-10l725 0c2,0 3,0 4,1 2,0 3,0 5,0 5,3 10,6 15,10 5,4 9,8 10,12 0,1 0,1 1,2 0,0 1,1 1,2l38 156c1,2 1,4 1,5 0,2 0,4 0,5 0,9 -2,16 -6,22 -5,6 -10,10 -17,13 -1,0 -2,0 -3,0 -1,1 -2,1 -3,1 -1,1 -2,1 -3,1 -2,0 -3,0 -4,0 0,0 -2,0 -3,0 -1,0 -2,0 -3,-1 -5,-1 -10,-3 -14,-6 -4,-3 -8,-7 -11,-13 -5,-7 -10,-14 -15,-22 -6,-7 -12,-15 -19,-24 -16,-19 -35,-38 -57,-55 -22,-18 -44,-29 -67,-35 -4,-2 -9,-3 -14,-3 -4,-1 -9,-1 -13,-1l-304 0 0 291 304 0c4,0 9,0 14,-2 5,-2 10,-4 15,-7 10,-5 19,-11 27,-20 9,-8 16,-17 22,-27 2,-5 5,-10 7,-15 2,-5 3,-10 3,-14 0,-14 4,-25 11,-32 8,-6 16,-10 24,-10 10,0 18,4 25,11 8,7 11,18 11,32l0 271c0,14 -3,24 -11,32 -7,7 -15,11 -25,12 -8,0 -16,-4 -24,-11 -7,-7 -11,-18 -11,-33 0,-6 -2,-13 -5,-23 -4,-9 -8,-19 -13,-29 -8,-14 -17,-28 -28,-40 -11,-13 -22,-21 -34,-23 -2,-1 -3,-2 -5,-2 -1,0 -2,0 -3,0l-304 0 0 365 251 0c69,-1 128,-14 176,-38 49,-24 83,-70 102,-136 4,-9 9,-16 15,-20 6,-4 13,-7 20,-7 1,0 3,0 5,0 2,0 4,1 5,2 7,1 13,5 18,11 6,6 8,14 7,23 0,1 0,2 0,5 0,2 0,4 -1,5zm827 -367c0,89 -33,157 -99,203 -65,46 -142,69 -228,69l-193 0 0 250 91 0c13,0 23,4 29,11 7,8 11,16 11,25 0,1 0,2 0,2 0,0 0,1 0,2 -1,8 -5,15 -12,21 -7,6 -16,9 -28,9l-326 0c-11,0 -21,-3 -27,-9 -6,-6 -10,-13 -11,-21 0,-1 0,-2 0,-2 0,0 0,-1 0,-2 0,-9 3,-17 10,-25 6,-7 16,-11 28,-11l83 0 0 -726 -88 0c-13,0 -23,-4 -29,-11 -6,-8 -9,-16 -9,-25 0,-9 3,-17 9,-24 6,-7 16,-10 29,-10l364 0c6,0 12,0 19,0 6,0 12,0 18,0 90,3 172,23 247,59 75,36 112,108 112,215zm-162 0c0,-58 -22,-105 -67,-142 -45,-36 -95,-56 -149,-61 -3,-1 -7,-1 -10,-1 -3,0 -7,0 -10,0l-122 0 0 406 122 0c66,0 122,-16 168,-49 45,-33 68,-84 68,-153zm1017 557c0,8 -3,16 -10,24 -6,8 -15,11 -27,11l-426 0c-13,0 -22,-3 -29,-11 -6,-8 -9,-16 -9,-24 0,-10 3,-18 9,-25 7,-7 16,-11 29,-11l147 0 0 -430c-20,4 -40,6 -61,8 -20,3 -40,4 -61,4 -8,0 -17,-1 -25,-1 -9,0 -17,-1 -26,-2 -12,-1 -20,-5 -26,-13 -5,-7 -8,-15 -8,-24 0,-1 0,-1 0,-2 0,0 0,-1 0,-2 1,-7 4,-14 10,-21 6,-6 15,-9 26,-9 1,0 2,0 3,0 0,0 1,0 2,0 7,1 15,1 23,1 7,0 15,0 24,0 17,0 34,-1 52,-2 18,-1 36,-3 53,-7 18,-3 36,-7 54,-11 18,-4 35,-10 53,-16 2,0 4,-1 6,-1 2,0 4,0 6,0 9,0 17,4 25,10 7,7 10,16 10,26l0 492 139 0c12,0 21,4 27,11 7,7 10,15 10,25zm667 -172c0,70 -26,125 -79,165 -53,41 -111,67 -176,77 -9,1 -19,1 -28,2 -9,1 -19,2 -28,2 -5,0 -10,0 -15,0 -5,0 -10,-1 -15,-2 -1,0 -2,0 -2,0 -1,0 -1,0 -2,0 -66,-6 -127,-31 -182,-74 -55,-43 -83,-101 -83,-174 0,-66 21,-117 62,-154 41,-37 87,-70 137,-98 6,-3 12,-6 17,-10 6,-3 12,-7 18,-10 -39,-35 -74,-72 -105,-111 -31,-39 -46,-87 -46,-143 0,-64 26,-112 77,-143 51,-31 108,-47 170,-48 1,0 1,0 2,0 0,0 1,0 2,0 62,1 120,17 172,48 52,31 78,78 78,140 0,53 -18,100 -55,139 -36,39 -77,73 -122,101 1,1 2,2 2,2 1,1 1,1 2,1 49,36 94,76 136,122 41,46 62,102 63,168zm-201 -118c-20,-18 -40,-36 -60,-54 -20,-18 -39,-35 -59,-53 -6,3 -12,7 -18,10 -6,3 -11,6 -16,9 -6,3 -12,7 -18,10 -6,4 -12,7 -18,10 -29,18 -50,43 -65,73 -14,31 -21,64 -21,98 0,15 1,30 4,44 2,15 6,29 12,42 12,30 31,55 56,75 25,21 55,30 92,30 47,-1 86,-19 116,-55 30,-36 46,-75 47,-117 0,-1 0,-2 0,-2 0,0 0,-1 0,-2 0,-22 -5,-43 -13,-64 -8,-20 -22,-38 -39,-54zm40 -393c0,-42 -12,-73 -37,-93 -25,-20 -53,-31 -84,-33 -1,0 -3,0 -5,0 -1,0 -3,0 -5,0 -3,0 -7,0 -10,0 -3,0 -7,0 -10,1 -27,3 -51,13 -72,30 -21,16 -31,39 -31,67 0,7 1,16 4,25 2,9 6,19 10,28 11,23 26,45 44,66 19,20 39,39 59,56 6,4 11,9 16,13 6,4 11,8 16,13 29,-22 54,-46 75,-73 20,-28 30,-61 30,-100zm-2740 -3838c0,1 0,1 0,2 0,0 0,1 0,2 0,7 -4,14 -10,20 -6,6 -15,10 -27,10l-337 0c-12,0 -21,-4 -27,-10 -6,-6 -10,-13 -11,-20 0,-1 0,-2 0,-2 0,-1 0,-1 0,-2 0,-9 3,-18 10,-25 6,-7 15,-10 28,-10l82 0 -96 -247 -285 0 -97 247 147 0c13,0 22,3 28,10 7,7 10,16 10,25 0,1 0,1 0,2 0,0 0,1 0,2 -1,7 -5,14 -11,20 -6,6 -15,10 -27,10l-338 0c-12,0 -21,-4 -27,-10 -6,-6 -10,-13 -11,-20 0,-1 0,-2 0,-2 0,-1 0,-1 0,-2 0,-9 3,-18 10,-25 6,-7 15,-10 28,-10l115 0 302 -761c0,-1 0,-1 1,-2 0,0 0,0 0,0 2,-4 5,-7 8,-10 4,-2 8,-5 12,-6 2,-1 4,-2 6,-2 2,-1 4,-1 5,-1l68 0c1,0 3,0 5,1 1,0 4,1 6,2 5,1 10,4 14,8 4,3 7,7 9,12l295 759 78 0c12,0 22,3 28,10 6,7 9,16 9,25zm-414 -351l-115 -294 -116 294 231 0zm1290 128c0,60 -25,113 -75,158 -50,45 -105,75 -165,90 -12,2 -25,4 -37,6 -13,2 -25,3 -37,3 -82,0 -165,0 -247,0 -82,0 -165,0 -247,0 -12,0 -21,-4 -27,-10 -6,-6 -10,-13 -11,-20 0,-1 0,-2 0,-2 0,-1 0,-1 0,-2 0,-9 3,-18 10,-25 6,-7 15,-10 28,-10l101 0 0 -713 -81 0c-13,0 -22,-4 -28,-12 -7,-7 -10,-15 -10,-23 0,-9 3,-17 10,-24 6,-7 15,-10 28,-10 81,0 163,0 244,0 81,0 162,0 243,0 11,0 22,1 34,3 11,1 23,4 36,7 45,13 86,37 125,71 38,35 57,75 57,122 0,37 -12,70 -37,99 -25,29 -54,52 -85,69 44,21 83,50 118,89 35,39 53,83 53,134zm-160 -1c0,-51 -20,-96 -61,-133 -40,-38 -86,-57 -139,-57 -33,0 -66,0 -99,0 -33,0 -66,0 -99,0l0 379c27,0 55,0 82,0 27,0 55,0 82,0 67,0 123,-14 167,-41 45,-28 67,-77 67,-148zm-40 -390c0,-40 -15,-71 -44,-92 -30,-20 -63,-34 -98,-39 -8,-1 -15,-2 -23,-3 -7,0 -14,0 -21,0l-172 0 0 268c29,0 58,0 87,0 29,0 58,0 87,0 53,0 97,-9 132,-27 35,-18 52,-54 52,-107zm1250 -250l-110 169c-2,5 -5,8 -9,10 -4,3 -7,5 -11,5 -1,1 -3,2 -5,2 -1,0 -3,0 -5,0 -3,0 -6,-1 -10,-2 -3,0 -6,-2 -10,-3 -5,-4 -9,-8 -12,-13 -3,-5 -4,-10 -4,-16 0,-3 1,-7 2,-10 1,-3 3,-7 4,-10l11 -16 -259 0 0 714 105 0c12,0 21,3 28,10 6,7 9,15 9,24 0,8 -3,16 -9,23 -7,7 -16,11 -28,11l-360 0c-13,0 -22,-4 -28,-11 -5,-7 -8,-15 -8,-23 0,-9 3,-17 8,-24 6,-7 15,-10 28,-10l106 0 0 -714 -172 0c-6,0 -12,0 -18,1 -7,1 -13,2 -18,4 -27,6 -52,18 -77,36 -24,17 -44,36 -60,56 -1,2 -3,4 -5,6 -1,2 -3,4 -5,7 -2,5 -5,8 -9,11 -4,2 -8,4 -12,5 -1,0 -2,0 -3,0 -1,0 -3,0 -4,0 -4,0 -7,-1 -10,-1 -4,-1 -7,-2 -10,-4 -5,-3 -9,-8 -12,-13 -3,-5 -4,-10 -4,-16 0,-3 0,-6 1,-9 2,-3 3,-6 5,-10l138 -212c3,-5 6,-9 10,-11 3,-3 7,-4 12,-5 0,-1 2,-1 3,-1 2,0 3,0 4,0 4,0 8,0 11,1 3,1 6,2 9,4 5,3 9,7 13,12 3,4 4,10 3,16 0,2 0,4 0,5 0,2 0,4 -1,5 -1,2 -1,4 -2,5 0,2 -1,4 -3,5l-22 34 66 0 533 0c1,0 2,0 3,0 1,0 3,0 5,0 27,-2 53,-11 79,-27 25,-16 45,-35 59,-57 4,-5 9,-10 15,-12 5,-3 11,-4 16,-4 1,0 2,0 3,0 2,0 3,0 4,0 2,1 4,2 6,2 3,0 4,1 6,3 5,3 9,7 12,12 3,5 4,10 4,16 0,1 0,3 0,5 -1,1 -1,3 -1,5 -1,1 -2,3 -2,5 -1,1 -2,3 -3,5zm975 81c0,8 -3,16 -8,23 -6,8 -15,12 -28,12l-126 0 -1 512c0,86 -33,158 -99,215 -67,57 -143,86 -230,86 -87,0 -164,-30 -230,-88 -66,-59 -99,-131 -99,-217l0 -508 -95 0c-13,0 -22,-4 -28,-12 -7,-7 -10,-15 -10,-23 0,-9 3,-17 10,-24 6,-7 15,-10 28,-10l347 0c12,0 21,3 27,10 6,7 9,15 9,24 0,8 -3,16 -9,23 -6,8 -15,12 -27,12l-104 0 0 508c0,61 21,113 62,156 41,43 94,65 158,65 63,0 115,-22 157,-65 42,-43 63,-95 63,-156l0 -508 -112 0c-12,0 -21,-4 -27,-12 -7,-7 -10,-15 -10,-23 0,-9 3,-17 10,-24 6,-7 15,-10 27,-10l309 0c13,0 22,3 28,10 5,7 8,15 8,24z"/>
  <path id="waktu" class="fil0" d="M17130 3308c0,4 -1,7 -4,11 -3,3 -7,5 -13,5l-77 0c-5,0 -10,-2 -12,-5 -3,-4 -5,-7 -5,-11 0,-4 2,-8 5,-11 2,-3 7,-5 12,-5l77 0c6,0 10,2 13,5 3,3 4,7 4,11zm-842 -2388c0,8 -3,16 -9,23 -6,8 -16,12 -29,12l-117 0 -369 762c0,0 -1,1 -1,2 -1,1 -2,2 -3,3 -2,2 -4,4 -7,6 -3,1 -5,3 -8,5 -2,1 -5,1 -7,2 -2,1 -4,2 -5,2l-62 0c-1,0 -3,-1 -6,-2 -2,-1 -5,-1 -7,-2 -3,-2 -6,-4 -8,-6 -3,-2 -6,-4 -7,-5 -1,-1 -2,-2 -2,-3 -1,-1 -1,-2 -2,-2l-156 -329 -159 329c-1,0 -1,1 -2,2 0,1 -1,2 -2,3 -1,1 -3,3 -6,5 -3,2 -6,4 -9,6 -2,1 -5,1 -7,2 -3,1 -5,2 -6,2l-61 0c-2,0 -4,-1 -7,-2 -2,-1 -5,-1 -7,-2 -3,-2 -5,-4 -8,-6 -3,-2 -6,-4 -7,-5 -1,-1 -2,-2 -2,-3 0,-1 -1,-2 -2,-2l-362 -762 -96 0c-13,0 -22,-4 -28,-12 -7,-7 -10,-15 -11,-23 0,-9 3,-17 10,-24 7,-7 16,-10 29,-10l366 0c12,0 22,3 28,10 6,7 9,15 9,24 0,8 -3,16 -9,23 -6,8 -16,12 -28,12l-90 0 297 624 131 -272 -167 -352 -66 0c-14,0 -24,-4 -30,-12 -6,-7 -9,-15 -9,-23 0,-9 3,-17 9,-24 6,-7 16,-10 30,-10l253 0c13,0 22,3 28,10 6,7 10,15 10,24 0,8 -4,16 -10,23 -6,8 -15,12 -28,12l-7 0 78 165 80 -165 -40 0c-12,0 -22,-4 -28,-12 -6,-7 -9,-15 -9,-23 0,-9 3,-17 9,-24 6,-7 16,-10 28,-10l235 0c12,0 22,3 28,10 6,7 9,15 9,24 0,8 -3,16 -9,23 -6,8 -16,12 -28,12l-117 0 -119 246 180 378 302 -624 -131 0c-13,0 -22,-4 -29,-12 -7,-7 -10,-15 -10,-23 0,-9 3,-17 10,-24 7,-7 16,-10 29,-10l325 0c13,0 23,3 29,10 6,7 9,15 9,24zm801 783c0,1 0,1 0,2 0,0 0,1 0,2 -1,7 -5,14 -11,20 -6,6 -15,10 -27,10l-337 0c-12,0 -20,-4 -27,-10 -6,-6 -10,-13 -10,-20 0,-1 0,-2 0,-2 0,-1 0,-1 0,-2 0,-9 3,-18 9,-25 6,-7 16,-10 28,-10l83 0 -97 -247 -284 0 -98 247 148 0c12,0 21,3 28,10 6,7 9,16 9,25 0,1 0,1 0,2 0,0 0,1 0,2 -1,7 -4,14 -11,20 -6,6 -15,10 -26,10l-339 0c-11,0 -20,-4 -27,-10 -6,-6 -9,-13 -10,-20 0,-1 0,-2 0,-2 0,-1 0,-1 0,-2 0,-9 3,-18 9,-25 6,-7 16,-10 28,-10l115 0 302 -761c0,-1 0,-1 1,-2 0,0 1,0 1,0 1,-4 4,-7 8,-10 3,-2 7,-5 11,-6 2,-1 4,-2 6,-2 2,-1 4,-1 6,-1l67 0c2,0 3,0 5,1 2,0 4,1 6,2 5,1 10,4 14,8 4,3 7,7 9,12l296 759 77 0c13,0 22,3 28,10 7,7 10,16 10,25zm-415 -351l-115 -294 -116 294 231 0zm1504 351c0,1 0,1 0,2 0,0 0,1 0,2 -1,7 -5,14 -11,20 -6,6 -15,10 -27,10l-426 0c-11,0 -20,-4 -26,-10 -7,-6 -10,-13 -11,-20 0,-1 0,-2 0,-2 0,-1 0,-1 0,-2 0,-9 3,-18 9,-25 7,-7 16,-10 28,-10l110 0 -327 -324 -95 74 0 250 106 0c13,0 22,3 28,10 7,7 10,16 10,25 0,1 0,1 0,2 0,0 0,1 0,2 -1,7 -5,14 -11,20 -6,6 -15,10 -27,10l-356 0c-11,0 -20,-4 -26,-10 -7,-6 -10,-13 -11,-20 0,-1 0,-2 0,-2 0,-1 0,-1 0,-2 0,-9 3,-18 9,-25 7,-7 16,-10 28,-10l102 0 0 -713 -102 0c-12,0 -21,-4 -28,-12 -6,-7 -9,-15 -9,-23 0,-9 3,-17 9,-24 7,-7 16,-10 28,-10l356 0c13,0 22,3 28,10 7,7 10,15 10,24 0,8 -3,16 -10,23 -6,8 -15,12 -28,12l-106 0 0 376 479 -376 -150 0c-12,0 -21,-4 -27,-12 -6,-7 -10,-15 -10,-23 0,-9 4,-17 10,-24 6,-7 15,-10 27,-10l382 0c12,0 22,3 28,10 6,7 9,15 9,24 0,8 -3,16 -9,23 -6,8 -16,12 -28,12l-121 0 -382 299c0,0 21,22 64,65 43,43 90,90 142,143 50,51 97,97 139,140 43,43 65,65 65,66l120 0c13,0 22,3 28,10 7,7 10,16 10,25zm1000 -864l-110 169c-2,5 -5,8 -9,10 -4,3 -7,5 -11,5 -1,1 -3,2 -5,2 -1,0 -3,0 -5,0 -3,0 -6,-1 -10,-2 -3,0 -6,-2 -10,-3 -5,-4 -9,-8 -12,-13 -3,-5 -4,-10 -4,-16 0,-3 1,-7 2,-10 1,-3 3,-7 4,-10l11 -16 -259 0 0 714 105 0c12,0 21,3 28,10 6,7 9,15 9,24 0,8 -3,16 -9,23 -7,7 -16,11 -28,11l-360 0c-13,0 -22,-4 -28,-11 -5,-7 -8,-15 -8,-23 0,-9 3,-17 8,-24 6,-7 15,-10 28,-10l106 0 0 -714 -172 0c-6,0 -12,0 -18,1 -7,1 -13,2 -18,4 -27,6 -53,18 -77,36 -24,17 -44,36 -60,56 -1,2 -3,4 -5,6 -1,2 -3,4 -5,7 -2,5 -5,8 -9,11 -4,2 -8,4 -12,5 -1,0 -2,0 -3,0 -1,0 -3,0 -4,0 -4,0 -7,-1 -10,-1 -4,-1 -7,-2 -10,-4 -5,-3 -9,-8 -12,-13 -3,-5 -5,-10 -5,-16 0,-3 1,-6 2,-9 2,-3 3,-6 5,-10l138 -212c3,-5 6,-9 10,-11 3,-3 7,-4 12,-5 0,-1 2,-1 3,-1 2,0 3,0 4,0 4,0 8,0 11,1 3,1 6,2 9,4 5,3 9,7 13,12 3,4 4,10 3,16 0,2 0,4 0,5 0,2 0,4 -1,5 -1,2 -1,4 -2,5 0,2 -1,4 -3,5l-22 34 66 0 533 0c1,0 2,0 3,0 1,0 3,0 4,0 28,-2 54,-11 80,-27 25,-16 45,-35 59,-57 4,-5 9,-10 14,-12 6,-3 12,-4 17,-4 1,0 2,0 3,0 2,0 3,0 4,0 2,1 4,2 6,2 3,0 4,1 6,3 5,3 9,7 12,12 3,5 4,10 4,16 0,1 0,3 0,5 -1,1 -1,3 -1,5 -1,1 -2,3 -2,5 -1,1 -2,3 -3,5zm975 81c0,8 -3,16 -8,23 -6,8 -15,12 -28,12l-126 0 -1 512c0,86 -33,158 -100,215 -66,57 -142,86 -229,86 -87,0 -164,-30 -230,-88 -66,-59 -99,-131 -99,-217l0 -508 -95 0c-13,0 -22,-4 -28,-12 -7,-7 -10,-15 -10,-23 0,-9 3,-17 10,-24 6,-7 15,-10 28,-10l347 0c12,0 21,3 27,10 6,7 9,15 9,24 0,8 -3,16 -9,23 -6,8 -15,12 -27,12l-104 0 0 508c0,61 21,113 62,156 41,43 94,65 158,65 63,0 115,-22 157,-65 42,-43 63,-95 63,-156l0 -508 -113 0c-11,0 -20,-4 -26,-12 -7,-7 -10,-15 -10,-23 0,-9 3,-17 10,-24 6,-7 15,-10 26,-10l310 0c13,0 22,3 28,10 5,7 8,15 8,24zm-2315 2426c-16,47 -46,86 -87,116 -41,30 -86,45 -135,45 -6,0 -12,0 -18,-1 -6,-1 -12,-1 -17,-2 -6,-1 -13,-2 -19,-4 -6,-1 -12,-3 -18,-6 -46,-16 -81,-45 -106,-86 -26,-41 -38,-84 -38,-131 0,-14 1,-29 4,-43 3,-15 6,-29 11,-42 18,-48 47,-86 88,-117 41,-30 86,-45 135,-45 6,0 12,0 18,1 6,1 12,1 18,2 6,1 11,2 17,4 6,1 12,3 19,6 46,17 82,46 106,87 25,41 37,85 37,132 0,4 0,9 0,14 -1,4 -1,9 -2,14 0,10 -2,19 -4,28 -2,10 -5,19 -9,28zm-83 -77c0,-9 -1,-18 -2,-27 -1,-10 -3,-20 -5,-29 -8,-31 -21,-59 -41,-85 -20,-25 -47,-38 -80,-38 -33,0 -60,13 -80,38 -20,26 -34,54 -42,85 -2,9 -4,19 -5,29 -1,9 -2,18 -2,27 0,8 1,17 2,27 1,10 3,20 5,29 8,31 22,59 42,85 20,25 47,38 80,38 33,0 60,-13 80,-38 20,-26 33,-54 41,-85 2,-9 4,-19 5,-29 1,-10 2,-19 2,-27zm578 72c0,49 -18,89 -56,118 -38,29 -80,47 -126,54 -7,1 -13,1 -20,2 -7,1 -13,1 -20,1 -4,0 -7,0 -11,0 -4,0 -7,0 -11,-1 0,0 -1,0 -1,0 -1,0 -1,0 -2,0 -47,-5 -90,-22 -129,-53 -40,-31 -59,-72 -59,-124 0,-47 14,-84 44,-110 29,-27 61,-50 97,-70 4,-2 9,-5 13,-7 4,-3 8,-5 13,-7 -28,-25 -53,-52 -75,-79 -22,-28 -33,-62 -33,-103 0,-45 18,-79 55,-102 36,-22 77,-34 121,-34 0,0 1,0 1,0 0,0 1,0 1,0 45,0 86,12 124,34 37,23 55,56 55,100 0,38 -13,71 -39,99 -26,28 -55,52 -87,73 1,0 1,1 1,1 1,0 1,1 2,1 35,25 67,54 97,87 29,32 44,72 45,120zm-144 -85c-14,-13 -28,-25 -42,-38 -14,-13 -28,-25 -42,-38 -5,2 -9,5 -13,7 -4,3 -8,5 -12,7 -4,2 -8,4 -13,7 -4,2 -8,5 -12,7 -21,13 -36,30 -47,52 -10,22 -15,46 -15,70 0,11 1,21 3,32 1,10 4,20 9,30 8,21 21,39 39,53 18,15 40,22 66,21 34,-1 62,-14 83,-39 22,-25 33,-53 33,-84 0,0 0,-1 0,-1 0,0 0,-1 0,-1 0,-16 -3,-31 -9,-46 -6,-14 -15,-27 -28,-39zm29 -280c0,-30 -9,-52 -27,-66 -18,-14 -37,-23 -59,-24 -1,0 -3,0 -4,0 -1,0 -2,0 -3,0 -3,0 -5,0 -8,0 -2,0 -5,0 -7,1 -19,2 -36,9 -51,21 -15,12 -23,28 -23,48 0,5 1,11 3,18 2,6 4,13 7,20 8,16 19,32 32,47 14,14 28,28 42,40 4,3 8,6 12,9 3,3 7,6 11,9 21,-15 39,-32 53,-52 15,-20 22,-44 22,-71zm234 479c0,12 -4,21 -12,30 -8,8 -18,12 -30,12 -12,0 -22,-4 -30,-12 -9,-9 -13,-18 -13,-30 0,-12 4,-22 13,-30 8,-9 18,-13 30,-13 12,0 22,4 30,13 8,8 12,18 12,30zm0 -182c0,12 -4,22 -12,30 -8,9 -18,13 -30,13 -12,0 -22,-4 -30,-13 -9,-8 -13,-18 -13,-30 0,-12 4,-22 13,-30 8,-8 18,-12 30,-12 12,0 22,4 30,12 8,8 12,18 12,30zm303 127c-11,29 -29,53 -55,72 -25,19 -54,28 -84,28 -4,0 -8,0 -12,-1 -3,0 -7,0 -10,-1 -4,0 -8,-1 -12,-2 -4,-1 -7,-2 -11,-4 -29,-10 -51,-28 -67,-54 -16,-25 -23,-52 -23,-82 0,-9 0,-18 2,-27 2,-9 4,-18 7,-26 11,-29 29,-54 55,-73 26,-19 54,-28 84,-28 4,0 8,0 12,1 3,0 7,0 11,1 3,1 7,1 11,2 4,1 7,2 11,4 29,11 52,29 67,54 15,26 23,54 23,83 0,3 0,6 0,9 -1,2 -1,5 -1,8 -1,6 -2,12 -3,18 -1,6 -3,12 -5,18zm-52 -49c0,-5 -1,-11 -2,-17 0,-6 -1,-12 -3,-18 -5,-19 -13,-37 -26,-53 -12,-16 -29,-24 -50,-24 -20,0 -37,8 -49,24 -13,16 -22,34 -27,53 -1,6 -2,12 -3,18 -1,6 -1,12 -1,17 0,6 0,11 1,17 1,6 2,12 3,19 5,19 14,36 27,52 12,16 29,24 49,24 21,0 38,-8 50,-24 13,-16 21,-33 26,-52 2,-7 3,-13 3,-19 1,-6 2,-11 2,-17zm363 49c-11,29 -29,53 -55,72 -25,19 -54,28 -84,28 -4,0 -8,0 -12,-1 -3,0 -7,0 -10,-1 -4,0 -8,-1 -12,-2 -4,-1 -7,-2 -11,-4 -29,-10 -51,-28 -67,-54 -16,-25 -23,-52 -23,-82 0,-9 1,-18 2,-27 2,-9 4,-18 7,-26 11,-29 30,-54 55,-73 26,-19 54,-28 84,-28 4,0 8,0 12,1 4,0 7,0 11,1 3,1 7,1 11,2 4,1 7,2 11,4 29,11 52,29 67,54 15,26 23,54 23,83 0,3 0,6 0,9 -1,2 -1,5 -1,8 -1,6 -1,12 -3,18 -1,6 -3,12 -5,18zm-52 -49c0,-5 -1,-11 -2,-17 0,-6 -1,-12 -3,-18 -4,-19 -13,-37 -25,-53 -13,-16 -30,-24 -50,-24 -21,0 -38,8 -50,24 -13,16 -22,34 -27,53 -1,6 -2,12 -3,18 -1,6 -1,12 -1,17 0,6 0,11 1,17 1,6 2,12 3,19 5,19 14,36 27,52 12,16 29,24 50,24 20,0 37,-8 50,-24 12,-16 21,-33 25,-52 2,-7 3,-13 3,-19 1,-6 2,-11 2,-17zm-2330 2c0,-5 -1,-11 -1,-17 -1,-6 -2,-12 -4,-18 -4,-19 -13,-37 -25,-53 -13,-16 -29,-23 -50,-23 -21,0 -38,7 -50,23 -13,16 -21,34 -26,53 -2,6 -3,12 -4,18 -1,6 -1,12 -1,17 0,6 0,11 1,17 1,6 2,13 4,19 5,19 13,36 26,52 12,16 29,24 50,24 21,0 37,-8 50,-24 12,-16 21,-33 25,-52 2,-6 3,-13 4,-19 0,-6 1,-11 1,-17zm52 49c-11,29 -29,53 -55,72 -25,19 -53,28 -84,28 -4,0 -8,0 -11,0 -4,-1 -8,-1 -11,-2 -4,0 -8,-1 -12,-2 -3,-1 -7,-2 -11,-4 -29,-10 -51,-28 -67,-54 -15,-25 -23,-52 -23,-82 0,-9 1,-18 2,-27 2,-9 4,-18 7,-26 11,-29 30,-54 55,-73 26,-18 54,-28 85,-28 3,0 7,0 11,1 4,0 7,0 11,1 4,1 7,1 11,2 4,1 8,2 11,4 30,11 52,29 67,55 15,25 23,53 23,82 0,3 0,6 0,9 0,2 -1,5 -1,8 0,6 -1,12 -3,18 -1,6 -3,12 -5,18zm-363 -49c0,-5 -1,-11 -1,-17 -1,-6 -2,-12 -4,-18 -4,-19 -13,-37 -25,-53 -13,-16 -30,-23 -50,-23 -21,0 -38,7 -50,23 -13,16 -22,34 -26,53 -2,6 -3,12 -4,18 -1,6 -1,12 -1,17 0,6 0,11 1,17 1,6 2,13 4,19 4,19 13,36 26,52 12,16 29,24 50,24 20,0 37,-8 50,-24 12,-16 21,-33 25,-52 2,-6 3,-13 4,-19 0,-6 1,-11 1,-17zm52 49c-11,29 -29,53 -55,72 -25,19 -54,28 -84,28 -4,0 -8,0 -12,0 -3,-1 -7,-1 -10,-2 -4,0 -8,-1 -12,-2 -3,-1 -7,-2 -11,-4 -29,-10 -51,-28 -67,-54 -15,-25 -23,-52 -23,-82 0,-9 1,-18 2,-27 2,-9 4,-18 7,-26 11,-29 30,-54 55,-73 26,-18 54,-28 84,-28 4,0 8,0 12,1 4,0 7,0 11,1 4,1 7,1 11,2 4,1 8,2 11,4 29,11 52,29 67,55 15,25 23,53 23,82 0,3 0,6 0,9 -1,2 -1,5 -1,8 -1,6 -1,12 -3,18 -1,6 -3,12 -5,18zm-308 -213c0,16 -6,30 -17,42 -12,12 -26,18 -43,18 -16,0 -30,-6 -42,-18 -12,-12 -18,-26 -18,-42 0,-17 6,-31 18,-42 12,-12 26,-18 42,-18 17,0 31,6 43,18 11,11 17,25 17,42zm0 255c0,16 -6,30 -17,41 -12,11 -26,17 -43,17 -16,0 -30,-6 -42,-17 -12,-11 -18,-25 -18,-41 0,-17 6,-31 18,-43 12,-11 26,-17 42,-17 17,0 31,6 43,17 11,12 17,26 17,43zm-166 11c0,9 -3,17 -9,24 -7,8 -16,12 -28,12l-426 0c-12,0 -22,-4 -28,-12 -7,-7 -10,-15 -10,-24 0,-9 3,-17 10,-25 6,-7 16,-11 28,-11l148 0 0 -430c-21,4 -41,7 -61,9 -21,2 -41,3 -61,3 -9,0 -17,0 -26,-1 -8,0 -17,-1 -25,-2 -12,0 -21,-5 -26,-12 -6,-8 -9,-16 -9,-25 0,0 0,-1 0,-1 0,-1 0,-1 0,-2 1,-8 5,-15 11,-21 6,-7 14,-10 25,-10 2,0 3,0 3,0 1,0 1,0 2,0 8,1 15,1 23,1 8,0 16,0 24,0 17,0 35,0 52,-2 18,-1 36,-3 54,-7 18,-3 35,-7 53,-11 18,-4 36,-9 54,-15 1,-1 3,-2 5,-2 3,0 4,0 6,0 9,0 18,4 25,11 7,6 11,15 11,25l0 492 138 0c12,0 21,4 28,11 6,8 9,16 9,25zm-718 -272c0,-12 -1,-25 -3,-38 -2,-14 -4,-27 -8,-41 -10,-43 -29,-83 -57,-118 -28,-36 -65,-54 -112,-54 -47,0 -84,18 -112,54 -28,35 -47,75 -58,118 -4,14 -6,27 -8,41 -2,13 -3,26 -3,38 0,12 1,24 3,38 2,14 4,27 8,41 11,43 30,82 58,118 28,36 65,53 112,53 47,0 84,-17 112,-53 28,-36 47,-75 57,-118 4,-14 6,-27 8,-41 2,-14 3,-26 3,-38zm117 108c-24,66 -65,120 -123,162 -57,42 -120,63 -189,63 -9,0 -17,0 -26,-1 -8,-1 -16,-2 -24,-3 -8,-1 -17,-3 -25,-5 -9,-2 -17,-5 -26,-9 -64,-23 -114,-63 -149,-120 -35,-57 -53,-118 -53,-184 0,-20 2,-40 6,-61 4,-20 9,-40 16,-58 24,-66 65,-121 122,-163 58,-43 121,-64 189,-64 9,0 17,1 26,2 8,0 17,1 25,2 8,2 16,4 24,6 9,2 17,5 26,8 65,24 115,65 149,122 35,58 52,119 52,185 0,6 0,13 -1,19 0,7 -1,13 -2,20 0,14 -2,27 -5,40 -3,13 -7,26 -12,39zm943 1785c0,180 -66,315 -198,407 -131,92 -283,138 -456,138l-387 0 0 501 183 0c26,0 45,7 59,21 13,15 20,31 20,50 0,2 0,3 0,4 0,1 0,2 0,4 -2,15 -9,29 -23,42 -14,12 -32,19 -56,19l-651 0c-24,0 -42,-7 -55,-19 -13,-13 -20,-27 -22,-42 0,-2 0,-3 0,-4 0,-1 0,-2 0,-4 0,-19 7,-35 19,-50 13,-14 32,-21 58,-21l165 0 0 -1453 -176 0c-27,0 -46,-8 -58,-23 -12,-15 -18,-31 -18,-48 0,-19 6,-35 18,-49 12,-13 31,-20 58,-20l728 0c12,0 24,0 37,0 13,0 25,0 37,0 180,7 344,46 494,118 149,72 224,215 224,429zm-324 0c0,-115 -45,-210 -134,-282 -90,-73 -190,-114 -298,-123 -7,-1 -14,-2 -21,-2 -6,0 -13,0 -20,0l-244 0 0 812 244 0c132,0 244,-33 336,-98 92,-66 137,-168 137,-307zm2929 1117c0,2 0,3 0,4 0,1 0,2 0,4 -2,15 -9,29 -21,42 -13,12 -31,19 -55,19l-784 0c-24,0 -42,-7 -55,-19 -12,-13 -20,-27 -21,-42 0,-2 0,-3 0,-4 0,-1 0,-2 0,-4 0,-19 6,-35 19,-50 13,-14 32,-21 57,-21l227 0 0 -1194 -591 1290c-5,9 -17,16 -35,22 -19,6 -40,9 -64,9 -2,0 -4,0 -6,0 -3,0 -6,0 -9,0 -21,0 -39,-3 -55,-8 -16,-5 -27,-12 -32,-23l-600 -1475 0 1379 244 0c25,0 45,7 57,21 13,15 19,31 19,50 0,2 0,3 0,4 0,1 0,2 0,4 -1,15 -9,29 -21,42 -13,12 -31,19 -55,19l-641 0c-24,0 -42,-7 -55,-19 -13,-13 -20,-27 -22,-42 0,-2 0,-3 0,-4 0,-1 0,-2 0,-4 0,-19 7,-35 20,-50 12,-14 31,-21 57,-21l252 0 0 -1453 -252 0c-26,0 -45,-8 -57,-23 -13,-15 -20,-31 -20,-48 0,-19 7,-35 20,-49 12,-13 31,-20 57,-20l778 0c26,0 45,7 58,20 12,14 19,30 19,49 0,17 -7,33 -19,48 -13,15 -32,23 -58,23l-91 0 501 1229 562 -1229 -201 0c-25,0 -44,-8 -57,-23 -13,-15 -19,-31 -19,-48 0,-19 6,-35 19,-49 13,-13 32,-20 57,-20l792 0c25,0 44,7 57,20 13,14 19,30 19,49 0,17 -6,33 -19,48 -13,15 -32,23 -57,23l-250 0 0 1453 255 0c25,0 44,7 57,21 13,15 19,31 19,50z"/>
  <polygon class="fil1" points="5408,7066 5408,0 5508,0 5508,7066 "/>
  <polygon class="fil1" points="13862,7066 13862,0 13962,0 13962,7066 "/>
  <path id="bitly" class="fil1" d="M6214 5449c0,147 66,218 129,335 9,17 19,32 29,49 71,129 151,260 222,389 7,12 25,38 28,49l4 0c3,-11 20,-37 27,-48l167 -292c5,-9 9,-16 14,-25 5,-9 10,-15 14,-24 10,-17 19,-32 28,-47 9,-17 17,-32 27,-49 27,-43 94,-157 108,-200 33,-101 31,-201 -12,-299 -11,-23 -21,-43 -35,-63 -7,-10 -14,-19 -22,-29 -15,-21 -54,-57 -76,-73 -57,-42 -144,-78 -223,-78 -76,0 -131,7 -197,40 -23,11 -42,23 -62,36l-28 23c-86,80 -142,179 -142,306zm384 -250c-132,14 -245,131 -228,281 14,132 132,243 282,227 131,-14 242,-133 226,-282 -14,-130 -132,-242 -280,-226zm1159 831c0,60 -20,114 -62,160 -41,47 -93,70 -155,70 -24,0 -47,-4 -70,-12 -24,-8 -44,-20 -62,-35l-23 30c-3,4 -7,7 -12,9 -5,2 -10,3 -16,3 -2,0 -4,0 -6,-1 -2,0 -4,0 -5,-1 -7,-1 -13,-4 -19,-9 -5,-5 -8,-11 -8,-18l0 -576 -23 12c-2,1 -5,2 -8,3 -2,1 -5,1 -7,1 -6,0 -11,-2 -16,-5 -4,-3 -8,-7 -10,-12 0,-2 -1,-4 -2,-7 0,-2 -1,-5 -1,-8 0,0 0,-1 0,-2 0,-1 1,-2 1,-3 1,-4 3,-8 6,-11 2,-4 6,-7 11,-10l159 -79c2,-1 5,-2 8,-3 2,0 4,-1 6,-1 6,0 11,2 16,5 4,3 7,7 10,12 1,2 2,4 2,6 1,2 1,4 1,7 0,4 -2,9 -4,14 -3,5 -8,10 -14,14 -11,7 -19,16 -26,26 -7,11 -10,23 -10,36l0 194c18,-12 38,-21 58,-28 21,-7 42,-11 64,-11 62,0 114,24 155,70 42,47 62,100 62,160zm4780 122c-22,34 -51,60 -87,79 -35,19 -73,28 -113,28 -64,0 -119,-22 -166,-66 -47,-44 -70,-98 -70,-162 0,-32 6,-62 18,-90 12,-28 29,-52 51,-73 22,-22 48,-39 77,-50 28,-12 58,-17 88,-17 16,0 32,1 48,4 15,3 31,9 45,17 15,7 29,15 41,26 12,11 23,23 32,34 2,3 3,6 4,8 1,3 1,6 1,9 0,5 -1,10 -4,15 -2,5 -6,9 -11,12l-274 149c8,21 17,40 29,56 11,16 27,30 47,42 12,7 24,11 36,15 12,3 24,4 35,4 25,0 48,-6 69,-19 21,-12 39,-30 54,-53 3,-5 6,-9 10,-11 3,-2 7,-3 11,-4 1,-1 2,-1 3,-1 1,0 2,0 2,0 1,0 2,0 3,0 1,0 2,0 3,1 2,0 4,0 5,1 2,1 4,2 5,3 4,3 8,7 10,11 3,4 4,9 4,13 0,3 -1,6 -2,9 -1,4 -2,7 -4,10zm-151 -237c-11,-10 -23,-18 -37,-24 -14,-5 -27,-7 -41,-7 -7,0 -15,0 -22,2 -8,1 -16,3 -24,7 -19,8 -34,22 -45,42 -11,20 -16,42 -15,68 0,2 0,4 0,7 0,2 0,4 0,6l184 -101zm783 305c0,7 -3,13 -9,19 -5,7 -13,10 -24,10l-216 0c-11,0 -18,-3 -24,-10 -5,-6 -8,-12 -8,-19 0,-8 3,-15 8,-21 6,-6 13,-9 24,-9l66 0 0 -211c0,-36 -10,-63 -30,-80 -21,-17 -44,-26 -70,-26 0,0 -1,0 -2,0 -1,0 -2,0 -3,0 -1,1 -2,1 -3,1 -1,0 -2,0 -3,0 -32,3 -59,15 -80,36 -21,21 -32,48 -32,81l0 199 52 0c11,0 19,3 25,9 5,6 7,13 7,21 0,7 -2,13 -7,19 -6,7 -14,10 -25,10l-195 0c-11,0 -19,-3 -24,-10 -5,-6 -8,-12 -8,-19 0,-8 3,-15 8,-21 5,-6 13,-9 24,-9l44 0 0 -281 -22 11c-3,2 -6,3 -9,3 -3,1 -5,1 -8,1 -6,0 -11,-1 -15,-4 -5,-3 -8,-7 -10,-12 -1,-2 -2,-5 -3,-7 0,-2 -1,-4 -1,-7 0,-1 0,-3 0,-4 0,-1 1,-2 1,-3 1,-4 3,-7 6,-11 3,-3 6,-6 11,-9l159 -79c2,-1 4,-2 6,-3 2,0 4,0 6,0 6,0 11,1 16,4 4,3 8,7 10,12 1,2 2,4 2,6 1,3 1,5 1,8 0,1 0,2 0,2 0,1 0,1 0,1 0,1 0,2 -1,2 0,1 0,2 0,3 13,-6 27,-10 40,-12 14,-3 28,-5 42,-5 1,0 2,0 3,0 1,0 1,0 2,0 47,0 89,14 128,43 38,29 57,72 57,131l0 210 51 0c11,0 19,3 24,9 6,6 9,13 9,21zm-5515 -197c0,-3 0,-6 0,-8 0,-3 0,-6 -1,-8 -3,-36 -17,-68 -40,-97 -23,-30 -54,-45 -93,-45 -21,0 -40,6 -57,17 -17,11 -32,24 -45,40l0 202c12,16 27,29 45,40 18,10 37,15 57,15 38,0 69,-14 92,-43 24,-28 38,-60 41,-94 1,-4 1,-7 1,-10 0,-3 0,-6 0,-9zm412 194c0,7 -3,14 -8,20 -5,6 -13,10 -23,10l-196 0c-11,0 -19,-4 -24,-10 -6,-6 -8,-13 -8,-20 0,-7 2,-14 8,-20 5,-6 13,-9 24,-9l44 0 0 -282 -23 12c-3,1 -5,2 -8,3 -2,1 -5,1 -8,1 -5,0 -10,-1 -15,-5 -4,-3 -8,-7 -10,-12 0,-2 -1,-4 -2,-6 -1,-2 -2,-5 -1,-7 0,-2 0,-3 0,-4 0,-1 0,-2 1,-4 1,-3 3,-7 5,-10 3,-4 7,-7 12,-10l159 -78c1,-2 3,-3 5,-3 2,0 4,-1 6,-1 6,0 11,2 15,5 5,2 9,6 11,11 1,1 2,2 2,3 0,2 0,3 0,4 1,1 2,2 2,3 0,1 0,2 0,4 0,5 -2,10 -4,15 -3,4 -6,8 -10,11 -11,6 -20,15 -27,26 -7,12 -11,24 -11,37l0 287 53 0c10,0 18,3 23,9 5,6 8,13 8,20zm-85 -577c0,15 -5,29 -16,40 -11,12 -25,17 -41,17 -15,0 -28,-5 -40,-17 -11,-11 -16,-25 -16,-40 0,-16 5,-29 16,-40 12,-11 25,-17 40,-17 16,0 30,6 41,17 11,11 16,24 16,40zm506 204c0,7 -2,14 -7,20 -5,6 -13,9 -23,9 -13,0 -26,0 -39,0 -13,0 -25,0 -38,0 -13,0 -25,0 -38,0 -13,0 -26,0 -39,0 0,21 0,42 0,63 0,21 0,42 0,63 0,21 0,43 0,64 0,21 0,42 0,63 0,17 6,30 17,39 11,9 23,14 36,14 1,0 1,0 1,0 1,0 1,0 2,0 14,0 27,-4 38,-14 11,-9 17,-23 17,-40 0,-10 3,-18 9,-23 6,-5 13,-8 20,-8 8,0 15,3 21,8 6,5 10,13 10,24 0,36 -13,68 -39,94 -26,26 -58,39 -95,39 -36,0 -67,-13 -93,-39 -26,-26 -39,-57 -39,-93 0,-42 0,-84 0,-127 0,-42 0,-85 0,-127l-76 0c-9,0 -17,-2 -24,-6 -7,-4 -10,-12 -10,-23 0,-7 2,-14 6,-20 5,-6 12,-9 23,-9 31,0 56,-8 75,-24 19,-16 31,-40 36,-71 2,-7 5,-12 10,-16 6,-4 11,-6 17,-8 1,0 2,0 3,0 1,0 2,0 3,0 0,0 0,0 0,0 1,0 1,0 1,0 0,0 0,0 0,0 1,0 1,0 1,0 8,1 15,4 21,8 6,5 9,12 9,22 0,7 0,14 0,22 0,7 0,15 0,22 0,8 0,15 0,22 0,8 0,15 0,23 13,0 26,0 39,0 13,0 25,0 38,0 13,0 25,0 38,0 13,0 26,0 39,0 10,0 17,3 22,9 6,6 8,13 8,20zm158 364c0,13 -5,24 -14,34 -10,9 -22,14 -36,14 -13,0 -25,-5 -34,-14 -10,-10 -15,-21 -15,-34 0,-14 5,-26 15,-35 9,-10 21,-15 34,-15 14,0 26,5 36,15 9,9 14,21 14,35zm277 9c0,7 -3,14 -8,20 -5,6 -13,10 -24,10l-195 0c-11,0 -19,-4 -25,-10 -5,-6 -7,-13 -7,-20 0,-7 2,-14 7,-20 6,-6 14,-9 25,-9l44 0 0 -538 -23 12c-3,1 -5,2 -8,3 -2,1 -5,1 -8,1 -5,0 -10,-2 -15,-5 -4,-3 -8,-7 -10,-12 -1,-1 -1,-3 -1,-4 -1,-1 -1,-2 -2,-3 0,-1 0,-2 0,-3 0,-2 0,-3 0,-4 0,-5 1,-10 4,-15 3,-5 8,-9 14,-12l158 -79c2,-1 4,-2 6,-2 2,-1 4,-1 6,-1 6,0 11,2 15,4 5,3 8,7 11,12 1,1 1,2 2,3 0,2 0,3 0,3 1,2 1,3 1,4 0,1 0,2 0,4 0,5 -1,9 -3,14 -3,5 -6,9 -10,12 -11,5 -21,14 -28,26 -7,11 -10,24 -10,37l0 543 52 0c11,0 19,3 24,9 5,6 8,13 8,20zm599 -362c0,7 -3,14 -8,20 -6,6 -13,9 -23,9l-62 0c-7,20 -14,40 -22,60 -8,20 -15,39 -23,59 -35,87 -73,174 -114,259 -41,86 -85,168 -132,248 -3,4 -6,8 -11,11 -4,2 -9,4 -15,4l-67 1c-11,-1 -20,-5 -26,-13 -6,-8 -7,-17 -3,-27 1,-1 2,-3 3,-5 0,-1 1,-3 3,-4 3,-5 6,-8 10,-12 3,-3 6,-7 9,-11 10,-13 21,-25 31,-37 11,-12 21,-24 31,-37 18,-22 35,-44 50,-66 16,-23 30,-46 41,-69l-136 -361 -57 0c-11,0 -19,-3 -24,-9 -5,-6 -8,-13 -8,-20 0,-8 3,-15 8,-21 5,-6 13,-8 24,-8l210 0c10,0 18,2 23,8 6,6 8,13 8,21 0,7 -2,14 -8,20 -5,6 -13,9 -23,9l-41 0 90 254c10,-21 19,-42 28,-63 9,-21 19,-43 28,-64 9,-21 18,-42 26,-63 8,-21 16,-43 24,-64l-37 0c-10,0 -18,-3 -23,-9 -6,-6 -8,-13 -8,-20 0,-8 2,-15 8,-21 5,-6 13,-8 23,-8l162 0c10,0 17,2 23,8 5,6 8,13 8,21zm341 -336l-233 991 -59 0 233 -991 59 0zm350 604c0,36 -14,66 -42,89 -28,22 -59,37 -93,44 -8,2 -17,4 -25,5 -9,1 -17,1 -24,1 -18,0 -34,-1 -50,-4 -15,-3 -29,-6 -42,-11 -2,1 -6,2 -9,3 -4,1 -7,2 -11,2 -5,-1 -11,-3 -16,-6 -5,-3 -9,-8 -11,-14l-26 -79c-1,-2 -1,-4 -1,-6 0,-1 0,-3 0,-4 0,-7 2,-13 5,-18 4,-4 8,-8 13,-10 1,0 3,-1 5,-1 2,-1 4,-1 6,-1 1,0 2,0 2,0 1,0 2,0 2,0 5,1 8,3 12,6 3,3 6,7 8,12l12 28c6,10 14,18 24,24 11,5 22,9 34,12 6,2 12,3 19,3 6,1 12,1 17,1 14,0 26,-2 38,-5 11,-4 22,-9 31,-16 8,-5 14,-11 18,-18 4,-6 6,-13 5,-20 0,-10 -4,-19 -11,-28 -7,-8 -16,-15 -28,-19 -20,-9 -41,-17 -62,-26 -21,-9 -42,-18 -63,-27 -22,-9 -40,-24 -54,-44 -14,-20 -21,-42 -21,-66 0,-18 5,-35 15,-52 10,-16 23,-30 40,-41 12,-8 25,-15 39,-20 15,-6 30,-9 45,-11 3,0 5,-1 8,-1 2,0 5,0 8,0 2,-1 4,-2 7,-2 2,0 5,0 7,0 10,0 20,1 30,2 11,1 20,3 29,6 3,-6 7,-10 12,-13 5,-3 10,-4 15,-4 0,0 0,0 0,0 0,0 1,0 1,0 0,0 0,0 0,0 0,0 1,0 1,0 5,1 11,3 16,6 5,4 9,9 11,15 6,15 11,29 16,44 5,15 11,30 15,45 1,2 2,4 2,7 0,2 1,3 1,5 -1,7 -3,13 -7,17 -3,5 -8,8 -13,9 -1,0 -2,0 -3,1 -1,0 -2,0 -3,0 0,1 -1,1 -2,1 -1,0 -2,0 -3,0 -5,0 -11,-2 -16,-5 -5,-4 -8,-9 -11,-16 -2,-3 -3,-7 -4,-10 -1,-4 -2,-7 -4,-11 -4,-9 -11,-16 -20,-22 -9,-6 -19,-10 -29,-12 -6,-2 -12,-3 -18,-4 -5,0 -11,-1 -16,-1 -3,0 -7,0 -11,1 -3,0 -7,1 -11,1 -12,3 -24,7 -35,15 -11,8 -16,18 -16,33 0,6 3,13 8,18 5,5 11,9 18,12 11,4 21,8 31,13 10,4 21,8 31,12 4,2 7,4 10,5 3,2 7,3 10,4 7,3 14,6 21,9 6,3 13,5 20,8 26,11 48,29 66,52 18,23 27,48 27,77zm468 -232l-62 62c-3,3 -6,5 -10,7 -4,1 -8,1 -12,1 -4,0 -7,-1 -11,-2 -3,-1 -6,-3 -9,-6l-37 -37c-1,-2 -3,-3 -5,-3 -1,-1 -3,-2 -5,-2 -3,0 -6,1 -9,3 -3,1 -5,3 -7,5l-79 79 0 190 87 0c10,0 18,3 23,9 5,6 8,13 8,20 0,7 -3,14 -8,20 -5,6 -13,10 -23,10l-231 0c-10,0 -18,-4 -23,-10 -6,-6 -8,-13 -8,-20 0,-7 2,-14 8,-20 5,-6 13,-9 23,-9l44 0 0 -281 -23 12c-3,1 -5,2 -8,3 -2,1 -4,1 -6,1 -6,0 -11,-2 -16,-5 -4,-3 -8,-7 -10,-12 0,-2 -1,-4 -2,-7 -1,-2 -2,-5 -2,-7 1,-6 3,-11 5,-16 3,-4 7,-8 13,-11l159 -78c1,-2 3,-3 5,-3 2,0 4,-1 6,-1 6,1 11,3 15,6 5,3 8,6 10,11 2,2 3,5 3,7 0,3 0,5 0,8 0,5 -1,10 -3,14 -2,5 -5,8 -10,11 -6,3 -11,6 -15,11 -4,4 -8,9 -11,14 -3,5 -5,11 -7,17 -2,6 -3,13 -3,20l0 13c9,-9 18,-18 27,-28 9,-9 18,-18 27,-27 9,-8 18,-17 27,-26 9,-9 18,-18 27,-27 7,-7 15,-13 23,-16 8,-4 16,-5 25,-4 8,0 16,1 24,4 8,4 16,9 23,16l43 43c2,2 4,4 5,7 1,3 2,6 2,8 0,1 0,2 0,3 0,1 0,2 0,3 0,4 0,8 -1,11 -1,4 -3,7 -6,9zm331 326c0,7 -3,14 -8,20 -5,6 -13,10 -24,10l-195 0c-11,0 -20,-4 -25,-10 -5,-6 -8,-13 -8,-20 0,-7 3,-14 8,-20 5,-6 14,-9 25,-9l44 0 0 -282 -23 12c-3,1 -6,2 -8,3 -2,1 -5,1 -8,1 -6,0 -11,-1 -15,-5 -5,-3 -8,-7 -10,-12 -1,-2 -2,-4 -3,-6 -1,-2 -1,-5 0,-7 0,-2 0,-3 0,-4 0,-1 0,-2 1,-4 1,-3 2,-7 5,-10 3,-4 7,-7 12,-10l158 -78c2,-2 3,-3 5,-3 3,0 5,-1 7,-1 5,0 10,2 15,5 5,2 8,6 11,11 1,1 1,2 2,3 0,2 0,3 0,4 1,1 1,2 1,3 0,1 0,2 0,4 0,5 -1,10 -4,15 -2,4 -5,8 -10,11 -11,6 -20,15 -27,26 -7,12 -10,24 -10,37l0 287 52 0c11,0 19,3 24,9 5,6 8,13 8,20zm-85 -577c0,15 -6,29 -17,40 -10,12 -24,17 -40,17 -15,0 -29,-5 -40,-17 -11,-11 -17,-25 -17,-40 0,-16 6,-29 17,-40 11,-11 25,-17 40,-17 16,0 30,6 40,17 11,11 17,24 17,40zm555 510c-22,34 -50,60 -86,79 -36,19 -73,28 -113,28 -64,0 -119,-22 -166,-66 -47,-44 -71,-98 -71,-163 0,-31 6,-61 19,-89 12,-28 29,-53 51,-74 22,-21 48,-38 76,-49 29,-12 58,-18 89,-18 16,0 32,2 47,5 16,3 31,8 46,16 15,7 28,16 40,27 13,11 23,22 32,34 3,3 4,6 5,8 0,2 1,5 1,9 0,5 -2,10 -4,15 -2,5 -6,8 -11,11l-274 149c8,22 17,41 28,57 11,16 27,30 48,42 11,6 23,11 36,14 12,3 24,5 35,5 24,0 47,-6 68,-19 21,-13 39,-30 55,-54 3,-4 6,-8 9,-10 4,-2 8,-4 12,-4 1,-1 1,-1 2,-1 1,0 2,0 3,0 1,0 2,0 3,0 1,0 2,0 2,1 2,0 4,0 6,1 2,0 3,2 5,3 4,3 7,6 10,10 2,5 3,9 3,14 0,3 0,6 -1,9 -1,3 -3,6 -5,10zm-150 -237c-11,-11 -24,-19 -37,-24 -14,-5 -28,-8 -42,-8 -7,0 -14,1 -22,2 -8,2 -15,4 -23,8 -20,8 -35,22 -46,42 -10,19 -16,42 -15,68 0,2 0,4 0,6 0,2 0,4 0,6l185 -100zm716 252c2,2 2,4 3,7 0,2 0,5 0,7 0,1 0,2 0,3 0,1 0,2 -1,3 0,4 -2,8 -5,11 -3,4 -7,7 -12,10l-113 56c-2,1 -4,2 -7,2 -2,0 -5,0 -8,0 -2,0 -4,0 -6,0 -2,0 -4,-1 -6,-3 -5,-2 -9,-5 -12,-9 -3,-4 -4,-10 -4,-18l0 -16c-17,14 -37,24 -59,31 -22,7 -44,10 -66,10 -62,0 -114,-23 -155,-70 -42,-46 -62,-100 -62,-160 0,-60 20,-113 62,-160 41,-46 93,-70 155,-70 2,0 4,0 6,0 2,0 5,0 8,0 19,2 39,6 58,13 19,7 37,16 53,28l0 -191 -23 12c-3,1 -6,2 -8,3 -2,0 -5,1 -7,1 -5,-1 -10,-3 -15,-6 -5,-3 -8,-7 -11,-11 -1,-1 -1,-3 -2,-4 0,-1 0,-2 0,-3 -1,-1 -1,-2 -1,-3 0,-2 0,-3 0,-4 0,-5 1,-10 4,-15 3,-5 7,-9 14,-12l158 -79c4,-1 7,-2 9,-3 3,-1 5,-1 8,-1 6,0 11,2 15,5 4,3 7,7 10,11 2,2 3,4 3,7 0,2 0,5 0,8 0,0 0,1 0,2 0,1 0,2 -1,3 0,4 -2,8 -5,11 -3,4 -7,7 -13,10 -4,3 -9,6 -14,11 -4,4 -8,9 -12,15 -3,5 -5,11 -7,17 -2,6 -3,12 -3,19l0 525 31 -16c3,-1 6,-2 8,-3 3,-1 5,-1 8,-1 6,0 11,1 15,5 5,3 8,7 10,12zm-171 -47l0 -193c-13,-17 -28,-32 -46,-43 -18,-12 -38,-18 -60,-18 -38,0 -69,15 -92,44 -24,30 -38,62 -41,98 -1,2 -1,5 -1,7 0,3 0,6 0,9 0,3 0,6 0,9 0,3 1,6 1,10 4,34 18,66 41,94 24,29 54,43 92,43 22,0 43,-5 61,-16 18,-12 33,-26 45,-44z"/>
  <path id="alamat" class="fil0" d="M6698 2636c0,6 -1,10 -5,14 -4,3 -7,5 -12,5 0,0 0,0 -1,0 0,0 0,0 -1,0 0,0 0,0 0,0 0,0 -1,0 -1,0 0,0 0,0 0,0 0,0 0,0 0,0 -5,0 -10,-1 -15,-5 -5,-4 -7,-9 -7,-16 0,-12 -2,-22 -7,-31 -5,-9 -11,-17 -19,-23 -9,-8 -20,-14 -32,-19 -12,-5 -25,-8 -38,-10 -6,-2 -11,-2 -17,-3 -6,0 -11,-1 -16,-1 -4,0 -8,1 -12,1 -4,0 -8,0 -11,1 -5,0 -11,1 -17,3 -5,1 -11,3 -18,5 -17,5 -33,14 -47,26 -15,11 -22,26 -22,45 0,16 6,29 17,40 12,12 25,20 39,26 27,10 55,21 82,31 27,11 54,21 81,31 35,13 62,33 82,59 19,27 28,55 28,85 0,21 -5,41 -15,61 -11,20 -27,38 -49,54 -19,14 -42,25 -67,33 -26,8 -54,12 -83,12 -7,0 -14,0 -21,-1 -8,0 -15,-1 -22,-2 -41,-4 -78,-18 -112,-39 -34,-22 -50,-56 -50,-102 0,-10 3,-18 9,-23 6,-6 14,-9 21,-10 1,0 1,0 1,0 1,0 1,0 1,0 1,0 1,0 2,0 0,0 0,0 1,0 7,1 14,4 21,9 6,6 9,14 9,24 0,34 13,58 39,74 26,15 54,23 86,23 1,0 2,0 3,0 1,0 2,0 3,0 19,-1 36,-4 53,-9 17,-6 32,-13 44,-23 8,-5 14,-11 19,-16 5,-5 9,-11 12,-17 4,-5 6,-11 7,-16 2,-6 2,-11 2,-16 0,-17 -6,-32 -19,-46 -12,-13 -29,-25 -50,-33 -13,-6 -27,-12 -41,-17 -14,-6 -28,-11 -41,-17 -14,-6 -28,-11 -41,-17 -14,-5 -27,-11 -41,-17 -28,-11 -50,-28 -64,-49 -15,-22 -23,-44 -23,-68 0,-2 0,-4 1,-6 0,-3 0,-5 0,-7 2,-17 8,-34 18,-50 11,-17 25,-31 43,-43 21,-13 44,-23 69,-30 25,-7 51,-11 77,-11 31,0 60,5 88,15 28,9 53,23 73,43 2,1 3,2 4,4 1,2 2,5 2,7 0,1 0,1 0,2 0,0 0,1 0,1l0 59zm2911 120c0,5 -2,10 -6,14 -3,5 -9,7 -16,7l-45 0c-5,14 -11,29 -16,43 -6,15 -11,29 -17,43 -26,64 -53,127 -83,190 -30,62 -62,122 -96,180 -2,3 -5,6 -8,8 -3,2 -7,3 -11,3l-49 1c-8,-1 -15,-4 -19,-10 -4,-6 -5,-12 -2,-19 1,-2 1,-3 2,-4 0,-1 1,-2 2,-3 3,-3 5,-6 7,-9 3,-2 5,-5 7,-8 7,-9 15,-18 23,-27 7,-9 15,-18 22,-27 13,-16 26,-32 37,-48 11,-16 21,-33 29,-51l-98 -262 -42 0c-8,0 -14,-2 -18,-7 -3,-4 -5,-9 -5,-14 0,-6 2,-11 5,-15 4,-5 10,-7 18,-7l153 0c7,0 13,2 17,7 4,4 6,9 6,15 0,5 -2,10 -6,14 -4,5 -10,7 -17,7l-30 0 66 185c7,-15 14,-31 20,-46 7,-16 14,-31 20,-46 7,-16 13,-31 19,-47 6,-15 12,-31 18,-46l-27 0c-7,0 -13,-2 -17,-7 -4,-4 -6,-9 -6,-14 0,-6 2,-11 6,-15 4,-5 10,-7 17,-7l118 0c7,0 13,2 16,7 4,4 6,9 6,15zm-2168 737l-112 173c-3,4 -6,8 -10,10 -4,3 -7,5 -11,5 -2,1 -3,2 -5,2 -2,0 -3,0 -5,0 -3,0 -7,-1 -10,-2 -4,0 -7,-2 -10,-3 -6,-4 -10,-8 -13,-13 -2,-5 -4,-11 -4,-17 0,-3 1,-7 2,-10 1,-3 3,-7 4,-10l12 -17 -265 0 0 730 107 0c12,0 22,3 28,10 7,7 10,15 10,24 0,9 -3,17 -10,24 -6,7 -16,11 -28,11l-368 0c-12,0 -22,-4 -28,-11 -6,-7 -9,-15 -9,-24 0,-9 3,-17 9,-24 6,-7 16,-10 28,-10l109 0 0 -730 -176 0c-6,0 -12,1 -19,2 -6,0 -12,2 -18,3 -27,7 -53,20 -78,37 -25,18 -45,37 -61,58 -2,1 -4,3 -5,6 -2,2 -4,4 -5,7 -3,5 -6,8 -10,11 -4,3 -8,4 -12,5 -1,0 -2,0 -3,0 -2,0 -3,0 -5,0 -3,0 -7,0 -10,-1 -3,-1 -7,-2 -10,-4 -5,-3 -9,-8 -12,-13 -3,-5 -5,-10 -5,-16 0,-4 1,-7 2,-10 1,-3 3,-6 5,-9l141 -217c3,-5 6,-9 10,-12 4,-2 8,-4 12,-5 1,-1 2,-1 4,-1 1,0 3,0 4,0 4,0 7,0 10,1 3,1 7,2 10,4 5,3 9,7 13,12 3,5 4,11 4,17 0,2 0,4 0,5 0,2 -1,4 -2,5 -1,2 -1,4 -2,6 0,1 -1,3 -3,5l-23 34 68 0 544 0c1,0 2,0 4,0 1,0 2,0 4,0 28,-2 55,-11 81,-27 26,-17 46,-36 61,-58 4,-6 9,-11 14,-13 6,-3 12,-4 18,-4 0,0 1,0 3,0 1,0 2,0 3,0 2,1 5,2 7,2 2,0 4,1 6,3 5,4 9,8 12,12 3,5 4,10 4,16 0,2 0,4 0,5 -1,2 -1,4 -1,5 -1,2 -2,4 -3,6 0,1 -1,3 -2,5zm4939 628c0,74 -25,138 -75,195 -50,57 -113,85 -189,85 -29,0 -57,-5 -85,-15 -28,-10 -53,-24 -75,-43l-28 37c-4,5 -8,8 -14,11 -6,2 -13,3 -20,3 -2,0 -5,0 -7,0 -3,-1 -5,-1 -7,-2 -8,-2 -16,-5 -22,-11 -6,-6 -9,-13 -9,-22l0 -699 -29 14c-3,1 -6,3 -9,4 -3,0 -6,1 -10,1 -6,0 -13,-2 -18,-6 -6,-4 -10,-9 -12,-15 -1,-2 -2,-5 -3,-8 -1,-3 -1,-6 -1,-9 0,-1 0,-2 0,-4 0,-1 0,-2 1,-3 1,-5 3,-10 7,-14 3,-4 8,-8 14,-11l192 -96c4,-2 7,-3 10,-4 3,-1 5,-1 8,-1 7,0 13,2 19,6 5,4 9,8 12,14 1,3 2,6 3,8 0,3 0,5 0,8 0,6 -1,12 -5,18 -3,6 -9,11 -16,16 -13,9 -23,19 -31,32 -9,13 -13,27 -13,43l0 236c23,-14 46,-26 71,-34 25,-9 51,-13 77,-13 76,0 139,28 189,85 50,56 75,121 75,194zm-4590 -3267l-110 170c-2,4 -6,8 -9,10 -4,3 -8,4 -11,5 -2,1 -3,1 -5,1 -2,0 -3,0 -5,0 -3,0 -7,0 -10,-1 -3,-1 -7,-2 -10,-4 -5,-3 -9,-7 -12,-12 -3,-5 -4,-11 -4,-16 0,-4 0,-7 2,-10 1,-4 2,-7 4,-10l11 -17 -259 0 0 715 104 0c13,0 22,3 29,10 6,6 9,14 9,23 0,9 -3,16 -9,23 -7,8 -16,11 -29,11l-359 0c-13,0 -22,-3 -28,-11 -6,-7 -8,-14 -8,-23 0,-9 2,-17 8,-23 6,-7 15,-10 28,-10l106 0 0 -715 -172 0c-6,0 -12,1 -18,2 -7,0 -13,2 -19,3 -26,7 -52,19 -76,37 -24,17 -44,36 -60,56 -1,1 -3,3 -5,5 -1,2 -3,5 -5,7 -2,5 -5,9 -9,11 -4,3 -8,5 -12,5 -1,0 -2,0 -3,0 -1,0 -3,0 -4,0 -4,0 -7,0 -10,-1 -4,-1 -7,-2 -10,-4 -5,-3 -9,-7 -12,-12 -3,-5 -5,-10 -5,-16 0,-4 1,-7 2,-10 1,-3 3,-6 5,-9l138 -212c3,-5 6,-9 10,-12 3,-2 7,-4 11,-4 1,-1 2,-2 4,-2 2,0 3,0 4,0 4,0 8,1 11,2 2,0 6,2 9,3 5,4 9,8 12,12 4,5 5,10 4,17 0,2 0,3 0,5 0,2 0,3 -1,5 -1,2 -2,3 -2,5 0,2 -1,3 -3,5l-23 34 67 0 533 0c1,0 2,0 3,0 1,0 3,0 4,0 28,-2 54,-11 80,-27 25,-16 45,-35 59,-57 4,-6 9,-10 14,-13 6,-2 11,-3 17,-3 1,0 2,0 3,0 2,0 3,0 3,0 3,1 5,1 7,2 2,0 4,1 6,3 5,3 9,7 12,12 3,4 4,9 4,15 0,2 0,4 0,5 -1,2 -1,4 -1,5 -1,2 -2,4 -3,5 0,2 -1,4 -2,5zm875 677l-50 195c0,1 0,1 0,2 -1,0 -1,1 -1,2 -2,3 -4,7 -9,10 -4,4 -8,7 -12,10 -3,0 -5,1 -6,1 -2,1 -4,1 -5,1l-743 0c-13,0 -22,-4 -28,-11 -7,-8 -10,-16 -10,-24 0,-9 3,-17 10,-24 6,-6 15,-10 28,-10l91 0 0 -713 -91 0c-13,0 -22,-3 -28,-11 -7,-7 -10,-15 -10,-24 0,0 0,-1 0,-1 0,-1 0,-2 0,-2 1,-8 5,-15 11,-21 6,-6 15,-9 27,-9l711 0c2,0 4,0 5,0 1,1 3,1 4,1 5,2 10,6 15,9 5,4 8,8 10,12 0,1 0,2 1,2 0,0 0,1 0,2l38 153c1,2 1,4 1,5 0,2 0,4 0,5 0,9 -2,16 -6,22 -4,6 -10,10 -16,12 -1,0 -2,0 -3,1 -2,0 -3,0 -4,0 0,1 -1,2 -3,2 -1,0 -2,0 -3,0 -1,0 -2,0 -3,0 -1,0 -2,-1 -3,-2 -5,0 -10,-2 -14,-5 -4,-3 -8,-7 -11,-13 -4,-7 -9,-14 -14,-22 -6,-7 -12,-15 -19,-23 -15,-19 -34,-38 -56,-55 -21,-17 -43,-28 -66,-34 -4,-2 -8,-3 -13,-3 -5,0 -9,-1 -13,-1l-299 0 0 286 299 0c4,0 9,-1 14,-2 5,-2 10,-4 15,-6 9,-5 17,-12 26,-20 8,-9 15,-17 21,-27 3,-5 5,-10 7,-15 2,-5 3,-9 3,-13 0,-15 4,-25 11,-32 8,-6 16,-10 24,-10 9,0 17,4 24,11 7,7 11,18 11,32l0 266c0,13 -4,23 -11,30 -7,8 -15,12 -24,12 -8,0 -16,-3 -24,-10 -7,-7 -11,-18 -11,-32 0,-6 -2,-13 -5,-23 -3,-9 -7,-18 -12,-28 -8,-14 -17,-28 -28,-40 -11,-13 -22,-20 -34,-23 -1,-1 -3,-1 -4,-1 -1,0 -2,0 -3,0l-299 0 0 358 246 0c69,-1 127,-14 174,-38 47,-23 81,-68 100,-133 3,-9 8,-15 14,-20 6,-4 13,-6 20,-6 1,0 3,0 5,0 2,0 4,1 5,1 6,2 12,6 18,12 5,5 7,13 7,22 0,1 0,2 0,4 0,3 -1,4 -2,6zm1259 187c0,1 0,2 0,2 0,1 0,1 0,2 -1,8 -4,15 -10,21 -7,6 -16,9 -27,9l-385 0c-12,0 -21,-3 -27,-9 -6,-6 -10,-13 -10,-21 0,-1 0,-1 0,-2 0,0 0,-1 0,-2 0,-9 3,-17 9,-24 6,-7 16,-11 28,-11l111 0 0 -585 -290 633c-2,4 -8,8 -17,10 -9,3 -20,5 -31,5 -1,0 -2,0 -3,0 -2,0 -3,0 -5,0 -10,0 -19,-1 -27,-4 -7,-2 -13,-6 -15,-11l-295 -724 0 676 120 0c12,0 22,4 28,11 6,7 9,15 9,24 0,1 0,2 0,2 0,1 0,1 0,2 0,8 -4,15 -10,21 -6,6 -15,9 -27,9l-315 0c-11,0 -20,-3 -27,-9 -6,-6 -9,-13 -10,-21 0,-1 0,-1 0,-2 0,0 0,-1 0,-2 0,-9 3,-17 9,-24 6,-7 16,-11 28,-11l124 0 0 -713 -124 0c-12,0 -22,-3 -28,-11 -6,-7 -9,-15 -9,-24 0,-9 3,-17 9,-23 6,-7 16,-10 28,-10l382 0c13,0 22,3 29,10 6,6 9,14 9,23 0,9 -3,17 -9,24 -7,8 -16,11 -29,11l-45 0 246 604 276 -604 -98 0c-13,0 -22,-3 -28,-11 -7,-7 -10,-15 -10,-24 0,-9 3,-17 10,-23 6,-7 15,-10 28,-10l388 0c13,0 22,3 28,10 7,6 10,14 10,23 0,9 -3,17 -10,24 -6,8 -15,11 -28,11l-122 0 0 713 125 0c12,0 22,4 28,11 6,7 9,15 9,24zm821 -548c0,88 -33,155 -97,200 -65,45 -139,67 -224,67l-190 0 0 246 90 0c12,0 22,4 28,11 7,7 10,15 10,24 0,1 0,2 0,2 0,1 0,1 0,2 0,8 -4,15 -11,21 -6,6 -16,9 -27,9l-320 0c-12,0 -21,-3 -27,-9 -6,-6 -10,-13 -10,-21 0,-1 0,-1 0,-2 0,0 0,-1 0,-2 0,-9 3,-17 9,-24 6,-7 16,-11 28,-11l81 0 0 -713 -86 0c-13,0 -23,-3 -29,-11 -5,-7 -8,-15 -8,-24 0,-9 3,-17 8,-23 6,-7 16,-10 29,-10l357 0c6,0 12,0 18,0 7,0 13,0 18,0 89,3 169,22 243,58 73,35 110,105 110,210zm-159 0c0,-56 -22,-103 -66,-138 -44,-36 -93,-56 -146,-60 -4,-1 -7,-2 -10,-2 -4,0 -7,0 -10,0l-120 0 0 399 120 0c65,0 120,-16 165,-48 45,-32 67,-83 67,-151zm1108 548c0,1 0,2 0,2 0,1 0,1 0,2 -1,8 -5,15 -11,21 -6,6 -15,9 -27,9l-337 0c-12,0 -20,-3 -27,-9 -6,-6 -10,-13 -10,-21 0,-1 0,-1 0,-2 0,0 0,-1 0,-2 0,-9 3,-17 9,-24 6,-7 16,-11 28,-11l83 0 -97 -247 -284 0 -98 247 148 0c12,0 21,4 28,11 6,7 9,15 9,24 0,1 0,2 0,2 0,1 0,1 0,2 -1,8 -4,15 -11,21 -6,6 -15,9 -26,9l-339 0c-11,0 -20,-3 -27,-9 -6,-6 -9,-13 -10,-21 0,-1 0,-1 0,-2 0,0 0,-1 0,-2 0,-9 3,-17 9,-24 6,-7 16,-11 28,-11l115 0 302 -760c0,-1 0,-2 1,-2 0,0 1,-1 1,-1 1,-3 4,-6 8,-9 3,-3 7,-5 12,-7 1,-1 3,-1 5,-2 2,0 4,0 6,0l67 0c2,0 4,0 5,0 2,1 4,1 6,2 5,2 10,5 14,8 4,4 7,8 9,12l296 759 77 0c13,0 22,4 28,11 7,7 10,15 10,24zm-415 -351l-115 -293 -116 293 231 0zm1324 -513l-110 170c-2,4 -6,8 -9,10 -4,3 -8,4 -11,5 -2,1 -3,1 -5,1 -2,0 -3,0 -5,0 -3,0 -7,0 -10,-1 -3,-1 -7,-2 -10,-4 -5,-3 -9,-7 -12,-12 -3,-5 -4,-11 -4,-16 0,-4 0,-7 2,-10 1,-4 2,-7 4,-10l11 -17 -259 0 0 715 104 0c13,0 22,3 29,10 6,6 9,14 9,23 0,9 -3,16 -9,23 -7,8 -16,11 -29,11l-359 0c-13,0 -22,-3 -28,-11 -6,-7 -8,-14 -8,-23 0,-9 2,-17 8,-23 6,-7 15,-10 28,-10l106 0 0 -715 -172 0c-6,0 -12,1 -18,2 -7,0 -13,2 -19,3 -26,7 -52,19 -76,37 -24,17 -44,36 -60,56 -1,1 -3,3 -5,5 -1,2 -3,5 -5,7 -2,5 -5,9 -9,11 -4,3 -8,5 -12,5 -1,0 -2,0 -3,0 -1,0 -3,0 -4,0 -4,0 -7,0 -10,-1 -4,-1 -7,-2 -10,-4 -5,-3 -9,-7 -12,-12 -3,-5 -5,-10 -5,-16 0,-4 1,-7 2,-10 1,-3 3,-6 5,-9l138 -212c3,-5 6,-9 10,-12 3,-2 7,-4 11,-4 1,-1 2,-2 4,-2 2,0 3,0 4,0 4,0 8,1 11,2 2,0 6,2 9,3 5,4 9,8 12,12 4,5 5,10 4,17 0,2 0,3 0,5 0,2 0,3 -1,5 -1,2 -2,3 -2,5 0,2 -1,3 -3,5l-23 34 67 0 533 0c1,0 2,0 3,0 1,0 3,0 4,0 28,-2 54,-11 80,-27 25,-16 45,-35 59,-57 4,-6 9,-10 14,-13 6,-2 11,-3 17,-3 1,0 2,0 3,0 2,0 3,0 3,0 3,1 5,1 7,2 2,0 4,1 6,3 5,3 9,7 12,12 3,4 4,9 4,15 0,2 0,4 0,5 -1,2 -1,4 -1,5 -1,2 -2,4 -3,5 0,2 -1,4 -2,5zm-348 3259c0,-4 0,-7 0,-11 0,-3 0,-6 -1,-9 -4,-43 -21,-83 -49,-118 -29,-36 -66,-54 -113,-54 -25,0 -49,7 -69,20 -21,13 -39,30 -55,49l0 245c15,20 33,36 55,48 21,13 44,20 69,20 46,0 83,-18 112,-53 29,-35 46,-73 50,-115 1,-4 1,-8 1,-12 0,-3 0,-7 0,-10zm715 154c-27,41 -62,73 -105,95 -43,23 -89,35 -138,35 -77,0 -144,-27 -201,-80 -57,-54 -86,-120 -86,-198 0,-38 8,-74 23,-109 15,-34 35,-63 61,-89 28,-26 59,-46 94,-60 34,-14 70,-21 107,-21 19,0 39,2 58,5 19,4 37,11 55,20 18,9 34,19 49,33 15,13 28,27 39,41 3,3 4,7 5,10 1,3 2,6 2,10 0,6 -2,12 -5,18 -3,6 -7,11 -13,14l-333 181c9,27 21,50 34,69 14,20 33,37 58,51 14,8 29,14 44,18 15,3 29,5 42,5 30,0 58,-7 83,-23 26,-15 48,-37 67,-65 3,-6 7,-10 11,-12 4,-3 9,-5 14,-6 1,0 2,-1 3,-1 2,0 3,0 4,0 0,0 1,0 3,0 1,0 2,1 3,1 2,0 5,1 7,2 2,1 4,2 6,4 5,3 9,7 12,12 3,5 4,11 4,17 0,3 0,7 -2,11 -1,4 -3,8 -5,12zm-183 -288c-13,-13 -28,-23 -45,-29 -17,-6 -33,-10 -50,-10 -9,0 -18,1 -27,3 -10,2 -19,5 -28,9 -24,10 -43,27 -56,51 -13,24 -19,51 -18,83 0,2 0,5 0,7 0,3 0,6 0,8l224 -122zm-4863 301c-26,40 -61,72 -104,95 -44,23 -90,35 -138,35 -78,0 -145,-27 -202,-81 -57,-53 -85,-119 -85,-197 0,-39 7,-75 22,-109 15,-34 36,-64 62,-89 27,-26 58,-47 93,-61 35,-14 71,-21 107,-21 20,0 39,2 58,6 19,4 38,11 56,20 18,8 34,19 49,32 15,14 28,27 39,42 2,3 4,6 5,9 1,3 1,7 1,11 0,6 -1,12 -4,18 -3,6 -8,11 -14,14l-333 181c10,27 21,50 35,69 14,20 33,37 57,51 15,8 29,14 44,17 15,4 29,6 43,6 30,0 57,-8 83,-23 25,-15 48,-37 66,-65 4,-6 7,-10 12,-13 4,-2 9,-4 14,-5 1,-1 2,-1 3,-1 1,0 2,0 3,0 1,0 2,0 3,0 2,0 3,0 4,1 2,0 4,1 7,1 2,1 4,3 5,4 5,4 9,8 12,13 3,5 5,11 5,17 0,3 -1,7 -2,10 -1,4 -3,8 -6,13zm-182 -289c-14,-12 -29,-22 -45,-28 -17,-7 -34,-10 -51,-10 -8,0 -17,1 -27,3 -9,1 -18,4 -28,9 -23,10 -42,27 -55,51 -13,23 -19,51 -19,82 0,3 0,6 0,8 0,3 0,5 0,8l225 -123zm444 357c0,9 -4,17 -10,25 -6,7 -16,11 -29,11l-237 0c-13,0 -23,-4 -30,-11 -6,-8 -9,-16 -9,-25 0,-9 3,-17 9,-24 7,-8 17,-11 30,-11l54 0 0 -653 -28 14c-4,1 -7,3 -10,4 -3,0 -6,1 -9,1 -7,0 -13,-2 -19,-6 -5,-4 -10,-9 -12,-15 -1,-1 -2,-3 -2,-4 0,-1 -1,-3 -2,-4 0,-1 0,-3 0,-4 0,-2 0,-3 0,-4 0,-7 2,-13 5,-19 4,-6 9,-11 17,-14l192 -96c2,-2 4,-3 7,-3 2,-1 5,-1 7,-1 7,0 13,2 19,5 5,4 10,8 13,14 1,1 2,3 2,4 1,2 1,3 1,4 1,2 1,3 1,5 0,1 0,2 0,4 0,6 -1,12 -4,18 -3,6 -7,10 -12,14 -14,7 -25,17 -34,31 -8,14 -12,29 -12,45l0 660 63 0c13,0 23,3 29,11 6,7 10,15 10,24zm722 -72c1,2 2,5 3,8 0,3 0,6 0,10 0,0 0,2 0,3 0,1 0,2 -1,3 -1,5 -3,10 -6,14 -4,4 -8,8 -14,12l-138 68c-2,0 -3,1 -5,2 -2,1 -4,1 -5,2 -3,0 -5,0 -7,1 -1,0 -3,1 -5,1 -2,0 -5,-1 -7,-2 -3,-1 -6,-2 -8,-4 -4,-2 -8,-6 -11,-11 -3,-5 -4,-12 -4,-19l0 -21c-17,15 -35,27 -56,36 -22,9 -44,16 -67,19 -4,1 -9,2 -13,2 -5,1 -10,1 -15,1 -62,0 -117,-18 -166,-54 -49,-37 -74,-89 -75,-158l0 -240 -27 14c-3,1 -6,2 -9,3 -3,1 -6,1 -9,1 -7,0 -14,-2 -19,-5 -6,-3 -10,-8 -12,-14 -1,-3 -2,-5 -3,-8 -1,-3 -1,-6 -1,-10 0,-1 0,-2 0,-3 0,-1 0,-2 1,-3 1,-5 3,-10 6,-14 4,-5 8,-8 14,-12l193 -97c2,-1 4,-1 6,-2 2,0 4,0 5,0 7,0 13,2 19,6 6,3 10,8 13,14 2,4 3,7 4,10 0,3 0,6 0,9 0,6 -1,12 -4,17 -2,5 -6,9 -12,11 -12,6 -22,15 -29,27 -7,12 -12,24 -13,37 -1,2 -2,4 -2,6 0,2 0,4 0,6l0 259c0,33 11,62 32,89 21,26 49,39 84,39 3,0 6,0 9,0 3,0 5,0 8,-1 34,-3 65,-17 94,-40 29,-23 44,-53 44,-90l0 -255 -28 13c-4,1 -7,3 -10,3 -3,1 -6,2 -8,2 -7,0 -13,-2 -19,-6 -5,-4 -9,-9 -12,-15 -1,-2 -2,-5 -3,-8 -1,-3 -2,-6 -2,-9 1,-6 3,-12 6,-18 4,-5 9,-10 16,-13l192 -97c1,0 2,0 3,-1 2,0 3,0 4,0 0,-1 2,-2 3,-2 1,0 2,0 3,0 7,0 13,2 19,6 5,3 10,8 13,15 1,1 1,2 2,4 0,1 0,3 0,3 1,2 2,4 2,5 0,1 0,3 0,4 0,6 -2,12 -4,18 -3,5 -7,10 -13,13 -13,8 -24,18 -32,32 -7,13 -11,28 -11,43l-1 345 38 -20c3,-1 6,-3 9,-3 3,-1 7,-2 10,-2 7,1 13,4 18,7 6,4 10,9 13,14zm758 72c0,9 -3,17 -9,25 -7,7 -16,11 -29,11l-260 0c-13,0 -23,-3 -31,-10 -7,-7 -12,-14 -12,-23 0,-1 0,-1 0,-2 0,0 0,-1 0,-2 0,-9 3,-17 9,-25 7,-7 16,-11 30,-11l46 0 -130 -177 -101 87 0 92 64 0c13,0 22,3 29,11 7,7 10,15 10,24 0,9 -3,17 -10,25 -7,7 -16,11 -29,11l-237 0c-13,0 -23,-4 -30,-11 -6,-8 -10,-16 -10,-25 0,-9 3,-17 10,-24 6,-8 16,-11 30,-11l53 0 0 -653 -28 14c-3,1 -6,3 -9,4 -3,0 -7,1 -10,1 -7,0 -13,-2 -18,-6 -6,-4 -10,-9 -13,-15 0,-1 -1,-3 -1,-4 -1,-1 -1,-3 -2,-4 0,-1 0,-3 0,-4 0,-2 0,-3 0,-4 0,-7 1,-13 5,-19 3,-6 9,-11 16,-14l193 -96c2,-2 5,-3 8,-3 2,-1 4,-1 6,-1 7,0 13,2 18,5 6,4 10,8 14,14 1,1 1,3 2,4 0,2 0,3 0,4 1,2 2,3 2,5 0,1 0,2 0,4 0,6 -2,12 -5,18 -3,6 -7,10 -12,14 -14,7 -25,17 -33,31 -9,14 -13,29 -13,45l0 474 223 -196 -72 0c-13,0 -23,-3 -29,-11 -6,-8 -10,-16 -10,-24 0,-10 4,-18 10,-25 6,-7 16,-11 29,-11l262 0c13,0 23,4 29,11 6,7 10,15 10,25 0,8 -4,16 -10,24 -6,8 -16,11 -29,11l-81 0 -143 125 185 252c1,1 1,1 2,2 0,0 0,1 0,1l73 0c13,1 22,5 29,13 6,7 9,15 9,24zm304 -507c1,2 2,3 2,6 1,2 2,4 2,7 0,0 0,2 0,3 0,1 0,2 0,3 0,6 -2,11 -4,17 -3,5 -7,9 -13,12 -13,8 -24,19 -32,32 -8,14 -12,29 -12,45l0 606c0,36 -15,67 -44,95 -29,28 -66,42 -112,42 -37,0 -68,-7 -93,-23 -26,-15 -43,-36 -52,-63 -1,-2 -2,-4 -2,-6 0,-2 0,-5 0,-7 0,-2 0,-4 1,-6 0,-2 1,-4 1,-6 1,-6 4,-13 8,-19 5,-6 10,-9 16,-11 1,0 1,0 2,-1 1,0 2,0 3,0 1,0 2,0 2,0 1,0 2,0 3,0 8,0 16,2 23,7 7,5 11,12 13,21 2,12 7,23 14,30 8,8 18,12 33,12 19,0 33,-7 44,-21 10,-14 17,-30 18,-47 0,-1 0,-3 0,-5 0,-1 0,-3 0,-5l0 -587 -26 14c-1,1 -2,2 -4,2 -1,0 -2,1 -3,1 -2,0 -5,1 -7,2 -2,0 -4,0 -6,0 -7,0 -14,-2 -19,-6 -6,-3 -10,-8 -12,-14 -1,-3 -2,-5 -3,-8 -1,-2 -1,-5 -1,-7 0,-7 2,-14 5,-19 4,-6 10,-12 18,-16l191 -95c3,-2 5,-3 8,-4 2,0 5,0 7,0 7,0 13,1 19,5 5,3 9,8 12,14zm-59 -194c0,19 -7,35 -20,49 -14,14 -30,21 -50,21 -19,0 -35,-7 -48,-21 -14,-14 -21,-30 -21,-49 0,-19 7,-35 21,-48 13,-14 29,-21 48,-21 20,0 36,7 50,21 13,13 20,29 20,48zm657 628c-1,1 -2,3 -3,5 0,1 -1,3 -2,6 -5,10 -10,21 -15,31 -5,11 -12,21 -19,30 -12,14 -25,24 -39,32 -15,8 -32,12 -49,12 -22,0 -41,-5 -59,-14 -17,-9 -30,-23 -40,-41 -21,16 -45,29 -72,39 -27,9 -54,15 -81,17 -2,0 -5,0 -7,0 -3,0 -5,0 -8,0 -3,0 -7,0 -10,0 -3,0 -6,-1 -9,-1 -32,-3 -62,-14 -89,-32 -27,-19 -40,-46 -40,-81 0,-45 16,-80 48,-106 33,-25 69,-45 110,-59 4,-2 7,-4 11,-5 4,-1 8,-2 12,-3 22,-8 44,-14 66,-19 21,-5 41,-10 58,-14l0 -83c0,-15 -3,-27 -8,-37 -6,-9 -16,-15 -30,-18 -3,-1 -6,-1 -8,-1 -3,0 -5,0 -8,0 -3,0 -7,0 -10,0 -3,1 -7,1 -10,1 -22,4 -44,14 -65,29 -20,15 -37,31 -50,47 -2,4 -5,7 -8,9 -3,3 -6,5 -9,7 -2,2 -5,3 -8,4 -3,0 -6,1 -8,1 -3,0 -6,-1 -9,-2 -3,-1 -5,-2 -8,-3 -5,-4 -9,-8 -13,-14 -4,-5 -6,-11 -6,-18 1,-3 2,-7 3,-10 1,-4 2,-7 4,-10 19,-37 45,-67 79,-90 33,-24 70,-37 111,-41 1,0 3,0 5,0 2,0 5,0 7,-1 2,0 4,0 6,0 2,0 4,0 6,0 42,0 80,10 111,29 32,19 48,53 48,101l0 310c0,4 1,6 3,8 2,3 4,4 7,6 1,0 2,0 2,0 1,0 1,0 2,0 5,0 8,-1 11,-4 3,-2 6,-6 10,-10 1,-3 3,-7 5,-11 3,-5 5,-9 7,-13 2,-3 4,-7 7,-12 2,-4 5,-8 7,-11 4,-4 8,-8 11,-10 4,-3 9,-4 14,-4 1,0 3,0 4,0 0,0 2,0 3,1 1,0 2,0 4,1 1,0 2,1 3,2 6,2 11,6 14,12 4,5 6,12 6,20 0,2 0,5 -1,8 -1,3 -2,6 -4,10zm-237 -30l0 -98c-9,3 -18,5 -28,8 -9,2 -19,5 -30,9 -30,10 -58,23 -84,38 -25,16 -38,37 -38,62 0,1 0,2 0,2 0,1 0,2 0,3 2,15 9,26 21,33 12,7 25,11 39,11 1,0 1,0 2,0 0,0 1,0 2,0 0,0 0,0 0,0 1,0 1,0 2,0 5,0 9,-1 13,-2 4,-1 9,-2 13,-3 18,-6 34,-15 50,-26 16,-11 28,-23 38,-37zm1399 103c0,9 -3,17 -10,25 -6,7 -16,11 -30,11l-279 0c-13,0 -22,-4 -29,-11 -7,-8 -10,-16 -10,-25 0,-9 3,-17 10,-24 7,-8 16,-11 29,-11l79 0 0 -257c0,-44 -12,-76 -37,-97 -24,-21 -53,-31 -84,-31 -1,0 -2,0 -3,0 -1,0 -3,0 -3,0 -2,0 -3,1 -4,1 -1,0 -2,0 -4,0 -34,2 -65,16 -93,39 -28,24 -42,57 -42,99l0 246 80 0c13,0 22,3 29,11 6,7 9,15 9,24 0,9 -3,17 -9,25 -7,7 -16,11 -29,11l-280 0c-13,0 -23,-4 -29,-11 -7,-8 -10,-16 -10,-25 0,-9 3,-17 10,-24 6,-8 16,-11 29,-11l80 0 0 -257c0,-44 -12,-76 -37,-97 -25,-21 -53,-31 -84,-31 -1,0 -2,0 -3,0 -2,0 -3,0 -4,0 -1,0 -3,1 -3,1 -1,0 -3,0 -4,0 -1,0 -2,0 -4,0 -1,0 -2,0 -4,1 -31,4 -61,17 -87,39 -27,23 -41,53 -41,93l0 251 64 0c13,0 23,3 29,11 6,7 10,15 10,24 0,9 -4,17 -10,25 -6,7 -16,11 -29,11l-238 0c-13,0 -23,-4 -29,-11 -6,-8 -9,-16 -9,-25 0,-9 3,-17 9,-24 6,-8 16,-11 29,-11l53 0 0 -342 -26 14c-4,2 -7,3 -11,4 -3,1 -6,1 -10,1 -7,0 -13,-2 -18,-6 -6,-3 -10,-8 -12,-14 -1,-3 -2,-5 -3,-8 -1,-3 -1,-6 -1,-9 0,-2 0,-3 0,-4 0,-2 0,-3 1,-5 1,-4 3,-8 6,-13 4,-4 8,-8 14,-11l193 -96c3,-1 5,-2 8,-3 2,0 5,-1 7,-1 7,0 13,2 19,6 5,3 9,8 12,14 2,2 3,5 3,8 0,3 1,6 1,9 0,1 0,2 0,3 0,1 0,1 0,1 0,1 -1,2 -1,3 0,1 -1,2 -1,2 17,-6 33,-11 50,-14 16,-3 33,-5 50,-6 2,0 3,0 4,0 2,0 3,0 4,0 37,0 73,8 107,23 34,15 61,38 81,69 22,-30 51,-52 86,-68 35,-15 71,-23 108,-24 2,0 3,0 4,0 1,0 2,0 3,0 57,0 109,17 156,52 46,35 69,88 69,160l0 255 79 0c14,0 24,3 30,11 7,7 10,15 10,24zm-1764 -1373c-1,1 -1,2 -2,3 0,1 -1,3 -1,4 -3,6 -6,12 -9,19 -3,6 -7,12 -12,18 -7,8 -14,14 -23,19 -9,5 -19,7 -30,7 -12,0 -24,-3 -35,-8 -10,-6 -18,-14 -24,-25 -12,10 -27,17 -43,23 -16,6 -32,10 -48,11 -2,0 -4,0 -5,0 -2,0 -3,0 -5,0 -2,0 -4,0 -5,0 -2,0 -4,-1 -6,-1 -19,-2 -37,-8 -53,-19 -16,-11 -24,-28 -24,-48 0,-28 9,-49 29,-64 19,-15 41,-27 65,-36 3,-1 5,-2 7,-3 2,0 5,-1 7,-2 14,-4 27,-8 40,-11 13,-3 24,-6 34,-8l0 -50c0,-9 -1,-16 -4,-22 -4,-6 -10,-10 -18,-11 -2,-1 -4,-1 -5,-1 -2,0 -3,0 -5,0 -2,0 -4,0 -6,1 -2,0 -4,0 -6,0 -13,2 -26,8 -39,17 -12,9 -22,19 -30,29 -1,2 -3,4 -5,5 -2,2 -3,3 -5,4 -1,1 -3,2 -5,2 -1,1 -3,1 -5,1 -2,0 -4,0 -5,-1 -2,-1 -3,-1 -5,-2 -3,-2 -5,-5 -8,-8 -2,-3 -3,-7 -3,-11 0,-2 1,-4 1,-6 1,-2 2,-4 3,-6 11,-22 27,-40 47,-54 20,-14 42,-22 67,-24 1,0 2,0 3,0 1,0 3,-1 4,-1 1,0 3,0 4,0 1,0 2,0 3,0 26,0 48,6 67,17 19,12 29,32 29,61l0 186c0,2 0,4 1,5 2,1 3,2 5,3 1,0 1,0 1,0 0,0 1,0 1,0 3,0 5,-1 7,-2 2,-2 4,-4 6,-6 1,-2 2,-5 3,-7 1,-3 3,-5 4,-8 1,-2 3,-4 4,-7 2,-2 3,-4 5,-6 2,-3 4,-5 6,-7 2,-1 5,-2 8,-2 1,0 2,0 3,0 0,0 1,0 2,1 0,0 1,0 2,0 0,0 1,1 2,1 3,2 6,4 8,8 3,3 4,7 4,12 0,1 0,3 -1,4 0,2 -1,4 -2,6zm-143 -17l0 -59c-5,1 -10,3 -16,4 -6,2 -12,4 -18,6 -18,6 -35,14 -50,23 -16,9 -23,22 -23,37 0,1 0,1 0,1 0,0 0,1 0,2 1,9 5,15 12,20 8,4 15,6 24,6 0,0 0,0 1,0 0,0 0,0 1,0 0,0 0,0 0,0 0,0 1,0 1,0 3,0 5,0 8,-1 3,-1 5,-1 8,-2 10,-3 20,-9 30,-15 9,-7 17,-14 22,-22zm242 97c-6,8 -13,15 -22,21 -9,6 -18,8 -27,8 -1,0 -2,0 -4,0 -1,0 -3,0 -4,-1l0 -3c7,-5 11,-11 14,-17 3,-7 2,-13 -3,-20 0,-1 -1,-2 -2,-2 0,-1 -1,-2 -2,-3 -4,-4 -6,-8 -8,-12 -2,-4 -3,-9 -3,-14 0,-3 0,-5 1,-7 0,-3 1,-5 2,-7 3,-7 7,-12 14,-16 6,-3 12,-5 19,-5 1,0 2,0 3,0 2,0 3,0 5,1 1,0 2,0 3,0 1,1 3,1 4,2 8,4 13,10 17,17 3,6 5,13 5,21 0,2 0,4 -1,6 0,2 0,4 -1,6 -1,4 -2,8 -4,13 -2,4 -4,7 -6,11l0 1zm730 -25c0,0 0,0 0,1 0,0 0,0 0,1 -1,4 -3,9 -7,12 -3,4 -8,5 -15,5 -35,0 -68,-6 -100,-18 -33,-12 -63,-28 -90,-49 -28,-21 -52,-47 -74,-76 -21,-30 -38,-62 -51,-97l-77 0 0 190 69 0c8,0 14,2 17,6 4,5 6,10 6,15 0,1 0,1 0,2 0,0 0,0 0,1 0,4 -3,8 -6,12 -4,4 -10,6 -17,6l-210 0c-7,0 -12,-2 -16,-6 -4,-4 -6,-8 -6,-12 0,-1 0,-1 0,-1 0,-1 0,-1 0,-2 0,-5 1,-10 5,-15 4,-4 10,-6 17,-6l50 0 0 -437 -50 0c-7,0 -13,-2 -17,-7 -4,-4 -5,-9 -5,-14 0,-6 1,-11 5,-15 4,-4 10,-6 17,-6l233 0c9,0 18,0 27,1 9,0 18,1 27,2 41,4 79,16 114,37 34,20 52,55 52,105 0,33 -13,63 -39,89 -26,27 -55,44 -87,51 9,29 20,55 35,80 14,24 30,46 47,63 17,17 35,31 56,43 22,11 44,17 68,17 7,0 13,2 16,7 4,4 6,9 6,15zm-199 -365c0,-29 -12,-52 -34,-70 -23,-18 -47,-29 -74,-32 -2,0 -5,0 -7,-1 -3,0 -5,0 -8,0 0,0 -1,0 -1,0 0,0 0,0 0,0l0 0 -91 0 0 205 92 0c35,0 64,-8 87,-24 24,-17 36,-43 36,-78zm513 83c0,5 -2,10 -5,14 -4,4 -9,7 -17,7 -9,0 -19,0 -28,0 -9,0 -19,0 -28,0 -9,0 -18,0 -28,0 -9,0 -19,0 -28,0 0,15 0,30 0,46 0,15 0,30 0,45 0,16 0,32 0,47 0,15 0,31 0,46 0,13 4,22 12,29 8,6 17,10 26,10 1,0 1,0 2,0 0,0 0,0 1,0 10,0 19,-3 27,-10 8,-7 13,-17 13,-30 0,-7 2,-12 6,-16 5,-4 10,-6 15,-6 6,0 11,2 15,6 5,4 7,9 7,17 0,27 -9,49 -28,69 -19,19 -42,28 -69,28 -27,0 -49,-9 -68,-28 -19,-19 -28,-42 -28,-68 0,-31 0,-62 0,-92 0,-31 0,-62 0,-93l-56 0c-6,0 -12,-2 -17,-5 -5,-3 -8,-8 -8,-16 0,-6 2,-11 5,-15 3,-4 9,-6 17,-6 22,0 40,-6 54,-18 14,-12 23,-29 27,-51 1,-5 3,-9 7,-12 4,-3 8,-5 12,-6 1,0 2,0 3,0 0,0 1,0 1,0 0,0 1,0 1,0 0,0 0,0 0,0 0,0 0,0 1,0 0,0 0,0 0,0 6,1 11,2 15,6 5,3 7,8 7,15 0,6 0,11 0,17 0,5 0,11 0,16 0,5 0,11 0,16 0,5 0,11 0,17 9,0 19,0 28,0 10,0 19,0 28,0 9,0 19,0 28,0 9,0 19,0 28,0 7,0 13,2 16,6 4,4 6,9 6,15zm115 265c0,9 -4,18 -10,25 -7,6 -16,10 -26,10 -10,0 -18,-4 -25,-10 -7,-7 -11,-16 -11,-25 0,-10 4,-19 11,-26 7,-7 15,-10 25,-10 10,0 19,3 26,10 6,7 10,16 10,26zm530 -92c-14,40 -39,72 -73,97 -35,26 -73,38 -114,38 -5,0 -11,0 -16,0 -5,-1 -10,-1 -14,-2 -5,-1 -10,-2 -15,-3 -6,-2 -11,-3 -16,-5 -39,-14 -69,-38 -90,-73 -21,-34 -31,-71 -31,-110 0,-13 1,-25 3,-37 2,-12 5,-24 10,-35 14,-40 39,-73 73,-98 35,-26 73,-38 114,-38 5,0 10,0 15,0 5,1 11,1 16,2 4,1 9,2 14,3 5,2 10,3 15,5 40,15 70,39 90,74 21,34 31,71 31,111 0,4 0,8 0,12 0,3 -1,7 -1,11 -1,9 -2,17 -4,25 -1,7 -4,15 -7,23zm-70 -65c0,-7 -1,-15 -2,-23 -1,-8 -2,-16 -4,-25 -6,-26 -18,-49 -35,-71 -17,-21 -39,-32 -67,-32 -28,0 -51,11 -67,32 -17,22 -29,45 -36,71 -2,9 -3,17 -4,25 -1,8 -2,16 -2,23 0,7 1,15 2,23 1,8 2,16 4,24 7,26 19,50 36,71 16,22 39,33 67,33 28,0 50,-11 67,-33 17,-21 29,-45 35,-71 2,-8 3,-16 4,-24 1,-8 2,-16 2,-23zm446 183c0,53 -21,97 -64,131 -43,33 -89,56 -140,68 -14,2 -27,4 -40,6 -13,1 -26,2 -38,2 -5,0 -9,0 -12,0 -4,0 -8,0 -12,-1 -7,0 -12,-3 -16,-7 -3,-4 -5,-9 -4,-14 0,-1 0,-1 0,-2 0,0 0,-1 0,-1 0,-5 2,-10 6,-14 3,-5 8,-7 15,-7 0,0 0,0 1,0 0,0 0,0 1,0 1,0 3,0 4,1 2,0 4,0 5,0 1,0 2,0 4,0 1,0 3,0 4,0 8,0 16,0 24,-1 8,-1 16,-2 24,-4 37,-6 71,-21 102,-44 30,-24 45,-56 45,-96 -1,-24 -10,-41 -27,-52 -17,-12 -37,-20 -58,-26 -8,-2 -16,-4 -24,-5 -7,-2 -15,-3 -22,-5 -6,-1 -11,-4 -15,-9 -4,-5 -6,-10 -6,-16 0,0 0,0 0,0 0,-1 0,-1 0,-1 0,0 0,0 0,0 0,0 0,0 0,0 0,-1 0,-1 0,-2 0,0 0,-1 0,-1 1,-5 3,-10 6,-14 4,-4 8,-7 13,-9 9,-2 18,-5 26,-8 9,-3 17,-7 24,-11 17,-9 30,-21 39,-36 9,-15 13,-32 13,-52 0,-25 -9,-44 -28,-58 -18,-14 -39,-21 -63,-21 0,0 0,0 0,0 0,0 -1,0 -1,0 -1,0 -1,0 -1,0 -1,0 -1,0 -1,0 -13,1 -25,4 -37,8 -13,5 -23,12 -33,21 -1,1 -2,2 -4,3 -1,1 -2,2 -4,2 -1,1 -3,1 -4,1 -1,0 -3,1 -4,1 -4,0 -7,-1 -11,-2 -3,-2 -6,-4 -9,-6 -2,-3 -3,-5 -4,-8 -2,-3 -2,-6 -2,-9 0,-1 0,-2 0,-3 0,-1 1,-2 1,-3 1,-2 2,-4 3,-7 1,-2 3,-4 5,-5 18,-14 37,-25 59,-33 22,-8 44,-13 66,-15 3,0 6,-1 9,-1 3,0 6,0 8,0 6,0 12,1 18,1 6,1 12,2 17,3 25,4 48,14 69,29 21,14 33,35 37,62 0,1 0,2 0,3 1,1 1,2 1,3 0,1 0,3 0,4 0,1 0,2 0,3 0,26 -9,51 -26,74 -16,23 -35,42 -56,57 1,1 3,2 5,3 2,1 4,1 6,2 29,14 54,30 75,47 21,17 31,42 31,74zm173 -244c0,5 -2,10 -6,14 -4,5 -9,7 -17,7l-103 0c-8,0 -14,-2 -18,-7 -3,-4 -5,-9 -5,-14 0,-6 2,-11 5,-15 4,-5 10,-7 18,-7l103 0c8,0 13,2 17,7 4,4 6,9 6,15zm395 126c-14,40 -38,72 -73,97 -35,26 -73,38 -114,38 -5,0 -10,0 -15,0 -5,-1 -10,-1 -15,-2 -5,-1 -10,-2 -15,-3 -5,-2 -10,-3 -15,-5 -39,-14 -69,-38 -90,-73 -22,-34 -32,-71 -32,-110 0,-13 1,-25 3,-37 3,-12 6,-24 10,-35 15,-40 39,-73 74,-98 34,-26 72,-38 113,-38 5,0 11,0 16,0 5,1 10,1 15,2 5,1 9,2 15,3 5,2 10,3 15,5 39,15 69,39 90,74 20,34 31,71 31,111 0,4 0,8 -1,12 0,3 0,7 -1,11 0,9 -1,17 -3,25 -2,7 -4,15 -8,23zm-70 -65c0,-7 0,-15 -1,-23 -1,-8 -3,-16 -5,-25 -6,-26 -18,-49 -34,-71 -17,-21 -40,-32 -68,-32 -28,0 -50,11 -67,32 -17,22 -29,45 -35,71 -2,9 -4,17 -5,25 -1,8 -1,16 -1,23 0,7 0,15 1,23 1,8 3,16 5,24 6,26 18,50 35,71 17,22 39,33 67,33 28,0 51,-11 68,-33 16,-21 28,-45 34,-71 2,-8 4,-16 5,-24 1,-8 1,-16 1,-23zm432 164c0,5 -1,10 -5,14 -4,5 -10,7 -17,7l-256 0c-8,0 -14,-2 -17,-7 -4,-4 -6,-9 -6,-14 0,-6 2,-11 6,-15 3,-5 9,-7 17,-7l89 0 0 -258c-13,2 -25,3 -37,5 -12,1 -25,1 -37,1 -5,0 -10,0 -15,0 -5,0 -10,-1 -15,-1 -8,-1 -13,-3 -16,-8 -3,-4 -5,-9 -5,-14 0,-1 0,-1 0,-1 0,-1 0,-1 0,-2 0,-4 2,-8 6,-12 4,-4 9,-6 15,-6 1,0 2,0 2,0 1,0 1,0 1,0 5,1 10,1 14,1 5,0 10,0 15,0 10,0 20,-1 31,-1 11,-1 22,-3 32,-5 11,-2 22,-4 32,-6 11,-3 22,-6 33,-10 1,0 2,0 3,0 1,0 2,0 3,0 6,0 11,2 15,6 5,4 7,9 7,15l0 296 83 0c7,0 13,2 17,7 4,4 5,9 5,15zm-5871 -44c1,2 1,3 2,5 0,2 0,4 0,6 0,0 0,1 0,2 0,0 0,1 -1,2 0,3 -1,5 -3,8 -3,2 -5,5 -9,7l-83 41c-1,0 -2,0 -3,1 -1,0 -2,1 -3,1 -1,0 -2,1 -3,1 -2,0 -3,0 -4,0 -1,0 -3,0 -4,-1 -2,0 -3,-1 -5,-2 -2,-1 -4,-4 -6,-7 -2,-3 -3,-7 -3,-11l0 -12c-10,8 -21,15 -34,21 -12,6 -26,9 -39,11 -3,1 -6,1 -8,2 -3,0 -6,0 -9,0 -37,0 -71,-11 -100,-33 -29,-21 -44,-53 -45,-94l0 -144 -16 9c-2,0 -4,1 -6,1 -1,1 -3,1 -5,1 -4,0 -8,-1 -11,-3 -4,-2 -6,-5 -8,-9 0,-1 -1,-3 -1,-5 -1,-1 -1,-3 -1,-5 0,-1 0,-2 0,-2 0,-1 0,-2 1,-2 0,-3 1,-6 4,-9 2,-2 4,-4 8,-7l116 -58c1,0 2,-1 3,-1 1,0 2,0 3,0 4,0 8,1 11,3 4,3 6,5 9,9 1,2 1,4 1,6 1,2 1,3 1,6 0,3 -1,6 -2,9 -2,4 -5,6 -8,7 -7,4 -13,9 -17,16 -5,8 -7,15 -8,23 -1,1 -1,2 -1,3 0,1 0,2 0,4l0 155c0,20 6,38 19,53 13,16 30,24 50,24 2,0 4,0 5,0 2,0 4,0 5,-1 21,-2 40,-10 57,-24 17,-14 26,-32 26,-54l0 -153 -17 8c-2,1 -4,2 -5,2 -2,1 -4,1 -5,1 -5,0 -8,-1 -12,-3 -3,-3 -5,-6 -7,-9 0,-2 -1,-3 -2,-5 -1,-2 -1,-4 -1,-6 1,-4 2,-7 4,-10 2,-4 5,-6 9,-8l116 -59c0,0 1,0 2,0 0,0 1,0 1,0 1,-1 2,-1 2,-1 1,0 2,0 2,0 4,0 8,1 11,3 4,2 6,5 8,9 1,1 1,1 2,2 0,2 0,2 0,3 0,1 1,2 1,2 0,1 0,2 0,3 0,4 -1,7 -3,10 -1,4 -4,6 -7,9 -8,4 -15,10 -19,19 -5,8 -7,16 -7,26l-1 206 23 -11c2,-1 4,-2 6,-2 1,-1 3,-1 5,-1 5,0 8,2 12,4 3,2 5,5 7,8zm455 44c0,5 -2,10 -6,14 -3,5 -9,7 -17,7l-156 0c-8,0 -14,-2 -18,-6 -5,-4 -7,-9 -8,-14 0,0 0,-1 0,-1 0,0 0,-1 0,-1 0,-6 2,-11 6,-15 4,-4 10,-7 18,-7l27 0 -78 -106 -60 52 0 55 38 0c8,0 14,2 18,7 4,4 6,9 6,15 0,5 -2,10 -6,14 -4,5 -10,7 -18,7l-142 0c-8,0 -14,-2 -18,-7 -4,-4 -6,-9 -6,-14 0,-6 2,-11 6,-15 4,-5 10,-7 18,-7l32 0 0 -392 -17 9c-2,1 -4,2 -6,2 -2,1 -3,1 -5,1 -5,0 -8,-1 -12,-4 -3,-2 -5,-5 -7,-8 0,-1 -1,-2 -1,-3 0,-1 -1,-2 -1,-3 0,0 0,-1 0,-2 0,-1 0,-2 0,-2 0,-4 1,-8 3,-12 2,-3 5,-6 10,-8l115 -58c2,-1 3,-1 5,-2 2,0 3,0 4,0 4,0 8,1 11,3 3,2 6,5 8,9 0,0 1,1 1,2 0,1 1,2 1,2 0,1 0,2 0,3 0,1 0,1 0,2 0,4 -1,8 -2,11 -2,4 -5,7 -8,9 -8,4 -14,10 -20,18 -5,9 -7,18 -7,28l0 283 134 -117 -44 0c-8,0 -13,-2 -17,-7 -4,-4 -6,-9 -6,-14 0,-6 2,-11 6,-15 4,-4 9,-6 17,-6l158 0c7,0 13,2 17,6 4,4 6,9 6,15 0,5 -2,10 -6,14 -4,5 -10,7 -17,7l-49 0 -86 75 111 151c1,1 1,1 1,1 0,1 1,1 1,1l43 0c8,1 14,3 17,8 4,4 6,9 6,15zm351 -45c-1,1 -1,2 -2,3 0,1 -1,3 -1,4 -4,6 -7,12 -10,19 -3,6 -7,12 -11,18 -7,8 -15,14 -23,19 -9,5 -19,7 -30,7 -13,0 -24,-3 -35,-8 -10,-6 -18,-14 -24,-25 -13,10 -27,17 -43,23 -16,6 -32,10 -49,11 -1,0 -3,0 -4,0 -2,0 -3,0 -5,0 -2,0 -4,0 -6,0 -1,0 -3,-1 -5,-1 -20,-2 -37,-8 -54,-19 -16,-11 -24,-28 -24,-48 0,-28 10,-49 29,-64 20,-15 42,-27 66,-36 2,-1 4,-2 7,-3 2,0 4,-1 7,-2 13,-4 26,-8 39,-11 13,-3 25,-6 35,-8l0 -50c0,-9 -1,-16 -5,-22 -3,-6 -9,-10 -18,-11 -1,-1 -3,-1 -4,-1 -2,0 -3,0 -5,0 -2,0 -4,0 -6,1 -2,0 -4,0 -6,0 -13,2 -26,8 -39,17 -12,9 -22,19 -30,29 -2,2 -3,4 -5,5 -2,2 -3,3 -5,4 -1,1 -3,2 -5,2 -2,1 -3,1 -5,1 -2,0 -4,0 -5,-1 -2,-1 -3,-1 -5,-2 -3,-2 -6,-5 -8,-8 -2,-3 -3,-7 -3,-11 0,-2 1,-4 1,-6 1,-2 1,-4 2,-6 12,-22 28,-40 48,-54 20,-14 42,-22 67,-24 1,0 2,0 3,0 1,0 3,-1 4,-1 1,0 2,0 4,0 1,0 2,0 3,0 26,0 48,6 67,17 19,12 29,32 29,61l0 186c0,2 0,4 1,5 1,1 3,2 5,3 0,0 1,0 1,0 0,0 1,0 1,0 3,0 5,-1 7,-2 1,-2 3,-4 5,-6 1,-2 3,-5 4,-7 1,-3 3,-5 4,-8 1,-2 2,-4 4,-7 1,-2 3,-4 4,-6 2,-3 5,-5 7,-7 2,-1 5,-2 8,-2 1,0 2,0 2,0 1,0 2,0 3,1 0,0 1,0 1,0 1,0 2,1 2,1 4,2 7,4 9,8 2,3 4,7 4,12 0,1 -1,3 -1,4 -1,2 -1,4 -2,6zm-143 -17l0 -59c-5,1 -10,3 -16,4 -6,2 -12,4 -18,6 -19,6 -35,14 -51,23 -15,9 -23,22 -23,37 0,1 0,1 0,1 0,0 0,1 0,2 1,9 6,15 13,20 7,4 15,6 23,6 1,0 1,0 1,0 1,0 1,0 2,0 0,0 0,0 0,0 0,0 1,0 1,0 3,0 5,0 8,-1 2,-1 5,-1 7,-2 11,-3 21,-9 31,-15 9,-7 17,-14 22,-22zm594 62c0,5 -2,10 -6,14 -3,5 -9,7 -17,7l-156 0c-8,0 -14,-2 -18,-6 -5,-4 -8,-9 -8,-14 0,0 0,-1 0,-1 0,0 0,-1 0,-1 0,-6 2,-11 6,-15 4,-4 10,-7 18,-7l27 0 -78 -106 -60 52 0 55 38 0c8,0 14,2 18,7 4,4 6,9 6,15 0,5 -2,10 -6,14 -4,5 -10,7 -18,7l-142 0c-8,0 -14,-2 -18,-7 -4,-4 -6,-9 -6,-14 0,-6 2,-11 6,-15 4,-5 10,-7 18,-7l32 0 0 -392 -17 9c-2,1 -4,2 -6,2 -2,1 -3,1 -6,1 -4,0 -7,-1 -11,-4 -3,-2 -5,-5 -7,-8 0,-1 -1,-2 -1,-3 0,-1 -1,-2 -1,-3 0,0 0,-1 0,-2 0,-1 0,-2 0,-2 0,-4 1,-8 3,-12 2,-3 5,-6 10,-8l115 -58c2,-1 3,-1 5,-2 2,0 3,0 4,0 4,0 8,1 11,3 3,2 6,5 8,9 0,0 1,1 1,2 0,1 0,2 0,2 1,1 1,2 1,3 0,1 0,1 0,2 0,4 -1,8 -2,11 -2,4 -5,7 -8,9 -8,4 -14,10 -20,18 -5,9 -7,18 -7,28l0 283 134 -117 -44 0c-8,0 -13,-2 -17,-7 -4,-4 -6,-9 -6,-14 0,-6 2,-11 6,-15 4,-4 9,-6 17,-6l158 0c7,0 13,2 17,6 4,4 6,9 6,15 0,5 -2,10 -6,14 -4,5 -10,7 -17,7l-49 0 -86 75 111 151c0,1 1,1 1,1 0,1 0,1 0,1l44 0c8,1 14,3 17,8 4,4 6,9 6,15zm351 -45c-1,1 -1,2 -2,3 -1,1 -1,3 -2,4 -3,6 -6,12 -9,19 -3,6 -7,12 -11,18 -7,8 -15,14 -24,19 -8,5 -18,7 -29,7 -13,0 -24,-3 -35,-8 -10,-6 -18,-14 -24,-25 -13,10 -27,17 -43,23 -16,6 -32,10 -49,11 -1,0 -3,0 -4,0 -2,0 -3,0 -5,0 -2,0 -4,0 -6,0 -1,0 -3,-1 -5,-1 -20,-2 -38,-8 -54,-19 -16,-11 -24,-28 -24,-48 0,-28 10,-49 29,-64 20,-15 42,-27 66,-36 2,-1 4,-2 7,-3 2,0 4,-1 7,-2 13,-4 26,-8 39,-11 13,-3 25,-6 35,-8l0 -50c0,-9 -1,-16 -5,-22 -3,-6 -9,-10 -18,-11 -1,-1 -3,-1 -4,-1 -2,0 -3,0 -5,0 -2,0 -4,0 -6,1 -2,0 -4,0 -6,0 -13,2 -26,8 -39,17 -12,9 -22,19 -30,29 -2,2 -3,4 -5,5 -2,2 -3,3 -5,4 -2,1 -3,2 -5,2 -2,1 -3,1 -5,1 -2,0 -4,0 -5,-1 -2,-1 -3,-1 -5,-2 -3,-2 -6,-5 -8,-8 -2,-3 -3,-7 -3,-11 0,-2 1,-4 1,-6 1,-2 1,-4 2,-6 12,-22 28,-40 48,-54 20,-14 42,-22 66,-24 1,0 3,0 4,0 1,0 3,-1 4,-1 1,0 2,0 4,0 1,0 2,0 3,0 26,0 48,6 67,17 19,12 29,32 29,61l0 186c0,2 0,4 1,5 1,1 3,2 5,3 0,0 1,0 1,0 0,0 1,0 1,0 3,0 5,-1 7,-2 1,-2 3,-4 5,-6 1,-2 3,-5 4,-7 1,-3 2,-5 4,-8 1,-2 2,-4 4,-7 1,-2 3,-4 4,-6 2,-3 5,-5 7,-7 2,-1 5,-2 8,-2 1,0 2,0 2,0 1,0 2,0 3,1 0,0 1,0 1,0 1,0 2,1 2,1 4,2 7,4 9,8 2,3 4,7 4,12 0,1 -1,3 -1,4 -1,2 -1,4 -2,6zm-143 -17l0 -59c-5,1 -10,3 -16,4 -6,2 -12,4 -18,6 -19,6 -35,14 -51,23 -15,9 -23,22 -23,37 0,1 0,1 0,1 0,0 0,1 0,2 1,9 6,15 13,20 7,4 15,6 23,6 1,0 1,0 1,0 1,0 1,0 2,0 0,0 0,0 0,0 0,0 1,0 1,0 3,0 5,0 8,-1 2,-1 5,-1 7,-2 11,-3 21,-9 31,-15 9,-7 17,-14 22,-22zm478 -176l-45 45c-2,2 -4,4 -7,5 -3,1 -6,1 -9,1 -2,0 -5,-1 -7,-1 -3,-1 -5,-3 -7,-5l-27 -27c-1,-1 -2,-2 -4,-2 -1,-1 -2,-1 -4,-1 -2,0 -4,0 -6,1 -2,1 -4,3 -5,4l-58 58 0 138 64 0c7,0 13,2 16,7 4,4 6,9 6,15 0,5 -2,10 -6,14 -3,5 -9,7 -16,7l-168 0c-8,0 -14,-2 -18,-7 -3,-4 -5,-9 -5,-14 0,-6 2,-11 5,-15 4,-5 10,-7 18,-7l32 0 0 -204 -17 8c-2,1 -4,2 -6,2 -2,1 -3,1 -5,1 -4,0 -8,-1 -11,-3 -3,-3 -6,-5 -7,-9 -1,-2 -1,-3 -2,-5 -1,-2 -1,-4 -1,-6 0,-4 2,-7 4,-11 2,-3 5,-6 9,-8l115 -57c1,-1 3,-2 4,-2 2,0 3,0 5,0 4,0 7,1 11,3 3,2 6,5 7,9 1,1 2,3 2,5 0,2 0,3 0,6 0,3 0,7 -2,10 -1,3 -4,6 -8,8 -4,2 -7,4 -10,8 -3,3 -6,6 -9,10 -2,4 -3,8 -5,13 -1,4 -2,9 -2,14l0 9c7,-6 14,-13 20,-20 6,-6 13,-13 19,-20 7,-6 14,-12 20,-19 7,-6 14,-13 20,-20 5,-5 11,-9 17,-11 6,-3 12,-4 18,-3 6,0 12,1 18,3 5,3 11,6 16,11l31 32c2,1 3,3 4,5 1,2 1,4 2,6 0,1 0,1 0,2 0,1 0,2 0,2 0,3 -1,6 -1,8 -1,3 -2,5 -5,7z"/>
 </g>
</svg>
