<?xml version="1.0" encoding="UTF-8"?>
<!DOCTYPE svg PUBLIC "-//W3C//DTD SVG 1.1//EN" "http://www.w3.org/Graphics/SVG/1.1/DTD/svg11.dtd">
<!-- Creator: CorelDRAW X7 -->
<svg xmlns="http://www.w3.org/2000/svg" xml:space="preserve" width="1.81413in" height="1.21828in" version="1.1" style="shape-rendering:geometricPrecision; text-rendering:geometricPrecision; image-rendering:optimizeQuality; fill-rule:evenodd; clip-rule:evenodd"
viewBox="0 0 527 354"
 xmlns:xlink="http://www.w3.org/1999/xlink">
 <defs>
  <style type="text/css">
   <![CDATA[
    .fil0 {fill:#BDBFC1}
    .fil1 {fill:#D2D3D5;fill-rule:nonzero}
    .fil2 {fill:#A9ABAE;fill-rule:nonzero}
   ]]>
  </style>
 </defs>
 <g id="Layer_x0020_1">
  <metadata id="CorelCorpID_0Corel-Layer"/>
  <path class="fil0" d="M442 31c0,2 -1,5 -3,5 -2,1 -4,0 -5,-1 0,0 -1,0 -2,1 -1,1 -2,2 -4,2 -2,1 -3,2 -5,2 0,0 0,0 -1,0l-2 9 -2 6c1,0 2,-1 4,-2 1,-1 3,-2 4,-2 1,-1 2,-1 2,-1 0,0 -1,1 -2,2 -1,1 -2,2 -3,3 -2,1 -3,1 -5,2 0,0 0,0 0,0l-2 7 0 0c0,0 0,0 0,0 1,0 2,0 2,0 1,1 1,1 1,1 0,-2 1,-4 3,-4 2,-1 5,0 5,2 1,3 0,5 -2,6 -3,0 -5,-1 -6,-3 0,0 0,-1 0,-1 0,0 0,0 -1,1 0,0 -1,0 -1,0 -1,0 -1,0 -2,0l-1 6c-1,2 -2,5 -3,7 -1,5 -2,9 -4,13 -1,4 -2,7 -2,9 -1,2 -2,4 -2,4 0,0 1,-2 1,-4 1,-2 1,-6 2,-9 1,-4 2,-9 3,-14 1,-2 1,-5 2,-7 0,0 0,-1 0,-1 -1,-1 -2,-4 -2,-6 0,-2 -1,-4 -1,-6 0,-2 0,-3 0,-3 0,0 1,1 1,3 1,1 2,4 2,6 0,1 1,3 1,4 0,-1 1,-3 1,-5 1,-4 3,-9 4,-14 0,0 0,0 0,0 -1,-1 -1,-3 -2,-5 0,-2 0,-4 0,-5 0,-1 0,-2 0,-2 -3,1 -5,-1 -6,-3 -1,-3 0,-5 3,-6 2,-1 5,1 6,3 0,2 -1,5 -3,6 0,0 0,1 1,2 0,1 1,3 1,5 1,1 1,2 1,3 1,-4 3,-8 4,-11 1,-4 3,-7 3,-9 1,-2 2,-3 2,-3 -2,-1 -3,-2 -4,-3 0,-3 1,-5 3,-6 2,0 5,1 5,3 1,2 0,5 -2,5 -1,1 -2,1 -2,1l-3 12 -1 3c0,0 0,0 0,0 1,-1 3,-2 4,-2 2,-1 3,-2 5,-2 1,0 2,0 2,0 0,-1 -1,-1 -1,-1 0,-3 1,-5 3,-6 2,-1 5,1 6,3zm-356 9c-1,2 0,5 3,6 2,0 4,-1 5,-2 0,0 0,1 1,1 2,1 3,2 5,3 1,0 3,1 4,1 0,0 1,1 1,1l3 8 1 7c-1,-1 -2,-2 -3,-3 -1,-1 -3,-2 -4,-2 -1,0 -2,-1 -2,-1 0,0 0,1 1,2 1,1 2,2 4,3 1,1 3,2 4,2 0,0 1,0 1,0l2 7 0 1c0,-1 -1,-1 -1,-1 -1,0 -1,0 -2,1 0,0 -1,0 -1,0 0,-2 -1,-3 -3,-4 -2,-1 -4,0 -5,3 -1,2 1,4 3,5 2,1 4,0 5,-3 0,0 0,0 0,-1 0,0 1,1 1,1 1,0 1,0 2,0 0,0 1,0 1,0l2 6c1,2 1,5 2,7 1,3 2,6 3,9l-1 0 -33 0 0 95 44 0c6,0 12,-1 17,-2 6,-2 11,-5 15,-8 5,-5 9,-10 12,-17 3,-6 5,-13 5,-20 0,-8 -2,-15 -6,-22 -2,-3 -4,-6 -6,-9 1,0 2,1 3,1 10,0 19,-3 25,-9 7,-6 10,-14 10,-23 0,-5 -1,-8 -2,-12 -2,-3 -4,-6 -8,-9 -2,-1 -8,-5 -17,-9l-2 -1c-6,-3 -9,-5 -11,-7 -2,-2 -3,-5 -3,-7 0,-4 1,-6 4,-8 2,-2 5,-3 8,-3 4,0 8,1 11,3 2,2 5,6 7,10l11 -7c-3,-6 -7,-11 -13,-14 -5,-3 -11,-5 -18,-5 -10,0 -18,3 -24,9 -6,6 -9,13 -9,23 0,4 0,7 2,11 1,3 4,6 8,9 1,1 7,5 15,9l4 2c4,2 7,5 9,7 1,2 2,4 2,7 0,3 -1,6 -3,8 -2,2 -5,3 -9,3 -1,0 -2,0 -3,0l-20 18c4,6 6,14 6,25 0,11 -3,19 -7,25 -5,6 -12,9 -21,9l-9 0 0 -69 9 0c1,0 1,0 2,0l0 0c1,3 1,4 1,4 0,0 0,-2 -1,-4l0 0c5,0 9,1 12,3l19 -17c-2,-2 -4,-5 -5,-8l-13 8c0,0 1,1 1,2 -4,-1 -10,-1 -16,-1 -1,-3 -2,-6 -2,-9 -1,-3 -2,-5 -2,-8 0,0 0,0 0,-1 0,-1 1,-3 1,-6 1,-2 1,-4 1,-6 0,-2 0,-3 0,-3 0,0 0,1 -1,3 0,2 -1,4 -2,6 0,2 0,3 0,4 -1,-1 -1,-3 -1,-4 -2,-5 -3,-10 -5,-14 0,-1 0,-1 1,-1 0,-1 1,-3 1,-5 1,-1 1,-3 1,-5 0,-1 0,-2 0,-2 2,1 5,-1 6,-3 0,-2 -1,-5 -3,-6 -3,0 -5,1 -6,3 -1,3 1,5 3,6 0,0 -1,1 -1,2 -1,1 -1,3 -2,5 0,1 0,2 0,3 -2,-4 -3,-8 -4,-11 -2,-4 -3,-7 -4,-9 -1,-2 -1,-3 -1,-3 1,0 3,-2 3,-3 1,-2 0,-5 -2,-5 -3,-1 -5,0 -6,2 0,3 1,5 3,6 1,0 1,0 2,0l3 12 1 4c0,-1 0,-1 0,-1 -2,-1 -3,-1 -5,-2 -1,-1 -3,-1 -4,-2 -1,0 -2,0 -2,0 0,-1 0,-1 0,-1 1,-3 0,-5 -3,-6 -2,0 -4,1 -5,3zm6 16c-1,2 0,4 2,5 3,1 5,0 6,-3 1,-2 -1,-4 -3,-5 -2,-1 -5,1 -5,3zm25 3c-1,2 0,5 2,5 2,1 4,0 5,-2 1,-2 0,-4 -2,-5 -2,-1 -5,0 -5,2zm11 -59c0,0 -3,10 -9,11 0,0 7,4 9,11 2,-7 9,-11 9,-11 -6,-1 -9,-11 -9,-11zm131 226c-1,0 -2,0 -3,1 -1,-1 -2,-1 -3,-1 -1,-1 -1,-1 -1,-2 0,0 0,-1 1,-2 1,0 2,-1 3,-2 1,1 2,2 3,2 0,1 0,2 0,2 0,1 0,1 0,2zm160 -19c0,0 -5,0 -12,0 -8,0 -18,0 -29,0 -2,0 -5,1 -7,1 -3,0 -5,0 -8,0 -2,0 -4,0 -7,0 -2,0 -4,0 -6,0 -2,0 -3,0 -5,0 -2,0 -3,0 -4,0 -1,1 -2,1 -2,1 -1,0 -1,0 -1,0l0 0c0,0 0,0 0,0 1,-1 2,-1 3,-1 1,-1 2,-1 4,-1 1,0 3,-1 5,-1 2,0 4,0 6,0 3,0 5,0 7,0 3,0 5,0 8,0 2,0 5,0 7,0 11,0 21,0 29,0 7,0 12,0 12,0l0 1zm-8 4c0,0 -5,0 -13,0 -8,0 -18,0 -28,0 -3,1 -5,1 -8,1 -2,0 -5,0 -7,0 -3,0 -5,0 -7,0 -2,0 -5,0 -6,0 -2,0 -4,0 -6,0 -1,0 -3,0 -4,0 -1,1 -2,1 -2,1 -1,0 -1,0 -1,0l0 0c0,0 0,0 1,0 0,-1 1,-1 2,-1 1,-1 3,-1 4,-1 2,0 4,-1 5,-1 2,0 4,0 7,0 2,0 4,0 7,0 2,0 5,0 7,0 3,0 5,0 8,0 10,0 20,0 28,0 8,0 13,0 13,0l0 1zm-319 -5c0,0 5,0 13,0 8,0 18,0 28,0 3,0 5,0 8,0 2,0 5,0 7,0 3,0 5,0 7,0 2,0 4,0 6,0 2,0 4,1 6,1 1,0 3,0 4,1 1,0 2,0 2,1 1,0 1,0 1,0l0 0c0,0 0,0 -1,0 -1,0 -1,0 -3,-1 -1,0 -2,0 -3,0 -2,0 -4,0 -6,0 -2,0 -4,0 -6,0 -2,0 -4,0 -7,0 -2,0 -5,0 -7,0 -3,0 -5,-1 -8,-1 -10,0 -20,0 -28,0 -8,0 -13,0 -13,0l0 -1zm9 4c0,0 5,0 13,0 7,0 18,0 28,0 2,0 5,0 7,0 3,0 5,0 8,0 2,0 5,0 7,0 2,0 4,0 6,0 2,0 4,1 5,1 2,0 3,0 4,1 1,0 2,0 3,1 0,0 1,0 1,0l0 0c0,0 -1,0 -1,0 -1,0 -2,0 -3,-1 -1,0 -2,0 -4,0 -1,0 -3,0 -5,0 -2,0 -4,0 -6,0 -2,0 -5,0 -7,0 -3,0 -5,0 -8,0 -2,0 -5,0 -7,-1 -10,0 -21,0 -28,0 -8,0 -13,0 -13,0l0 -1zm207 12c0,-1 0,-1 0,-2 0,1 -1,1 -1,1 0,0 0,0 1,1zm-55 4c-1,0 -3,0 -4,-1 -2,-1 -4,-2 -6,-3 -1,-1 -3,-3 -5,-5 2,0 3,-1 5,0 2,0 4,0 6,0 0,1 0,2 0,3 -1,1 -1,2 -1,2 0,0 0,0 0,0 0,0 0,0 0,0 1,-1 1,-1 1,-2 0,0 1,-1 1,-2 2,0 4,1 5,2 -1,1 -2,1 -2,2 -1,1 -2,3 0,4 0,0 0,0 0,0zm3 -6c2,-1 4,-2 5,-2 1,1 1,2 1,2 1,1 1,1 1,2 0,0 0,0 0,0 0,0 0,0 0,0 0,0 0,-1 0,-2 0,-1 -1,-2 -1,-3 2,0 4,0 6,0 2,-1 4,0 5,0 -1,2 -3,4 -5,5 -2,1 -4,2 -6,3 -1,1 -2,1 -3,1 0,0 0,0 0,0 1,-1 1,-3 0,-4 -1,-1 -1,-1 -3,-2zm13 -6c-2,1 -5,1 -7,2 -1,-2 0,-3 0,-5 0,-2 1,-3 2,-4 2,-2 4,-4 6,-4 2,-1 4,0 5,1 2,1 2,3 2,5 0,2 0,4 -2,6 -2,-1 -4,-1 -6,-1zm26 5c0,0 0,-1 0,-1 1,-1 1,-2 2,-3 1,0 2,0 3,1 0,0 0,0 0,1 0,1 -1,2 -1,3 -1,0 -3,0 -4,-1zm5 1c0,-1 0,-2 0,-4l0 0c0,0 0,0 0,0 1,1 2,2 3,4l0 0c-1,0 -2,0 -3,0zm0 -6c0,-1 -1,-2 -1,-2 0,-1 1,-1 1,-1 1,-1 2,-2 3,-2 2,-1 4,-1 5,0 2,0 3,1 3,3 1,1 1,2 -1,4 -1,1 -2,2 -4,3 0,0 0,0 -1,0 0,0 0,0 0,0 0,0 0,0 0,-1 0,0 0,0 0,0 -1,-1 -2,-2 -3,-3 0,0 -1,-1 -2,-1zm-1 -1c0,0 -1,0 -1,0 0,0 0,0 0,-1 0,1 1,1 1,1zm-1 -1c0,0 -1,1 -1,1 -1,0 -3,0 -4,0 -1,0 -2,0 -3,0 -1,1 -1,1 -1,1 -1,1 -1,1 -1,2 1,1 2,2 5,3 0,0 1,1 1,1 0,0 -1,0 -1,1 -1,1 -3,2 -4,3 -2,0 -4,0 -5,-1 -1,-1 -2,-2 -2,-4 0,-1 1,-3 2,-4 1,-1 2,-2 3,-3 2,-1 3,-1 4,-1 2,-1 3,-1 4,0 1,0 2,0 2,1 1,0 1,0 1,0zm-4 7c0,0 0,0 0,0 -3,-1 -5,-2 -5,-3 0,-1 0,-1 0,-1 0,-1 1,-1 1,-1 1,0 2,0 3,0 1,0 2,0 3,0 -1,2 -1,4 -2,5zm18 18l-1 0c-1,0 -1,0 -2,0 -1,0 -2,0 -3,-1 -2,0 -3,-1 -4,-2 -1,-1 -2,-2 -2,-3 0,-1 0,-2 0,-2 0,-1 1,-1 1,-1 1,0 2,0 3,0 1,0 2,1 3,1 1,1 2,2 3,3 0,1 1,3 1,4l1 1zm-56 -10c0,0 1,0 1,0 2,0 5,-1 8,-2 2,-1 4,-2 5,-3 2,-1 4,-3 5,-4 0,0 1,0 1,1 0,0 1,0 1,0 1,1 1,2 1,2 1,1 0,1 0,2 -1,1 -2,2 -3,2 -2,0 -4,1 -8,1 0,0 0,0 -1,1 -1,0 -2,0 -3,0 0,0 0,0 0,0 0,0 0,0 1,0 0,1 0,1 1,1 0,0 1,0 1,0 1,0 3,0 5,1 2,1 3,1 5,1 4,1 8,1 12,0 4,-1 7,-3 9,-6 1,-1 2,-2 2,-3 1,0 3,0 4,0 0,0 0,1 -1,1 0,0 0,1 -1,1 0,0 0,0 -1,0 0,0 0,0 0,0 0,0 -1,0 -1,0 0,1 0,1 0,1 0,0 0,0 0,0 1,0 1,0 1,0 0,0 1,0 1,0 1,-1 1,-1 1,-1 1,0 2,0 3,0 1,0 2,0 3,1 2,1 3,1 4,3 1,1 2,2 3,4 0,1 0,2 0,3 -1,1 -2,2 -3,2 0,0 0,0 0,0 0,0 0,-1 0,-1 -1,-3 -2,-5 -4,-7 -3,-1 -5,-2 -7,-1 0,0 -1,1 -2,1 0,1 0,2 0,3 1,2 3,4 5,5 2,1 5,2 8,1 0,1 0,2 0,3 0,0 0,1 0,1 0,0 0,0 0,0 0,0 0,0 0,0 1,0 1,0 1,-1 0,-1 0,-2 -1,-3l1 0c2,-1 3,-2 4,-3 1,-1 1,-3 0,-5 -1,-2 -2,-4 -5,-5 -1,-1 -2,-1 -4,-1 3,-1 25,0 24,-7 0,-4 -12,0 -8,2 0,-1 1,-2 2,-2 1,-1 2,-1 3,-1 1,0 1,0 2,0 0,0 0,0 0,1 -1,1 -3,2 -6,3 -5,2 -11,2 -15,3 1,0 3,-1 4,-2 2,0 3,-1 5,-2 1,-1 4,-2 7,-5 6,-4 11,-7 23,-8 -9,-4 -18,3 -22,6 -3,1 -7,0 -8,-1 0,0 0,0 0,0 1,0 1,-1 0,-1 0,-1 -1,-1 -1,0 0,0 0,1 0,1 1,3 7,1 8,1 -5,4 -9,7 -11,8 -2,2 -5,3 -8,3 0,0 0,0 0,0 -1,0 -3,0 -4,0 1,0 1,0 1,-1 0,0 0,0 0,0 1,-1 1,-1 2,-1 0,0 1,0 1,0 2,-1 4,-2 5,-3 1,-2 1,-3 1,-5 -1,-2 -2,-3 -4,-4 -2,0 -4,0 -6,0 -1,1 -2,1 -3,2 -1,0 -1,1 -2,1 0,0 0,0 0,-1 -2,-1 -5,-2 -8,-1 -2,0 -5,2 -7,4 -1,2 -2,4 -2,6 0,1 1,3 2,4 2,1 3,2 5,1 2,0 4,-1 6,-3 0,0 0,-1 1,-1 1,0 2,0 4,1 -1,0 -1,1 -2,2 -2,3 -6,5 -10,5 -4,1 -10,0 -18,-1 3,0 5,-1 6,-2 2,0 3,-1 4,-2 1,-1 1,-2 1,-4 0,-1 -1,-2 -2,-3 0,0 0,0 -1,0 0,0 0,0 0,0 2,-3 2,-5 2,-7 0,-2 -1,-4 -2,-5 -2,-2 -4,-2 -7,-2 -2,1 -4,2 -6,4 -1,2 -2,3 -3,5 0,2 0,3 0,5 -2,1 -3,2 -5,3 0,0 0,0 0,0 0,0 0,0 -1,0 -1,-1 -3,-2 -5,-3 1,-2 1,-3 0,-5 0,-2 -1,-3 -2,-5 -2,-2 -4,-3 -7,-4 -2,0 -4,0 -6,2 -2,1 -3,3 -3,5 0,2 1,4 2,7 0,0 0,0 0,0 0,0 0,0 0,0 -2,1 -2,2 -2,3 0,2 0,3 1,4 1,1 2,2 3,2 2,1 4,2 6,2 -7,1 -13,2 -18,1 -4,0 -7,-2 -10,-5 0,-1 -1,-2 -1,-2 1,-1 3,-1 4,-1 0,0 1,1 1,1 1,2 3,3 5,3 2,1 4,0 5,-1 2,-1 2,-3 2,-4 0,-2 0,-4 -2,-6 -2,-2 -4,-4 -7,-4 -3,-1 -5,0 -7,1 0,1 -1,1 -1,1 0,0 -1,-1 -1,-1 -1,-1 -2,-1 -4,-2 -2,0 -4,0 -6,0 -1,1 -3,2 -3,4 -1,2 0,3 1,5 1,1 2,2 5,3 0,0 0,0 1,0 0,0 1,0 1,0 0,1 0,1 1,1 0,1 0,1 0,1 -1,0 -2,0 -3,0 0,0 -1,0 -1,0 -3,0 -5,-1 -8,-3 -2,-1 -6,-4 -11,-8 1,0 7,2 9,-1 0,0 0,-1 0,-1 -1,-1 -2,-1 -2,-1 -1,1 0,2 0,2 1,0 1,0 1,0 -2,1 -5,2 -8,1 -4,-3 -13,-10 -22,-6 11,0 17,3 22,8 4,2 6,4 8,5 1,1 3,2 4,2 2,1 3,2 5,2 -5,-1 -11,-1 -15,-3 -4,-1 -6,-2 -6,-3 0,-1 0,-1 0,-1 0,0 1,0 2,0 1,0 2,0 3,1 0,0 2,1 1,2 5,-2 -7,-6 -8,-2 0,7 21,6 25,7 -2,0 -3,0 -5,1 -2,1 -4,3 -5,5 0,2 0,4 1,5 0,1 2,2 4,3l0 0c0,1 0,2 0,3 0,1 0,1 0,1 0,0 0,0 0,0 0,0 0,0 0,0 0,0 0,-1 0,-2 0,0 1,-1 1,-2 3,1 5,0 8,-1 2,-1 3,-3 4,-5 0,-1 0,-2 0,-3 0,0 -1,-1 -2,-1 -2,-1 -4,0 -6,1 -2,2 -4,4 -5,7 0,0 0,0 0,1 0,0 0,0 0,0 -1,0 -2,-1 -2,-2 0,-1 0,-2 0,-3 0,-2 1,-3 2,-4 1,-2 3,-3 4,-3 1,-1 3,-1 4,-1 1,0 2,0 2,0 0,0 1,0 1,1 1,0 1,0 1,0 1,0 1,0 1,0 0,0 0,0 1,0 0,0 0,0 -1,-1 0,0 0,0 0,0 0,0 -1,0 -1,0 0,0 0,0 0,0 -1,0 -2,-1 -2,-1 0,0 0,-1 0,-1 1,0 2,0 3,0 1,1 1,2 2,3 3,3 6,5 10,6 4,1 8,1 12,0 1,0 3,0 5,-1 2,-1 3,-1 5,-1 0,0 0,0 1,0 1,0 1,0 1,-1 0,0 0,0 0,0 0,0 0,0 0,0 0,0 -1,0 -3,0 0,-1 -1,-1 -1,-1 -3,0 -6,-1 -7,-1 -2,0 -3,-1 -3,-2 -1,-1 -1,-1 -1,-2 0,-1 1,-1 2,-2 0,0 0,0 1,0 0,-1 0,-1 1,-1 1,1 3,3 4,4 2,1 4,2 6,3 3,1 5,2 7,2 1,0 1,0 2,0zm-20 -12c-1,-2 -2,-4 -2,-6 0,-2 1,-4 2,-5 2,-1 4,-2 6,-1 2,0 4,2 5,4 1,1 2,2 3,4 0,2 0,3 0,5 -3,-1 -5,-1 -7,-2 -3,0 -5,0 -7,1zm-23 5c-1,-1 -1,-2 -1,-3 0,-1 0,-1 0,-1 1,-1 2,-1 3,-1 0,1 1,2 1,3 0,0 0,1 1,1 -2,1 -3,1 -4,1zm-4 0l0 -1c0,-1 1,-2 2,-3 0,0 0,0 0,0l0 0c0,2 0,3 1,4 -1,0 -2,0 -3,0zm0 -5c-1,1 -2,2 -2,3 0,0 0,0 0,0 0,1 0,1 0,1 0,0 -1,0 -1,0 0,0 0,0 -1,0 -1,-1 -3,-2 -4,-3 -1,-2 -1,-3 -1,-4 1,-2 2,-3 3,-3 2,-1 3,-1 5,0 1,0 2,1 3,2 1,0 1,0 2,1 -1,0 -1,1 -1,2 -1,0 -2,0 -3,1zm4 -3c1,1 1,1 1,1 -1,0 -1,0 -1,0 0,0 0,0 0,-1zm1 0c1,-1 2,-1 3,-2 1,0 2,0 3,1 2,0 3,0 4,1 1,1 3,2 4,3 1,1 1,3 1,4 0,2 0,3 -1,4 -2,1 -3,1 -5,1 -2,-1 -3,-2 -5,-3 0,-1 0,-1 0,-1 0,0 0,-1 0,-1 3,-1 5,-2 5,-3 0,-1 0,-1 0,-2 0,0 -1,0 -2,-1 -1,0 -2,0 -3,0 -1,0 -2,0 -4,0 0,0 0,-1 0,-1 0,0 0,0 0,0zm1 2c2,0 3,0 4,0 1,0 2,0 2,0 1,0 1,0 1,1 1,0 1,0 1,1 -1,1 -2,2 -5,3 0,0 -1,0 -1,0 -1,-1 -1,-3 -2,-5zm-15 22c0,-1 1,-3 2,-4 1,-1 2,-2 3,-3 1,0 2,-1 3,-1 1,0 2,-1 2,0 1,0 1,0 2,1 0,0 0,1 0,2 -1,1 -1,2 -3,3 -1,1 -2,2 -3,2 -1,1 -2,1 -3,1 -1,0 -2,0 -3,0l0 0 0 -1zm171 -216l-1 0c0,0 1,0 1,0 0,0 -1,1 -1,1 0,0 1,1 1,1 0,0 0,1 0,1 0,0 0,0 0,0 0,1 0,1 0,1 1,0 1,0 1,1 0,1 1,1 2,1 0,0 1,0 1,0 0,1 0,2 0,2 -1,1 0,2 1,2 0,0 -2,-1 -2,-1 0,0 0,0 -1,0 -1,0 -1,2 -2,3 0,0 0,1 0,1 0,1 -1,1 -1,2 0,1 0,1 0,3 -1,0 -1,1 -1,1 -1,0 -2,-2 -3,-2 0,-1 0,-2 0,-3 0,0 0,0 0,0l0 -3c0,-1 0,-2 0,-2 0,-1 0,-3 -1,-3 0,0 0,0 0,0 0,0 0,0 -1,0 0,1 0,1 0,2 0,0 0,1 0,1 0,0 0,0 0,0l-1 -1c0,0 -1,-1 -1,-1 0,2 1,2 1,3 0,0 -1,0 -1,0 0,0 0,1 0,1 0,0 1,0 1,0 0,0 0,0 0,1 1,0 0,1 0,1 0,2 1,2 1,3 0,1 0,1 0,1 0,0 1,1 1,1 0,0 0,0 0,1 0,0 0,0 1,0 0,1 0,1 1,2 0,0 1,0 1,1 -1,0 -1,0 -1,0 -1,1 -1,1 -2,1 0,0 0,1 0,1 -1,1 -1,2 -1,3 1,0 1,-1 1,-1 0,1 0,1 0,1 0,1 0,1 -1,1 0,0 -1,0 -1,1 0,0 -1,2 0,2 1,0 1,-1 1,-1 0,0 0,-1 1,-1 0,0 1,0 1,1 0,0 -1,0 -1,0 0,1 -1,1 -1,1 0,1 0,2 -1,3 0,1 0,1 0,2 0,1 1,1 1,2 0,1 0,1 0,2 0,1 0,1 0,2 0,0 0,1 0,1 1,0 0,-2 1,-3 0,0 0,-1 0,-1 0,-1 0,-1 0,-2 0,0 0,0 0,1 1,0 0,1 1,2 0,0 0,1 1,1 0,0 0,0 0,0 0,-1 0,-1 0,-1 0,-1 -1,-2 -1,-3 1,0 1,-1 2,-1 0,1 0,2 0,2 0,1 0,1 0,2 0,0 0,0 0,1 1,2 0,5 1,8 0,0 0,2 0,3l0 5c0,1 0,2 0,2 0,1 0,2 0,3 0,0 1,0 1,1l-1 5c0,1 0,1 0,2l0 3c-1,5 -1,10 -2,16 0,0 0,0 0,1 0,1 0,1 0,3 0,0 0,2 0,2 0,0 1,0 1,0l23 0c0,0 1,0 2,0l17 0c0,0 -1,-1 -1,-1 0,0 0,0 0,0 -1,0 -2,0 -2,0 -2,0 -3,0 -4,-1 -1,0 -3,-1 -3,-2 -1,-1 -3,-2 -4,-3 -1,-1 -2,-2 -3,-4 0,0 0,0 0,0 -1,-2 -2,-4 -2,-5 -1,-3 -3,-7 -3,-10 -1,-1 -1,-2 -1,-4 0,0 0,-1 -1,-2l0 -4c0,-1 -1,-3 -1,-4 0,-3 -1,-6 -2,-8 0,-1 0,-1 0,-2 -1,0 -1,-1 -1,-2 -1,-2 -1,-3 -1,-6l1 -4c0,-3 0,-3 1,-5 0,-2 1,-4 1,-6 0,-2 1,-7 1,-9l-1 -2c0,-1 0,-1 -1,-2 1,1 2,2 2,2 0,1 1,1 1,2l1 4c1,1 2,7 2,8 1,1 1,1 1,2 0,1 0,2 0,3 0,1 0,2 0,2 1,0 0,1 1,1l0 4c0,1 0,2 0,3l0 3c0,1 0,2 0,3 0,0 0,1 0,1l0 4c0,1 0,1 0,2 0,1 0,5 0,6 1,0 1,1 2,1 1,-1 0,-2 1,-5 1,-2 1,-3 2,-4l0 -3c0,0 0,-2 0,-3 0,-1 1,-2 1,-4l0 0c0,-1 0,-3 0,-4 0,-1 0,-2 1,-2 0,-1 0,-1 0,-2 1,0 0,-1 0,-1 0,-2 -1,-4 -1,-6 0,-2 0,-3 -1,-4 0,-3 0,-4 -1,-6 -1,0 -1,-1 -1,-1l-1 -2c-1,0 -1,-1 -1,-1 -1,-1 -1,-2 -2,-2 0,-1 0,-1 -1,-2 0,0 0,0 0,0l-1 -1c0,0 0,0 0,-1 -1,0 -2,-1 -2,-1 0,-1 -1,-1 -1,-1 0,0 -1,-1 -1,-1 0,0 -1,0 -1,-1 -1,0 -1,0 -1,-1 0,0 0,-2 0,-2 0,0 1,0 1,-1 -1,-1 -1,-2 -1,-2 -1,-1 -1,-1 -2,-1 0,-1 0,-1 0,-1 0,0 -1,0 -1,-1 -1,0 -1,0 -1,0 -1,0 -1,0 -2,0 -1,0 -3,0 -3,0 -1,0 -1,1 -2,1 0,1 0,1 0,2 0,1 0,2 0,2 0,1 0,1 0,2zm-19 12c0,0 0,0 0,1 0,1 0,1 1,2 0,1 2,2 3,3 -1,0 -1,-1 -1,-1l-1 -1c0,-1 0,0 0,-1l1 -1c0,-1 1,-1 1,-1 0,0 0,0 1,0 0,0 0,0 0,0 1,-1 1,-2 2,-2 0,0 2,0 2,0l0 -1 -1 0c1,0 1,-1 1,-1 0,0 0,0 0,-1 -1,-1 -2,-1 -2,-1 -1,0 -1,0 -1,0 0,0 0,-1 0,-1 0,0 2,-1 2,-1 0,0 0,0 0,0 0,0 0,0 0,0l0 -1c-1,1 -1,1 -2,1 0,-1 1,-1 0,-1 0,0 -1,0 -1,0 0,1 -2,2 -2,2 -1,1 -1,3 -1,5 0,0 0,0 -1,1 -1,0 0,0 -1,0zm-10 -21c0,1 0,3 0,4 0,0 0,2 0,3 0,0 -1,0 -1,1 -1,0 0,0 -1,0 -1,1 -2,2 -4,3 0,0 0,0 0,0 -1,0 -1,0 -2,1l-1 1c-1,1 -1,3 -1,5 0,0 0,1 0,1 0,0 0,0 0,1 0,0 0,0 0,1 0,0 0,0 0,1 0,1 0,3 0,5 0,1 1,3 1,4 0,1 1,1 1,1 0,1 0,2 0,2 1,1 1,1 1,1 -1,1 -1,2 -2,4l-1 10c0,1 0,1 0,2 0,1 0,2 0,3 0,1 0,2 0,3 0,0 0,1 0,1l0 5c0,1 0,2 0,3 0,0 0,0 0,1l0 0c0,1 0,1 1,1 0,0 0,-1 0,-2 0,0 1,-1 1,-1 0,1 0,1 0,2 0,1 0,1 0,2 0,0 0,1 0,2 0,0 0,1 0,2 0,1 0,2 0,3 0,1 0,2 0,2 0,1 -1,2 -1,3l0 4c0,1 0,2 0,2l0 9c0,0 0,1 0,1 0,1 0,1 0,2 0,1 0,1 0,2 0,1 0,1 0,1 -1,0 -1,1 -1,1 0,1 1,2 1,2 2,0 4,0 6,0l2 0c0,-1 0,-1 -1,-2 0,-1 1,-3 0,-5 0,-1 0,-3 0,-5l0 -4c0,-1 0,-1 0,-2l0 -3c0,-2 0,-3 0,-4 1,-2 1,-3 1,-5l0 -6c0,0 0,-1 0,-2 0,-2 1,-3 1,-4 0,0 1,2 1,3 0,0 0,0 1,1 0,0 0,0 0,1l1 0c0,-1 0,-1 1,-2 0,1 0,2 0,3 0,1 0,1 0,2 0,0 0,1 0,1l1 8c0,0 0,1 0,1l0 16c0,1 0,1 0,1 0,1 0,2 0,3 -1,1 -1,2 -1,3 0,0 3,0 4,0 0,0 1,0 1,0l3 0c0,0 0,0 1,0 0,0 1,0 2,0l2 0c-1,0 -1,-1 -2,-1l-2 -1c0,0 -1,0 -1,0 0,0 0,0 0,0 0,-2 0,-3 0,-5 0,-1 0,-4 0,-5 0,-2 0,-3 0,-4l0 -8c0,-1 0,-2 0,-2 0,-1 0,-2 0,-3 0,-1 0,-2 0,-3 0,-2 -1,-5 -2,-8 0,-1 0,-3 0,-5 -1,-2 -1,-5 -1,-7 -1,-1 -1,-2 -1,-3 1,-1 1,-8 0,-9 0,0 0,-1 0,-1l0 -3c0,-1 0,-1 0,-2l0 -2c0,0 0,0 0,0l4 -3c0,0 -1,-1 -1,-1 -1,-2 -1,-3 -2,-5 0,-1 0,-1 0,-1 0,0 0,0 -1,0 0,-1 0,-1 0,-1 1,-1 1,-3 1,-4 0,-1 0,-1 -1,-1 0,-1 0,-1 0,-1l-2 -2c-1,-1 -1,-2 -1,-3 1,0 1,2 3,1 0,0 0,0 0,-1 0,0 0,0 0,0 0,0 0,0 0,-1l1 0 0 0 1 0c0,0 0,0 0,-1 0,0 0,1 1,1 0,-1 0,-1 0,-1 0,0 0,0 0,0 0,0 0,0 0,0 0,0 0,0 0,0 0,-1 0,-1 0,-1 0,-2 0,-2 1,-2 0,0 0,0 0,0 0,-1 0,-1 0,-1 0,-2 0,-1 0,-3 1,0 2,0 1,-2 -1,0 -1,0 -1,0 -1,-1 -4,-3 -5,-3 -1,0 -3,0 -4,1 -1,0 -3,2 -3,3zm-202 106c0,-1 -1,-1 -2,-2l18 -17 0 0c1,1 2,2 3,2l-19 17zm65 75c-5,0 -8,-1 -10,-3 -2,-2 -3,-6 -3,-11l0 -35c0,-5 1,-9 3,-11 2,-2 5,-3 10,-3l30 0 0 9 -16 0c-2,0 -4,1 -5,2 -1,1 -1,3 -1,5l0 11 19 0 0 9 -19 0 0 11c0,3 0,4 1,5 1,1 2,2 5,2l17 0 0 9 -31 0zm105 -80l0 80 -27 0c-12,0 -21,-2 -27,-8 -6,-5 -9,-12 -9,-22 0,-11 3,-19 10,-25 7,-5 16,-8 29,-8l3 0 0 -13 21 -8 0 4zm-21 26c-7,0 -12,2 -15,5 -3,4 -5,10 -5,18 0,8 2,14 5,17 3,4 8,5 15,5l0 -45zm0 -25l0 -1 0 -3 21 -8 0 4 -21 8zm0 -8l0 -15 0 -41 21 0 0 41 0 8 -21 7zm52 87c-4,0 -8,-1 -10,-3 -2,-2 -3,-6 -3,-11l0 -35c0,-5 1,-9 3,-11 2,-2 6,-3 10,-3l30 0 0 9 -16 0c-2,0 -4,1 -5,2 -1,1 -1,3 -1,5l0 11 20 0 0 9 -20 0 0 11c0,3 0,4 1,5 1,1 3,2 5,2l17 0 0 9 -31 0zm57 -41l0 41 -10 0 0 -53c0,-4 1,-7 2,-9 2,-2 5,-3 8,-3 3,0 6,1 8,2 2,2 5,5 7,9l14 23 0 -32 10 0 0 55c0,4 0,7 -1,8 -2,2 -3,3 -6,3 -2,0 -4,-1 -5,-2 -2,-2 -4,-4 -6,-8l-21 -34zm-179 -39l0 -63 27 0c9,0 15,1 20,4 4,4 6,8 6,15 0,4 -1,7 -2,10 -2,3 -5,4 -9,6l18 28 -24 0 -14 -30 0 -1c4,-1 7,-2 8,-4 2,-2 3,-5 3,-8 0,-4 -1,-7 -3,-9 -2,-2 -5,-3 -8,-3 -1,0 -2,0 -2,0 0,0 0,1 -1,1l0 54 -19 0zm70 -89c0,-3 1,-6 3,-8 2,-2 4,-3 7,-3 3,0 6,1 8,3 2,2 3,5 3,8 0,3 -1,5 -3,7 -2,2 -5,3 -8,3 -3,0 -5,-1 -7,-3 -2,-2 -3,-4 -3,-7zm147 24c1,2 -1,4 -3,5 -2,1 -5,-1 -5,-3 -1,-2 0,-4 2,-5 3,-1 5,0 6,3zm-25 3c0,2 -1,4 -3,5 -2,1 -4,0 -5,-3 0,-2 1,-4 3,-4 2,-1 4,0 5,2z"/>
  <path class="fil1" d="M43 284l0 46 -20 -46c-1,0 -3,0 -4,0 -10,0 -17,8 -17,16 0,6 3,9 9,9 -1,-1 -3,-4 -3,-9 0,-7 3,-10 8,-12l0 48 5 0 0 -39 17 39 10 0 0 -52 -5 0z"/>
  <path id="1" class="fil1" d="M67 301c-10,0 -14,11 -14,19 0,12 7,17 14,17 7,0 12,-7 12,-19 0,-1 0,-2 -1,-3 4,-2 5,-5 6,-8l-2 0c-1,1 -1,3 -4,3 -1,-5 -4,-9 -11,-9zm1 30c-3,0 -7,-2 -7,-11 0,-7 2,-15 8,-15 2,0 4,1 5,3 -2,1 -3,2 -3,4 0,2 1,4 4,4 0,0 0,1 0,1 0,9 -2,14 -7,14l0 0z"/>
  <path id="2" class="fil1" d="M124 284c-1,0 -2,0 -3,0 -11,0 -21,7 -21,16 0,6 4,9 9,9 -1,-2 -3,-4 -3,-9 0,-6 4,-11 10,-12l0 48 8 0 0 -52z"/>
  <path id="3" class="fil1" d="M131 301l0 35 7 0 0 -22c1,-5 2,-8 5,-8 4,0 4,4 4,7l0 23 7 0 0 -22c1,-6 3,-8 6,-8 2,0 4,2 4,8 0,2 0,10 0,12 0,6 2,11 8,11 3,0 8,-1 10,-13l-3 0c-1,5 -3,7 -5,7 -3,0 -3,-4 -3,-6 0,-3 0,-8 0,-12 0,-5 -1,-12 -9,-12 -2,0 -6,0 -8,6 -1,-3 -4,-6 -9,-6 -2,0 -5,0 -7,5l0 -5 -7 0z"/>
  <path id="4" class="fil1" d="M198 301l0 4c-1,-3 -4,-4 -6,-4 -10,0 -14,11 -14,20 0,11 7,16 12,16 5,0 8,-3 10,-7 0,4 2,7 6,7 4,0 8,-1 10,-13l-2 0c-1,5 -3,7 -5,7 -3,0 -4,-4 -4,-6l0 -24 -7 0zm-6 30c-4,0 -6,-3 -6,-11 0,-6 2,-15 8,-15 2,0 4,1 4,3l0 16c0,4 -3,7 -6,7z"/>
  <path id="5" class="fil1" d="M233 301l0 4c-2,-3 -5,-4 -7,-4 -10,0 -13,11 -13,19 0,11 6,15 12,15 3,0 6,-1 8,-4l0 6c-5,2 -10,5 -10,10 0,4 3,7 8,7 4,0 9,-3 9,-12l0 -5c6,-1 9,-3 10,-13l-2 0c-1,8 -4,9 -8,11l0 -34 -7 0zm-7 29c-4,0 -6,-3 -6,-11 0,-6 2,-14 8,-14 2,0 4,1 5,3l0 15c0,4 -4,7 -7,7zm3 20c-2,0 -3,-1 -3,-3 0,-3 2,-5 7,-7l0 5c0,3 -1,5 -4,5z"/>
  <path id="6" class="fil1" d="M270 310c0,-8 -5,-9 -10,-9 -10,0 -13,12 -13,19 0,12 7,17 13,17 6,0 10,-3 10,-7 0,-1 0,-1 0,-2 -2,2 -4,3 -7,3 -4,0 -8,-1 -9,-9 10,-1 16,-6 16,-12zm-16 10c0,-7 3,-16 8,-16 2,0 3,2 3,5 0,6 -4,9 -11,11z"/>
  <path id="7" class="fil1" d="M326 336l0 -52c-1,0 -4,0 -5,0 -9,0 -16,9 -20,21 -1,-1 -2,-1 -4,-1 -7,0 -13,3 -13,8 0,3 3,4 5,4 1,0 3,0 3,-2 0,-1 -1,-2 -2,-2 0,-1 0,-1 0,-1 0,-2 4,-4 10,-4 -4,9 -6,19 -6,26 0,10 6,11 10,11 -2,-3 -2,-7 -2,-12 0,-7 1,-16 4,-24 4,0 9,1 13,3l0 25 7 0zm-20 -31c3,-10 8,-18 13,-18l0 22c-3,-2 -8,-3 -13,-4z"/>
  <path id="8" class="fil1" d="M356 313c0,-10 -3,-13 -6,-13 -3,0 -4,1 -4,3 0,2 1,4 3,4 1,0 2,0 2,-1 1,2 1,5 1,8 0,8 -2,17 -8,17 -3,0 -4,-3 -4,-6l0 -24 -7 0 0 26c0,6 5,10 9,10 10,0 14,-14 14,-24l0 0z"/>
  <path id="9" class="fil1" d="M380 301l0 4c-1,-3 -4,-4 -7,-4 -9,0 -13,11 -13,20 0,11 6,16 12,16 4,0 8,-3 9,-7 1,4 3,7 7,7 3,0 8,-1 10,-13l-3 0c-1,5 -3,7 -5,7 -3,0 -3,-4 -3,-6l0 -24 -7 0zm-6 30c-4,0 -7,-3 -7,-11 0,-6 3,-15 9,-15 2,0 3,1 4,3l0 16c0,4 -3,7 -6,7z"/>
  <path id="10" class="fil1" d="M395 301l0 26c0,4 2,10 8,10 3,0 8,-1 10,-13l-3 0c-1,5 -2,7 -5,7 -3,0 -3,-4 -3,-6l0 -24 -7 0zm-1 -10c0,3 2,5 5,5 2,0 4,-2 4,-5 0,-3 -2,-5 -4,-5 -3,0 -5,2 -5,5z"/>
  <path id="11" class="fil1" d="M410 288l0 39c0,4 2,10 9,10 3,0 7,-1 9,-13l-2 0c-1,5 -3,7 -5,7 -3,0 -3,-4 -3,-6l0 -38 -8 1z"/>
  <path id="12" class="fil1" d="M445 301l0 4c-2,-3 -5,-4 -7,-4 -10,0 -13,11 -13,20 0,11 6,16 12,16 4,0 7,-3 9,-7 1,4 2,7 7,7 3,0 7,-1 9,-13l-2 0c-1,5 -3,7 -5,7 -3,0 -3,-4 -3,-6l0 -24 -7 0zm-7 30c-4,0 -6,-3 -6,-11 0,-6 2,-15 8,-15 3,0 4,1 5,3l0 16c0,4 -4,7 -7,7z"/>
  <path id="13" class="fil1" d="M460 324c0,10 4,13 10,13 10,0 15,-10 15,-21 0,-12 -6,-15 -11,-15 -3,0 -6,1 -7,3l0 -17 -7 1 0 36zm19 -6c0,7 -3,14 -8,14 -3,0 -4,-2 -4,-6l0 -19c1,-1 3,-2 5,-2 4,0 7,6 7,13z"/>
  <path id="14" class="fil1" d="M489 288l0 39c0,4 2,10 8,10 4,0 8,-1 10,-13l-2 0c-1,5 -3,7 -5,7 -3,0 -4,-4 -4,-6l0 -38 -7 1z"/>
  <path id="15" class="fil1" d="M527 310c0,-8 -5,-9 -10,-9 -10,0 -13,12 -13,19 0,12 7,17 13,17 5,0 10,-3 10,-7 0,-1 0,-1 0,-2 -2,2 -5,3 -8,3 -4,0 -7,-1 -8,-9 10,-1 16,-6 16,-12zm-16 10c0,-7 3,-16 7,-16 3,0 4,2 4,5 0,6 -4,9 -11,11z"/>
  <path class="fil2" d="M41 282l0 46 -20 -45c-2,-1 -3,-1 -5,-1 -9,0 -16,8 -16,16 0,6 3,9 9,9 -2,-1 -4,-3 -4,-9 0,-6 3,-10 8,-12l0 49 5 0 0 -40 18 40 9 0 0 -53 -4 0z"/>
  <path id="1" class="fil2" d="M65 299c-11,0 -14,11 -14,20 0,12 7,16 13,16 8,0 12,-7 12,-19 0,-1 0,-2 0,-3 3,-1 5,-5 6,-8l-3 0c0,1 -1,3 -4,3 -1,-5 -4,-9 -10,-9zm0 31c-3,0 -6,-3 -6,-12 0,-7 2,-15 8,-15 1,0 3,1 4,4 -1,0 -2,1 -2,3 0,2 1,4 4,4 0,0 0,1 0,1 0,9 -3,15 -8,15l0 0z"/>
  <path id="2" class="fil2" d="M122 282c-1,0 -2,0 -3,0 -11,0 -21,7 -21,16 0,6 3,9 9,9 -2,-2 -3,-3 -3,-8 0,-7 4,-11 10,-13l0 49 8 0 0 -53z"/>
  <path id="3" class="fil2" d="M128 299l0 36 7 0 0 -23c1,-5 3,-8 6,-8 3,0 4,4 4,7l0 24 7 0 0 -23c0,-6 2,-8 5,-8 3,0 5,2 5,8 0,2 -1,10 -1,12 0,6 3,11 9,11 3,0 7,-1 9,-13l-2 0c-1,5 -3,8 -5,8 -3,0 -3,-5 -3,-6 0,-4 0,-9 0,-12 0,-6 -1,-13 -10,-13 -2,0 -5,1 -8,6 -1,-3 -3,-6 -8,-6 -3,0 -5,1 -8,5l0 -5 -7 0z"/>
  <path id="4" class="fil2" d="M196 299l0 4c-1,-3 -4,-4 -7,-4 -9,0 -13,11 -13,20 0,12 6,16 12,16 4,0 8,-3 9,-7 1,4 3,7 7,7 3,0 8,-1 10,-13l-3 0c-1,5 -3,8 -5,8 -3,0 -3,-5 -3,-7l0 -24 -7 0zm-6 31c-4,0 -7,-4 -7,-12 0,-6 3,-15 9,-15 2,0 3,1 4,3l0 16c0,4 -3,8 -6,8z"/>
  <path id="5" class="fil2" d="M230 299l0 4c-1,-3 -4,-4 -7,-4 -9,0 -13,11 -13,19 0,11 6,16 12,16 4,0 6,-2 8,-5l0 6c-5,2 -9,5 -9,10 0,4 3,7 7,7 5,0 9,-3 9,-12l0 -4c6,-2 9,-4 11,-14l-3 0c-1,8 -3,9 -8,11l0 -34 -7 0zm-6 29c-4,0 -7,-3 -7,-10 0,-7 3,-15 9,-15 2,0 3,1 4,3l0 15c0,4 -3,7 -6,7zm3 20c-2,0 -3,-1 -3,-3 0,-3 1,-5 6,-7l0 5c0,3 -1,5 -3,5z"/>
  <path id="6" class="fil2" d="M267 308c0,-7 -4,-9 -9,-9 -10,0 -14,12 -14,20 0,12 8,16 14,16 5,0 10,-3 10,-7 0,-1 0,-1 0,-2 -2,3 -5,4 -8,4 -4,0 -7,-2 -8,-10 10,-1 15,-5 15,-12zm-15 10c0,-7 2,-16 7,-16 3,0 4,2 4,5 0,6 -4,10 -11,11z"/>
  <path id="7" class="fil2" d="M324 335l0 -52c-2,-1 -4,-1 -6,-1 -8,0 -15,9 -20,21 -1,0 -2,0 -3,0 -8,0 -13,2 -13,7 0,3 2,4 4,4 2,0 3,0 3,-2 0,-1 0,-2 -2,-2 0,0 0,-1 0,-1 0,-2 5,-3 10,-4 -3,10 -5,19 -5,26 0,10 6,12 10,12 -2,-4 -3,-8 -3,-12 0,-8 2,-17 4,-25 5,0 10,1 13,3l0 26 8 0zm-20 -32c3,-10 7,-18 12,-18l0 22c-3,-1 -8,-3 -12,-4z"/>
  <path id="8" class="fil2" d="M353 311c0,-10 -3,-13 -6,-13 -2,0 -3,2 -3,3 0,2 1,4 3,4 0,0 1,0 2,0 0,2 0,4 0,7 0,8 -2,18 -8,18 -3,0 -4,-4 -4,-7l0 -24 -7 0 0 26c0,7 5,10 10,10 10,0 13,-14 13,-24l0 0z"/>
  <path id="9" class="fil2" d="M377 299l0 4c-1,-3 -4,-4 -6,-4 -10,0 -14,11 -14,20 0,12 7,16 13,16 4,0 7,-3 9,-7 0,4 2,7 7,7 3,0 7,-1 9,-13l-2 0c-1,5 -3,8 -5,8 -3,0 -4,-5 -4,-7l0 -24 -7 0zm-6 31c-4,0 -6,-4 -6,-12 0,-6 2,-15 8,-15 2,0 4,1 4,3l0 16c0,4 -3,8 -6,8z"/>
  <path id="10" class="fil2" d="M393 299l0 26c0,4 1,10 8,10 3,0 7,-1 10,-13l-3 0c-1,5 -3,8 -5,8 -3,0 -3,-5 -3,-7l0 -24 -7 0zm-2 -10c0,3 2,5 5,5 3,0 5,-2 5,-5 0,-2 -2,-5 -5,-5 -3,0 -5,3 -5,5z"/>
  <path id="11" class="fil2" d="M408 286l0 39c0,4 2,10 8,10 3,0 8,-1 10,-13l-3 0c-1,5 -3,8 -5,8 -3,0 -3,-5 -3,-7l0 -38 -7 1z"/>
  <path id="12" class="fil2" d="M442 299l0 4c-1,-3 -4,-4 -6,-4 -10,0 -14,11 -14,20 0,12 7,16 12,16 5,0 8,-3 9,-7 1,4 3,7 7,7 3,0 8,-1 10,-13l-3 0c-1,5 -2,8 -5,8 -3,0 -3,-5 -3,-7l0 -24 -7 0zm-6 31c-4,0 -6,-4 -6,-12 0,-6 2,-15 8,-15 2,0 3,1 4,3l0 16c0,4 -3,8 -6,8z"/>
  <path id="13" class="fil2" d="M457 322c0,10 5,13 10,13 11,0 16,-10 16,-21 0,-12 -7,-15 -12,-15 -3,0 -5,1 -7,3l0 -17 -7 1 0 36zm20 -6c0,7 -3,14 -8,14 -3,0 -5,-2 -5,-6l0 -19c2,-1 3,-2 5,-2 5,0 8,6 8,13z"/>
  <path id="14" class="fil2" d="M487 286l0 39c0,4 1,10 8,10 3,0 8,-1 10,-13l-3 0c-1,5 -3,8 -5,8 -3,0 -3,-5 -3,-7l0 -38 -7 1z"/>
  <path id="15" class="fil2" d="M524 308c0,-7 -5,-9 -9,-9 -10,0 -14,12 -14,20 0,12 7,16 14,16 5,0 10,-3 10,-7 0,-1 0,-1 -1,-2 -1,3 -4,4 -7,4 -4,0 -8,-2 -8,-10 9,-1 15,-5 15,-12zm-15 10c0,-7 2,-16 7,-16 2,0 4,2 4,5 0,6 -5,10 -11,11z"/>
 </g>
</svg>
