<?xml version="1.0" encoding="UTF-8"?>
<!DOCTYPE svg PUBLIC "-//W3C//DTD SVG 1.1//EN" "http://www.w3.org/Graphics/SVG/1.1/DTD/svg11.dtd">
<!-- Creator: CorelDRAW X7 -->
<svg xmlns="http://www.w3.org/2000/svg" xml:space="preserve" width="2.12681in" height="1.94015in" version="1.1" style="shape-rendering:geometricPrecision; text-rendering:geometricPrecision; image-rendering:optimizeQuality; fill-rule:evenodd; clip-rule:evenodd"
viewBox="0 0 438 400"
 xmlns:xlink="http://www.w3.org/1999/xlink">
 <defs>
  <style type="text/css">
   <![CDATA[
    .fil0 {fill:#BDBFC1}
    .fil1 {fill:#96989A;fill-rule:nonzero}
   ]]>
  </style>
 </defs>
 <g id="Layer_x0020_1">
  <metadata id="CorelCorpID_0Corel-Layer"/>
  <path class="fil0" d="M438 38c1,3 -1,6 -4,7 -2,0 -5,-1 -6,-3 0,1 -1,1 -2,2 -1,1 -3,2 -5,3 -2,1 -4,2 -6,2 0,0 -1,0 -1,1l-3 10 -2 8c1,-1 3,-2 4,-3 2,-1 4,-2 5,-3 2,0 3,0 3,0 0,0 -1,1 -2,2 -1,1 -3,2 -5,3 -1,1 -3,2 -5,3 0,0 0,0 -1,0l-2 9 0 0c0,0 0,0 1,0 1,0 1,0 2,0 1,0 1,1 1,1 0,-3 1,-5 4,-5 2,-1 5,0 6,3 1,3 0,6 -3,6 -3,1 -6,0 -7,-3 0,0 0,-1 0,-1 0,0 0,0 -1,1 0,0 -1,0 -2,0 -1,0 -1,0 -2,0l-2 7c-1,3 -2,6 -2,9 -2,6 -4,11 -5,16 -2,5 -3,9 -4,11 -1,3 -1,4 -1,4 0,0 0,-1 1,-4 0,-3 1,-7 2,-12 1,-4 2,-10 4,-16 0,-3 1,-6 2,-9 0,0 0,0 0,-1 -1,-2 -2,-4 -2,-7 -1,-3 -1,-6 -1,-8 0,-2 0,-3 0,-3 0,0 1,1 1,3 1,2 2,5 2,7 1,2 1,4 1,6 1,-2 1,-4 2,-6 1,-6 3,-12 5,-17 0,-1 0,-1 -1,-1 0,-2 -1,-4 -1,-6 -1,-2 -1,-4 -1,-6 -1,-2 0,-3 0,-3 -3,1 -6,-1 -7,-3 -1,-3 0,-7 3,-8 3,0 6,1 7,4 1,3 0,6 -3,7 0,0 0,1 1,3 1,1 1,3 2,6 0,1 1,2 1,4 1,-5 3,-10 5,-14 1,-5 3,-9 4,-11 1,-2 1,-3 1,-4 -1,0 -3,-2 -4,-4 -1,-2 1,-5 4,-6 2,-1 5,0 6,3 1,3 -1,6 -3,7 -1,0 -2,0 -2,0l-4 15 -2 4c1,0 1,0 1,0 1,-1 3,-2 5,-3 2,-1 4,-2 5,-2 2,0 3,-1 3,-1 0,0 0,0 0,-1 -1,-3 0,-6 3,-7 3,0 6,1 7,4zm-437 11c-1,3 0,6 3,7 3,1 5,0 6,-2 1,0 1,1 3,2 1,1 3,2 5,3 2,0 4,1 5,2 1,0 1,0 2,0l2 11 3 7c-2,-1 -3,-2 -4,-3 -2,-1 -4,-2 -6,-2 -1,-1 -2,-1 -2,-1 0,0 0,1 2,2 1,1 2,2 4,3 2,2 4,3 5,3 1,0 1,0 1,0l3 9 0 0c-1,0 -1,0 -1,0 -1,0 -2,0 -2,0 -1,1 -1,1 -2,1 0,-2 -1,-4 -3,-5 -3,-1 -6,1 -7,3 -1,3 1,6 4,7 2,1 5,-1 6,-4 0,0 0,0 0,-1 1,0 1,1 1,1 1,0 2,1 3,1 0,0 1,0 1,0l2 6c1,3 2,6 3,9 1,4 2,8 3,11l-1 0 -40 0 0 117 54 0c7,0 15,-1 21,-3 7,-2 13,-5 18,-9 6,-6 12,-13 15,-21 4,-8 6,-16 6,-25 0,-10 -3,-19 -7,-27 -2,-4 -5,-7 -7,-10 1,0 2,0 3,0 12,0 23,-4 31,-11 8,-7 12,-17 12,-28 0,-6 -1,-10 -3,-14 -2,-4 -5,-8 -9,-11 -3,-3 -10,-7 -22,-12l-2 -2c-7,-3 -11,-6 -13,-8 -2,-3 -3,-6 -3,-9 0,-4 1,-7 4,-10 2,-2 6,-3 10,-3 5,0 9,1 13,4 3,3 6,7 9,13l13 -10c-4,-7 -9,-13 -15,-17 -7,-4 -14,-5 -23,-5 -12,0 -22,3 -29,10 -8,7 -12,17 -12,28 0,5 1,10 3,13 2,4 5,8 10,12 2,2 8,6 19,11l5 3c4,3 8,5 10,8 2,2 3,5 3,9 0,3 -1,7 -4,9 -3,3 -6,4 -11,4 -1,0 -3,0 -4,0l-25 22c6,8 8,18 8,31 0,13 -3,24 -9,31 -6,8 -14,11 -25,11l-11 0 0 -85 11 0c1,0 1,0 2,0l0 1c1,2 2,4 2,4 0,0 -1,-2 -1,-5l0 0c5,0 10,1 14,4l23 -21c-2,-3 -4,-6 -6,-10l-16 9c1,2 1,3 2,4 -6,-1 -13,-2 -20,-2 -1,-4 -2,-7 -3,-11 -1,-3 -2,-6 -2,-10 0,0 0,0 0,0 1,-2 1,-5 2,-8 0,-3 1,-5 1,-8 0,-2 0,-3 0,-3 0,0 -1,1 -2,3 0,2 -1,5 -2,8 0,2 0,3 0,5 -1,-2 -1,-4 -2,-6 -2,-6 -3,-12 -5,-17 0,0 0,0 0,-1 1,-1 2,-3 2,-6 1,-2 1,-4 1,-6 0,-1 0,-3 0,-3 3,1 6,0 7,-3 1,-3 -1,-6 -4,-7 -3,-1 -6,0 -7,3 -1,3 1,7 4,7 0,0 -1,1 -1,3 -1,2 -2,4 -2,6 -1,1 -1,3 -1,4 -2,-5 -4,-10 -5,-14 -2,-5 -3,-8 -4,-11 -1,-2 -2,-3 -2,-4 2,0 4,-1 4,-3 1,-3 0,-6 -3,-7 -3,-1 -6,1 -7,4 0,2 1,5 4,6 1,0 1,0 2,0l4 16 1 4c0,0 0,-1 0,-1 -2,-1 -3,-2 -5,-3 -2,-1 -4,-1 -6,-2 -1,0 -2,0 -3,0 1,-1 1,-1 1,-1 1,-3 -1,-6 -3,-7 -3,-1 -6,0 -7,3zm7 20c-1,2 1,5 3,6 3,1 6,0 7,-3 1,-3 -1,-6 -3,-7 -3,-1 -6,1 -7,4zm31 4c-1,2 0,5 3,6 2,1 5,-1 6,-3 1,-3 -1,-5 -3,-6 -3,-1 -6,0 -6,3zm14 -73c0,0 -4,12 -12,14 0,0 9,5 12,14 2,-9 11,-14 11,-14 -8,-2 -11,-14 -11,-14zm160 277c-1,1 -2,1 -4,1 -1,0 -2,0 -3,-1 -1,0 -1,-1 -1,-2 0,0 0,-1 1,-2 1,-1 2,-2 3,-3 2,1 3,2 4,3 0,1 1,2 1,2 0,1 0,2 -1,2zm198 -23c0,0 -7,0 -16,0 -10,0 -22,1 -35,1 -3,0 -6,0 -9,0 -3,0 -6,0 -9,0 -3,0 -6,0 -9,0 -3,0 -5,0 -8,0 -2,0 -4,0 -6,0 -2,0 -3,1 -5,1 -1,0 -2,1 -3,1 -1,0 -1,0 -1,0l0 0c0,0 0,0 1,-1 1,0 2,0 3,-1 1,0 3,-1 5,-1 2,0 4,-1 6,-1 3,0 5,0 8,0 3,0 6,0 9,0 3,0 6,0 9,0 3,0 6,0 9,0 13,0 25,0 35,0 9,0 16,0 16,0l0 1zm-11 5c0,0 -6,0 -16,0 -9,0 -22,1 -35,1 -3,0 -6,0 -9,0 -3,0 -6,0 -9,0 -3,0 -6,0 -9,0 -2,0 -5,0 -7,0 -3,0 -5,0 -7,0 -1,0 -3,1 -4,1 -2,0 -3,1 -4,1 0,0 -1,0 -1,0l0 0c0,0 1,0 1,-1 1,0 2,0 3,-1 2,0 3,-1 5,-1 2,0 4,-1 7,-1 2,0 5,0 7,0 3,0 6,0 9,0 3,0 6,0 9,0 3,0 6,0 9,0 13,0 26,0 35,0 10,0 16,0 16,0l0 1zm-392 -6c0,0 7,0 16,0 10,0 22,0 35,0 3,0 6,0 9,0 3,0 6,0 9,0 3,0 6,0 9,0 3,0 5,0 7,0 3,0 5,1 7,1 2,0 4,1 5,1 1,1 2,1 3,1 1,1 1,1 1,1l0 0c0,0 -1,0 -1,0 -1,0 -2,-1 -3,-1 -2,0 -3,-1 -5,-1 -2,0 -4,0 -7,0 -2,0 -4,0 -7,0 -3,0 -6,0 -9,0 -3,0 -6,0 -9,0 -3,0 -6,0 -9,0 -13,0 -25,-1 -35,-1 -9,0 -16,0 -16,0l0 -1zm11 5c0,0 6,0 16,0 9,0 22,0 34,0 4,0 7,0 10,0 3,0 6,0 9,0 3,0 6,0 9,0 2,0 5,0 7,0 3,0 5,1 7,1 2,0 3,1 5,1 1,1 2,1 3,1 0,1 1,1 1,1l0 0c0,0 -1,0 -2,0 0,0 -1,-1 -3,-1 -1,0 -3,-1 -5,-1 -1,0 -4,0 -6,0 -2,0 -5,0 -8,0 -2,0 -5,0 -8,0 -3,0 -6,0 -9,0 -3,0 -6,0 -10,0 -12,0 -25,-1 -34,-1 -10,0 -16,0 -16,0l0 -1zm254 14c0,0 1,-1 1,-1 -1,0 -1,0 -2,1 1,0 1,0 1,0zm-67 6c-2,0 -3,-1 -4,-1 -3,-1 -6,-3 -8,-4 -2,-2 -4,-4 -6,-6 2,-1 4,-1 6,-1 3,0 5,0 8,1 -1,1 -1,2 -1,3 -1,2 -1,2 -1,2 0,0 0,0 0,0 0,0 0,0 0,0 1,0 1,-1 1,-1 1,-1 1,-2 1,-4 3,1 5,2 7,3 -2,1 -3,2 -3,3 -2,1 -2,3 -1,5 1,0 1,0 1,0zm4 -8c2,-1 4,-2 6,-3 1,2 1,3 2,4 0,0 0,1 0,1 1,0 1,0 1,0 0,0 0,0 0,0 0,0 0,0 -1,-2 0,-1 -1,-2 -1,-3 3,-1 5,-1 8,-1 2,0 4,0 6,1 -2,2 -4,4 -6,6 -3,1 -5,3 -8,4 -1,0 -2,1 -4,1 0,0 0,0 0,0 2,-2 2,-4 0,-5 0,-1 -1,-2 -3,-3zm16 -7c-3,1 -6,1 -9,2 -1,-2 0,-4 0,-6 1,-2 1,-4 3,-5 2,-3 4,-4 7,-5 2,0 5,0 6,2 2,1 3,3 3,5 0,3 -1,5 -3,8 -2,-1 -5,-1 -7,-1zm31 6c1,0 1,-1 1,-1 1,-2 1,-3 2,-4 1,0 2,0 3,1 0,1 0,1 0,1 0,2 0,3 0,4 -2,0 -4,0 -6,-1zm6 1c1,-1 1,-3 1,-4l0 0c0,0 0,0 0,0 2,1 2,2 3,4l0 0c-1,0 -2,0 -4,0zm1 -7c-1,-1 -1,-2 -2,-3 1,0 1,-1 2,-1 1,-1 2,-2 4,-2 2,-1 4,-1 6,0 2,0 3,1 4,3 0,2 0,3 -1,5 -2,2 -3,3 -6,4 0,0 0,0 -1,0 0,0 0,0 0,0 0,0 0,0 0,-1 0,0 -1,0 -1,0 0,-2 -1,-3 -2,-4 -1,0 -2,-1 -3,-1zm-2 -1c0,0 -1,0 -1,0 0,0 0,-1 1,-1 0,0 0,1 0,1zm-1 -2c0,1 -1,1 -1,2 -2,-1 -3,-1 -5,-1 -1,0 -2,1 -3,1 -1,0 -2,1 -2,1 -1,1 -1,2 -1,2 1,2 3,3 6,4 1,1 1,1 1,1 0,0 0,1 -1,1 -1,2 -3,3 -5,4 -3,0 -5,0 -6,-1 -1,-2 -2,-3 -2,-5 0,-1 1,-3 2,-5 1,-1 3,-3 4,-3 2,-1 4,-2 5,-2 2,-1 3,-1 4,0 2,0 3,0 4,1 0,0 0,0 0,0zm-4 9c-1,0 -1,0 -1,0 -3,-1 -5,-2 -6,-4 0,-1 0,-1 0,-1 1,-1 1,-1 2,-1 1,-1 2,-1 3,-1 1,1 3,1 4,1 -1,2 -1,4 -2,6zm21 22l0 0c-1,0 -2,0 -3,0 -2,0 -3,0 -4,-1 -2,0 -3,-1 -5,-2 -1,-2 -2,-3 -2,-4 -1,-1 -1,-2 0,-3 0,-1 1,-1 1,-1 1,-1 2,0 3,0 2,0 3,1 4,2 2,1 3,2 4,3 1,2 1,3 2,5l0 1zm-69 -12c1,0 2,0 2,0 3,0 6,-1 10,-3 2,-1 4,-2 6,-3 2,-2 4,-3 6,-5 1,0 1,0 1,1 1,0 1,0 1,0 1,1 2,2 2,3 0,0 0,1 0,2 -1,1 -3,2 -4,2 -2,1 -5,2 -9,2 -1,0 -1,0 -2,0 -2,0 -3,1 -3,1 0,0 0,0 0,0 0,0 0,0 0,0 0,0 1,1 1,1 1,0 2,0 2,0 1,0 3,1 6,1 2,1 4,2 6,2 5,1 10,1 15,0 4,-2 8,-4 11,-8 1,-1 2,-3 3,-4 1,0 3,0 4,0 0,1 0,1 0,2 -1,0 -1,0 -2,1 0,0 0,0 -1,0 0,0 0,0 0,0 -1,0 -1,0 -1,1 0,0 0,0 0,0 0,0 0,1 0,1 0,0 1,0 1,-1 0,0 1,0 1,0 1,-1 2,-1 2,-1 0,0 2,0 3,0 1,0 2,0 4,1 2,1 3,2 5,3 1,2 2,3 3,5 0,2 0,3 0,5 -1,1 -2,2 -3,2 0,0 0,0 0,0 0,-1 0,-1 0,-1 -2,-4 -3,-7 -6,-9 -2,-2 -5,-2 -7,-1 -2,0 -2,1 -3,2 0,1 0,2 0,3 1,2 3,5 6,6 3,2 6,2 9,1 1,1 1,2 1,3 0,1 0,2 0,2 0,0 0,0 0,0 0,0 0,0 0,0 0,0 0,0 0,-1 0,-1 0,-2 0,-4l0 0c3,-1 4,-2 5,-3 1,-2 2,-4 1,-6 -1,-3 -3,-5 -6,-7 -2,-1 -4,-1 -6,-2 5,0 31,1 30,-8 0,-5 -15,0 -9,3 -1,-1 1,-3 2,-3 1,-1 2,-1 3,-1 1,0 2,0 2,0 1,0 1,1 1,1 -1,2 -4,3 -8,4 -6,2 -12,3 -18,4 2,-1 3,-1 5,-2 2,-1 4,-2 6,-3 2,-1 5,-3 9,-6 7,-6 14,-10 27,-10 -10,-5 -21,3 -26,7 -4,1 -8,0 -10,-1 0,0 0,0 0,0 1,0 2,-1 1,-2 -1,0 -2,0 -2,0 -1,1 0,1 0,2 1,4 9,2 10,1 -6,5 -11,9 -13,10 -4,2 -7,4 -10,4 0,0 -1,0 -1,0 -1,0 -3,0 -4,0 0,0 0,-1 1,-1 0,0 0,-1 0,-1 1,0 1,0 2,0 0,-1 1,-1 1,-1 3,-1 5,-2 6,-4 2,-2 2,-3 1,-5 0,-3 -2,-4 -4,-5 -2,-1 -5,-1 -7,0 -2,0 -3,1 -5,2 0,1 -1,1 -1,1 0,0 -1,0 -1,-1 -3,-2 -6,-2 -9,-2 -3,1 -6,3 -9,6 -1,2 -2,4 -2,6 0,3 0,5 2,6 2,2 4,2 7,1 2,0 4,-1 6,-4 0,0 1,-1 1,-1 2,0 3,1 5,1 0,1 -1,2 -2,3 -3,3 -7,6 -12,6 -5,1 -13,1 -22,-1 3,-1 5,-1 7,-2 2,-1 4,-2 5,-3 1,-1 1,-3 1,-4 0,-2 -1,-3 -2,-4 -1,0 -1,-1 -1,-1 0,0 0,0 0,0 1,-3 2,-6 2,-8 0,-3 -1,-5 -3,-7 -2,-1 -5,-2 -8,-2 -3,1 -5,3 -8,5 -1,2 -2,4 -3,6 0,2 0,4 0,7 -2,1 -4,2 -6,3 0,0 0,0 -1,0 0,0 0,0 0,0 -2,-1 -4,-2 -6,-3 0,-3 0,-5 0,-7 -1,-2 -2,-4 -3,-6 -3,-2 -5,-4 -8,-5 -3,0 -6,1 -8,2 -2,2 -3,4 -3,7 0,2 0,5 2,8 0,0 0,0 0,0 0,0 -1,0 -1,1 -1,1 -2,2 -2,4 0,1 0,2 1,4 1,1 3,2 5,3 2,1 4,1 7,2 -9,2 -17,2 -22,1 -5,0 -9,-3 -12,-6 -1,-1 -2,-2 -2,-3 2,0 3,-1 5,-1 0,0 0,1 1,1 2,3 4,4 6,4 3,1 5,0 7,-1 2,-1 2,-3 2,-6 0,-2 -1,-4 -2,-6 -3,-3 -6,-5 -9,-6 -4,0 -6,0 -9,2 0,1 -1,1 -1,1 0,0 -1,-1 -2,-1 -1,-1 -2,-2 -4,-2 -2,-1 -5,-1 -7,0 -2,1 -4,2 -4,4 -1,3 -1,4 0,6 2,2 4,3 7,4 0,0 0,0 1,1 0,0 1,0 2,0 0,0 0,1 0,1 0,0 1,1 1,1 -1,0 -3,0 -4,0 0,0 -1,0 -1,0 -4,0 -6,-2 -10,-4 -2,-1 -7,-5 -13,-10 1,1 9,3 10,-1 0,-1 0,-1 0,-2 0,0 -1,0 -2,0 -1,1 0,2 1,2 0,0 0,0 0,0 -2,1 -6,2 -10,1 -5,-4 -16,-12 -26,-7 13,0 20,4 27,9 4,4 7,6 9,7 2,1 4,2 6,3 1,1 3,1 5,2 -6,-1 -13,-2 -18,-4 -5,-1 -7,-3 -8,-4 0,-1 0,-1 1,-1 0,0 1,0 2,0 1,0 2,0 3,1 1,0 3,2 2,3 6,-3 -9,-8 -9,-3 -1,9 25,8 29,8 -2,1 -3,1 -5,2 -3,2 -5,4 -6,7 -1,2 -1,4 0,5 1,2 3,3 6,4l0 0c0,2 -1,3 -1,4 0,1 1,1 1,1 0,0 0,0 0,0 0,0 0,0 0,0 0,0 0,-1 0,-2 0,-1 0,-2 1,-3 3,1 6,1 9,-1 3,-1 5,-4 6,-6 0,-1 0,-3 0,-3 -1,-1 -2,-2 -3,-2 -2,-1 -5,-1 -7,1 -3,2 -5,5 -6,9 0,0 0,0 0,1 0,0 0,0 0,0 -1,0 -2,-1 -3,-3 0,-1 0,-2 0,-4 1,-2 2,-3 3,-5 2,-1 3,-2 5,-3 1,-1 3,-1 4,-1 1,0 2,0 3,0 0,0 1,0 1,1 1,0 2,0 2,0 0,1 1,1 1,1 0,-1 0,-1 0,-1 0,0 0,0 0,-1 0,0 0,0 -1,0 0,0 0,0 0,0 -1,0 -1,0 -1,0 -1,-1 -2,-1 -2,-1 0,-1 0,-1 0,-2 1,0 3,0 4,0 1,1 1,3 3,4 3,4 6,6 11,8 5,1 10,1 15,0 1,0 3,-1 6,-2 3,0 5,-1 6,-1 0,0 1,0 2,0 0,0 1,-1 1,-1 0,0 0,0 0,0 0,0 0,0 0,0 0,0 -1,-1 -3,-1 -1,0 -2,0 -2,0 -4,0 -7,-1 -9,-2 -2,0 -3,-1 -4,-2 0,-1 -1,-2 0,-2 0,-1 0,-2 1,-3 1,0 1,0 2,-1 0,0 0,0 1,0 2,2 3,3 6,4 2,2 4,3 6,4 4,2 7,3 10,3 0,0 1,0 1,0zm-23 -15c-2,-3 -3,-5 -3,-8 0,-2 1,-4 3,-6 1,-1 4,-1 6,-1 3,1 5,2 7,5 1,1 2,3 3,5 0,2 0,4 0,6 -3,-1 -6,-1 -9,-2 -2,0 -5,0 -7,1zm-30 6c0,-1 0,-2 0,-4 0,0 0,-1 0,-1 1,-1 2,-1 3,-1 1,1 1,2 2,4 0,0 0,1 0,1 -1,1 -3,1 -5,1zm-4 0l0 0c0,-2 1,-3 3,-4 0,0 0,0 0,0l0 0c0,1 0,3 1,4 -2,0 -3,0 -4,0zm0 -6c-1,1 -2,2 -2,4 -1,0 -1,0 -1,0 0,0 0,1 0,1 0,0 0,0 -1,0 0,0 0,0 0,0 -3,-1 -4,-2 -6,-4 -1,-2 -1,-3 -1,-5 1,-2 2,-3 4,-4 2,0 4,0 6,1 1,0 3,1 4,2 0,0 1,0 1,1 0,1 -1,2 -1,3 -1,0 -2,0 -3,1zm5 -3c1,0 1,1 1,1 -1,0 -1,0 -2,0 1,0 1,-1 1,-1zm1 -1c1,-1 2,-1 4,-1 1,-1 2,-1 4,0 1,0 3,1 5,2 1,0 3,2 4,3 1,2 2,4 2,5 0,2 -1,3 -2,5 -2,1 -3,1 -6,1 -2,-1 -4,-2 -6,-4 0,0 0,-1 0,-1 0,0 0,0 1,-1 3,-1 5,-2 6,-4 0,0 0,-1 -1,-2 0,0 -1,-1 -2,-1 -1,0 -2,-1 -4,-1 -1,0 -3,0 -4,1 -1,-1 -1,-1 -1,-2 0,0 0,0 0,0zm2 3c1,0 3,0 4,-1 1,0 2,0 3,1 1,0 1,0 2,1 0,0 0,0 0,1 -1,2 -3,3 -6,4 0,0 -1,0 -1,0 -1,-2 -1,-4 -2,-6zm-19 26c1,-1 1,-2 2,-4 1,-1 2,-2 4,-3 1,-1 2,-2 3,-2 2,0 3,-1 4,0 0,0 1,0 1,1 1,1 1,2 0,3 0,1 -1,2 -2,4 -2,1 -3,2 -5,2 -1,1 -2,1 -4,1 -1,0 -2,0 -3,0l0 0 0 -2zm210 -265l-1 0c0,0 1,0 1,0 0,0 -1,2 -1,2 0,0 0,1 1,1 0,1 0,1 0,1 0,1 0,1 0,1 0,0 0,0 0,1 1,0 1,0 1,1 0,1 2,1 3,1 0,0 0,0 1,0 0,1 0,2 -1,3 0,1 1,1 2,2 0,0 -2,-1 -2,-1 -1,0 -1,-1 -1,-1 -1,1 -2,3 -3,4 0,1 0,2 0,2 0,1 -1,1 -1,2 -1,2 0,2 -1,3 0,1 0,2 -1,2 0,-1 -2,-2 -3,-3 0,-1 0,-2 0,-3 0,0 0,-1 0,-1l0 -3c0,-1 0,-2 0,-2 0,-1 -1,-4 -1,-4 0,0 0,0 0,0 -1,0 -1,0 -1,0 -1,1 0,1 0,2 0,1 0,1 0,2 0,0 0,0 -1,0l-1 -2c0,0 0,0 -1,0 0,1 1,2 2,3 -1,0 -2,0 -2,0 0,0 0,1 0,1 0,0 1,0 1,0 1,0 1,0 1,1 0,1 0,1 0,2 0,2 0,2 0,3 0,1 0,1 1,2 0,0 0,0 1,1 0,0 0,0 0,0 0,1 0,1 0,1 1,1 1,1 2,2 1,0 1,1 1,1 0,1 0,1 -1,1 -1,0 -1,0 -2,1 0,0 0,0 -1,1 0,1 -1,2 0,3 0,0 0,0 1,0 0,0 0,1 0,1 0,1 -1,1 -1,1 -1,0 -2,0 -2,1 0,1 -1,2 1,2 0,0 0,0 1,-1 0,0 0,0 0,0 1,-1 2,-1 2,0 0,1 -1,1 -1,1 -1,0 -1,0 -1,1 -1,0 0,2 -2,3 0,1 0,1 0,2 0,1 1,2 1,3 1,1 0,2 0,2 0,1 0,2 0,3 0,1 0,1 0,1 1,0 1,-2 1,-3 0,-1 0,-1 0,-2 0,-1 1,-1 1,-2 0,0 0,0 0,1 0,0 0,1 0,2 1,1 1,2 2,2 0,0 0,0 0,-1 0,0 0,0 0,-1 0,0 -1,-2 -1,-3 1,0 1,-1 2,-1 0,1 0,2 0,3 0,0 0,1 0,1 1,1 1,1 1,2 0,3 0,6 0,9 0,1 0,4 0,4l1 7c0,0 0,2 0,3 0,1 0,2 0,3 0,0 0,0 0,0l0 8c0,0 0,1 0,1l0 4c-1,6 -2,13 -3,19 0,1 0,1 0,2 0,1 0,2 0,3 0,1 0,3 0,3 1,0 1,1 1,1l28 0c1,0 2,0 3,0l21 0c0,-1 -1,-2 -1,-2 -1,0 -1,0 -1,0 -1,-1 -1,0 -2,0 -2,0 -3,0 -5,-1 -1,0 -3,-1 -4,-2 -1,-1 -3,-3 -4,-4 -1,-2 -3,-3 -4,-5 0,0 0,0 0,-1 -1,-1 -2,-4 -3,-6 -1,-3 -3,-8 -4,-11 0,-2 0,-3 -1,-5 0,-1 0,-2 0,-3l-1 -5c0,-2 0,-3 -1,-5 0,-3 -1,-7 -2,-10 0,0 -1,-1 -1,-2 0,-1 0,-1 0,-2 -1,-3 -1,-5 -1,-8l0 -5c1,-3 0,-3 1,-7 1,-2 2,-4 2,-7 0,-2 2,-8 1,-10l-1 -3c0,-1 -1,-1 -1,-2 1,0 2,2 2,2 1,1 1,2 1,2l2 6c1,1 3,8 3,9 0,1 0,2 0,3 0,1 0,2 1,4 0,1 0,1 0,2 0,0 0,1 0,1l0 5c0,2 1,3 1,4l0 3c0,1 0,2 0,4 0,0 0,1 0,1l0 6c0,0 0,1 0,2 0,1 0,6 0,7 0,0 1,2 2,1 1,-1 0,-3 1,-6 1,-2 2,-4 2,-5l1 -3c0,-1 0,-3 0,-4 0,-1 0,-3 0,-5l1 0c0,-2 0,-4 0,-5 0,-1 1,-2 1,-3 0,0 0,-1 1,-2 0,0 -1,-1 -1,-2 0,-2 -1,-5 -1,-7 0,-2 0,-3 -1,-5 0,-3 0,-4 -2,-6 0,-1 0,-1 -1,-2l-2 -3c0,0 0,0 0,0 -1,-2 -2,-3 -2,-4 -1,0 -1,-1 -2,-1 0,0 0,-1 0,-1l-1 -1c0,0 0,0 -1,-1 0,0 -1,-1 -2,-2 0,0 0,0 0,-1 -1,0 -1,0 -2,-1 -1,0 -1,0 -2,-1 0,0 0,0 0,-1 0,0 0,-2 0,-2 0,-1 1,-1 0,-2 0,-1 0,-2 -1,-2 0,-1 -1,-2 -2,-2 0,0 0,0 0,0 0,-1 -1,-1 -2,-2 0,0 0,0 -1,0 0,0 -1,-1 -2,-1 -1,0 -3,1 -3,1 -2,0 -2,1 -2,2 -1,1 -1,1 -1,2 0,1 0,2 0,2 0,1 0,1 0,2zm-23 15c-1,1 -1,1 0,1 0,2 0,2 1,3 0,1 2,3 3,3 0,0 0,0 -1,0l0 -2c-1,-1 -1,0 -1,-1l2 -2c0,0 0,0 1,0 0,0 0,0 0,0 1,0 1,-1 1,-1 1,0 1,-1 2,-2 0,0 2,0 2,0l0 -1 0 0c1,-1 1,-1 0,-2 1,0 1,0 0,-1 0,0 -1,-1 -2,-1 0,0 -1,0 -1,0 0,0 0,-1 0,-1 0,0 2,-1 3,-1 0,0 0,0 0,-1 0,0 0,0 0,0l-1 0c0,0 -1,0 -2,0 0,0 1,0 0,-1 0,0 -1,1 -1,1 -1,0 -3,2 -3,2 0,2 -1,4 -1,5 0,1 0,1 -1,2 -1,1 -1,0 -1,0zm-13 -25c0,1 0,3 1,4 0,1 0,2 0,4 -1,0 -1,0 -2,1 -1,1 0,0 -1,1 -1,0 -3,2 -5,3 0,0 0,0 0,0 -1,0 -1,0 -2,1l-1 1c-2,2 -1,4 -2,7 0,0 0,0 0,1 0,0 0,0 0,1 0,0 0,1 0,1 0,0 0,1 0,1 0,2 0,5 0,6 1,2 1,4 2,6 0,0 0,1 0,1 0,1 1,2 1,3 1,0 1,0 0,1 0,1 -1,3 -1,4l-1 13c0,1 -1,1 -1,2 0,1 0,3 0,4 0,1 0,2 0,4 0,0 0,1 0,1l0 6c0,1 0,2 0,3 0,0 0,1 0,1l0 1c1,1 0,1 1,1 0,0 1,-2 1,-2 0,0 0,-1 1,-1 0,0 -1,1 -1,2 0,0 0,1 0,2 0,1 0,1 0,2 0,1 0,2 0,3 0,1 0,3 0,4 1,1 1,2 1,2 -1,2 -1,3 -1,5l0 4c0,1 0,2 0,3l0 10c0,1 0,1 0,2 0,1 -1,1 -1,2 0,1 0,2 0,3 0,0 0,0 0,1 0,0 -1,1 -1,1 0,1 1,2 2,2 2,0 5,0 7,0l2 0c0,0 0,-1 -1,-1 -1,-3 1,-4 0,-7 0,-2 0,-4 0,-6l0 -5c0,-1 0,-2 0,-2l0 -5c0,-1 0,-3 0,-4 1,-2 1,-4 1,-7l0 -6c0,-1 0,-2 0,-3 0,-3 1,-4 1,-6 1,1 1,3 2,4 0,1 0,1 0,1 0,1 1,1 1,2l1 0c0,-1 0,-2 1,-2 0,1 0,2 0,3 0,1 0,2 0,3 0,0 1,1 1,1l0 10c0,0 0,0 0,1l0 20c0,0 0,1 0,1 0,1 0,2 0,3 0,1 -1,3 -1,4 1,1 4,1 5,1 1,0 1,0 1,0l4 0c0,0 0,0 1,0 1,0 2,0 3,0l2 -1c-1,0 -1,-1 -2,-1l-2 -1c-1,0 -2,0 -2,0 0,0 0,0 0,-1 0,-1 0,-3 0,-5 0,-1 0,-5 0,-7 0,-1 0,-3 0,-5l0 -9c0,-1 0,-2 0,-3 0,-1 0,-3 0,-4 0,-1 0,-2 0,-3 0,-3 -1,-7 -2,-10 0,-2 0,-4 -1,-6 0,-3 -1,-6 -1,-9 0,-1 0,-2 0,-4 0,0 0,-10 0,-10 0,-1 0,-1 0,-2l-1 -4c0,0 0,-1 0,-1l0 -3c0,-1 0,-1 0,-1l5 -2c0,-1 -1,-2 -1,-2 -1,-2 -2,-4 -2,-6 0,-1 0,-1 0,-2 -1,0 -1,0 -2,0 0,0 1,0 1,-1 0,-1 0,-3 0,-5 0,-1 0,0 0,-1 -1,-1 -1,-1 -1,-2l-2 -2c-1,-1 -1,-1 -1,-3 1,0 1,2 3,1 0,0 0,0 0,-1 0,0 0,0 1,0 0,-1 0,-1 0,-1l0 0 1 -1 0 0c0,0 0,0 1,0 0,0 0,0 1,0 0,0 0,0 0,0 0,0 0,0 0,0 0,0 0,0 0,0 0,-1 0,-1 0,-1 0,-1 0,-1 0,-1 0,-2 0,-2 1,-3 0,0 0,0 0,0 0,0 0,0 0,0 1,-3 0,-2 0,-4 1,0 2,-1 1,-2 -1,-1 -1,-1 -1,-1 -1,-1 -5,-3 -6,-3 -1,0 -3,0 -4,0 -2,1 -5,3 -5,5zm-247 130c-1,-1 -2,-2 -3,-3l22 -20 0 0c1,1 3,2 4,2l-23 21zm80 92c-6,0 -11,-1 -13,-4 -3,-2 -4,-7 -4,-14l0 -42c0,-6 1,-11 4,-14 2,-2 7,-4 13,-4l36 0 0 12 -19 0c-4,0 -6,1 -7,2 -1,1 -2,3 -2,7l0 12 25 0 0 12 -25 0 0 13c0,3 1,6 2,7 1,1 3,2 7,2l20 0 0 11 -37 0zm128 -98l0 98 -33 0c-14,0 -25,-3 -33,-9 -8,-7 -11,-16 -11,-28 0,-13 4,-23 12,-30 8,-7 20,-11 35,-11l4 0 0 -15 26 -10 0 5zm-26 31c-8,0 -14,3 -18,7 -4,4 -6,11 -6,21 0,10 2,17 6,22 4,4 10,6 18,6l0 -56zm0 -30l0 -1 0 -4 26 -10 0 5 -26 10zm0 -9l0 -19 0 -51 26 0 0 51 0 9 -26 10zm65 106c-6,0 -11,-1 -13,-4 -2,-2 -4,-7 -4,-14l0 -42c0,-6 2,-11 4,-14 2,-2 7,-4 13,-4l36 0 0 12 -19 0c-4,0 -6,1 -7,2 -1,1 -1,3 -1,7l0 12 24 0 0 12 -24 0 0 13c0,3 0,6 1,7 1,1 3,2 7,2l20 0 0 11 -37 0zm69 -51l0 51 -12 0 0 -65c0,-5 1,-9 3,-12 2,-2 5,-3 9,-3 4,0 7,1 10,3 3,2 6,5 8,10l18 28 0 -39 12 0 0 68c0,5 0,8 -2,10 -1,2 -3,3 -6,3 -3,0 -5,-1 -7,-2 -2,-2 -4,-5 -7,-9l-26 -43zm-220 -47l0 -78 34 0c10,0 18,2 24,6 5,4 8,9 8,17 0,5 -1,9 -4,13 -2,3 -6,5 -11,7l23 35 -29 0 -18 -37 0 -1c5,-1 8,-3 11,-5 2,-3 3,-6 3,-11 0,-4 -1,-8 -4,-10 -2,-2 -6,-3 -10,-3 -1,0 -2,0 -2,0 0,0 -1,0 -1,0l0 67 -24 0zm86 -110c0,-4 1,-7 4,-10 2,-2 5,-4 9,-4 4,0 7,2 9,4 3,3 4,6 4,10 0,4 -1,7 -4,9 -2,3 -5,4 -9,4 -4,0 -7,-1 -9,-4 -3,-2 -4,-6 -4,-9zm181 29c1,3 -1,6 -4,7 -3,1 -6,-1 -6,-4 -1,-2 0,-5 3,-6 3,-1 6,0 7,3zm-31 5c1,2 -1,5 -3,6 -3,0 -5,-1 -6,-4 -1,-2 0,-5 3,-6 2,0 5,1 6,4z"/>
  <path class="fil1" d="M8 399l0 -36 5 0 19 28 0 -28 4 0 0 36 -5 0 -19 -29 0 29 -4 0zm34 -13c0,-5 2,-9 4,-11 3,-2 5,-3 9,-3 3,0 6,1 8,4 3,2 4,5 4,9 0,4 -1,7 -2,8 -1,2 -2,4 -4,5 -2,1 -4,2 -6,2 -4,0 -7,-2 -9,-4 -3,-2 -4,-6 -4,-10zm5 0c0,3 0,6 2,7 1,2 3,3 6,3 2,0 4,-1 5,-3 2,-1 2,-4 2,-7 0,-4 0,-6 -2,-8 -1,-1 -3,-2 -5,-2 -3,0 -5,1 -6,2 -2,2 -2,4 -2,8zm40 13l0 -36 14 0c2,0 4,0 5,0 2,0 3,1 5,2 1,1 2,2 3,3 0,2 1,3 1,5 0,3 -1,6 -3,8 -2,2 -6,3 -11,3l-9 0 0 15 -5 0zm5 -19l9 0c3,0 5,-1 7,-2 1,-1 2,-3 2,-5 0,-1 -1,-3 -2,-4 0,-1 -1,-1 -3,-2 0,0 -2,0 -4,0l-9 0 0 13zm28 19l0 -36 5 0 0 13c2,-3 4,-4 8,-4 1,0 3,0 5,1 1,1 2,2 3,3 0,2 1,4 1,6l0 17 -5 0 0 -17c0,-2 0,-4 -1,-5 -1,-1 -3,-1 -4,-1 -2,0 -3,0 -4,1 -1,1 -2,2 -3,3 0,1 0,3 0,5l0 14 -5 0zm27 -13c0,-5 1,-9 4,-11 2,-2 5,-3 8,-3 4,0 7,1 9,4 2,2 3,5 3,9 0,4 0,7 -1,8 -1,2 -3,4 -4,5 -2,1 -5,2 -7,2 -4,0 -7,-2 -9,-4 -2,-2 -3,-6 -3,-10zm4 0c0,3 1,6 3,7 1,2 3,3 5,3 2,0 4,-1 6,-3 1,-1 2,-4 2,-7 0,-4 -1,-6 -2,-8 -2,-1 -4,-2 -6,-2 -2,0 -4,1 -5,2 -2,2 -3,4 -3,8zm35 9l1 4c-1,0 -2,0 -3,0 -2,0 -3,0 -4,0 -1,-1 -2,-2 -2,-2 0,-1 -1,-3 -1,-6l0 -15 -3 0 0 -3 3 0 0 -7 5 -3 0 10 4 0 0 3 -4 0 0 16c0,1 0,2 0,2 0,0 1,1 1,1 0,0 1,0 1,0 1,0 2,0 2,0zm3 -9c0,-5 2,-9 4,-11 3,-2 5,-3 9,-3 3,0 6,1 8,4 3,2 4,5 4,9 0,4 -1,7 -2,8 -1,2 -2,4 -4,5 -2,1 -4,2 -6,2 -4,0 -7,-2 -9,-4 -3,-2 -4,-6 -4,-10zm5 0c0,3 0,6 2,7 1,2 3,3 6,3 2,0 4,-1 5,-3 2,-1 2,-4 2,-7 0,-4 0,-6 -2,-8 -1,-1 -3,-2 -5,-2 -3,0 -5,1 -6,2 -2,2 -2,4 -2,8zm33 13l14 -36 5 0 15 36 -5 0 -5 -11 -15 0 -4 11 -5 0zm11 -15l12 0 -4 -10c-1,-3 -2,-6 -2,-8 -1,3 -2,5 -3,7l-3 11zm33 15l-10 -26 5 0 5 15c1,2 1,4 2,6 0,-2 1,-3 2,-5l5 -16 5 0 -10 26 -4 0zm35 -3c-2,1 -3,2 -5,3 -1,0 -3,1 -5,1 -3,0 -5,-1 -6,-3 -2,-1 -3,-3 -3,-5 0,-1 1,-2 1,-3 1,-2 2,-2 3,-3 1,-1 2,-1 3,-1 1,-1 2,-1 4,-1 3,-1 6,-1 8,-2 0,0 0,-1 0,-1 0,-2 -1,-3 -2,-4 -1,-1 -2,-1 -5,-1 -2,0 -3,0 -4,1 -1,1 -2,2 -3,4l-4 -1c1,-2 1,-3 2,-4 1,-1 2,-2 4,-3 2,-1 4,-1 6,-1 2,0 4,0 6,1 1,0 2,1 3,2 0,1 1,2 1,3 0,1 0,2 0,4l0 6c0,4 0,7 1,8 0,1 0,2 1,3l-5 0c0,-1 -1,-2 -1,-3zm0 -10c-2,0 -4,1 -8,1 -1,1 -3,1 -3,1 -1,1 -2,1 -2,2 -1,0 -1,1 -1,2 0,1 1,2 1,3 1,1 3,1 4,1 2,0 4,0 5,-1 1,-1 2,-2 3,-3 1,-1 1,-3 1,-5l0 -1zm11 -18l0 -5 5 0 0 5 -5 0zm0 31l0 -26 5 0 0 26 -5 0zm11 0l0 -36 5 0 0 36 -5 0zm29 -3c-2,1 -3,2 -5,3 -1,0 -3,1 -5,1 -3,0 -5,-1 -6,-3 -2,-1 -3,-3 -3,-5 0,-1 1,-2 1,-3 1,-2 1,-2 2,-3 1,-1 2,-1 4,-1 1,-1 2,-1 4,-1 3,-1 6,-1 8,-2 0,0 0,-1 0,-1 0,-2 -1,-3 -2,-4 -1,-1 -2,-1 -5,-1 -2,0 -3,0 -4,1 -1,1 -2,2 -3,4l-4 -1c0,-2 1,-3 2,-4 1,-1 2,-2 4,-3 2,-1 4,-1 6,-1 2,0 4,0 5,1 2,0 3,1 4,2 0,1 1,2 1,3 0,1 0,2 0,4l0 6c0,4 0,7 0,8 1,1 1,2 2,3l-5 0c-1,-1 -1,-2 -1,-3zm0 -10c-2,0 -4,1 -8,1 -2,1 -3,1 -4,1 0,1 -1,1 -1,2 -1,0 -1,1 -1,2 0,1 0,2 1,3 1,1 3,1 4,1 2,0 4,0 5,-1 1,-1 2,-2 3,-3 0,-1 1,-3 1,-5l0 -1zm15 13l-4 0 0 -36 4 0 0 13c2,-3 5,-4 8,-4 1,0 3,0 4,1 2,1 3,2 4,3 1,1 2,2 2,4 1,2 1,4 1,5 0,5 -1,8 -3,11 -3,2 -5,4 -9,4 -3,0 -5,-2 -7,-4l0 3zm0 -13c0,3 1,5 1,6 2,3 4,4 6,4 2,0 4,-1 5,-3 2,-1 2,-4 2,-7 0,-4 0,-6 -2,-8 -1,-1 -3,-2 -5,-2 -2,0 -3,1 -5,2 -1,2 -2,4 -2,8zm24 13l0 -36 5 0 0 36 -5 0zm30 -9l4 1c0,3 -2,5 -4,6 -2,2 -4,3 -7,3 -4,0 -7,-2 -9,-4 -3,-2 -4,-6 -4,-10 0,-4 1,-8 4,-10 2,-3 5,-4 8,-4 4,0 7,1 9,4 2,2 3,5 3,10 0,0 0,0 0,1l-19 0c0,3 1,5 2,7 2,1 3,2 6,2 1,0 3,-1 4,-1 1,-1 2,-3 3,-5zm-15 -7l15 0c-1,-2 -1,-4 -2,-5 -1,-1 -3,-2 -6,-2 -2,0 -3,0 -5,2 -1,1 -2,3 -2,5z"/>
 </g>
</svg>
