<?xml version="1.0" encoding="UTF-8"?>
<!DOCTYPE svg PUBLIC "-//W3C//DTD SVG 1.1//EN" "http://www.w3.org/Graphics/SVG/1.1/DTD/svg11.dtd">
<!-- Creator: CorelDRAW X7 -->
<svg xmlns="http://www.w3.org/2000/svg" xml:space="preserve" width="3.92827in" height="3.92828in" version="1.1" style="shape-rendering:geometricPrecision; text-rendering:geometricPrecision; image-rendering:optimizeQuality; fill-rule:evenodd; clip-rule:evenodd"
viewBox="0 0 1437 1437"
 xmlns:xlink="http://www.w3.org/1999/xlink">
 <defs>
  <style type="text/css">
   <![CDATA[
    .fil2 {fill:none}
    .fil0 {fill:#DC5E65}
    .fil1 {fill:#AC713A}
   ]]>
  </style>
 </defs>
 <g id="Layer_x0020_1">
  <metadata id="CorelCorpID_0Corel-Layer"/>
  <g id="_1853851098944">
   <g>
    <path class="fil0" d="M8 155l147 0 0 -147 -147 0 0 147zm155 8l-163 0 0 -163 163 0 0 163z"/>
    <path class="fil0" d="M100 68c-19,0 -34,15 -34,33 0,19 15,34 34,34 18,0 33,-15 33,-34 0,-18 -15,-33 -33,-33zm0 75c-23,0 -42,-19 -42,-42 0,-22 19,-41 42,-41 23,0 41,19 41,41 0,23 -18,42 -41,42z"/>
    <path class="fil0" d="M79 101c0,12 9,22 21,22 11,0 21,-10 21,-22 0,-11 -10,-21 -21,-21 -12,0 -21,10 -21,21z"/>
    <path class="fil1" d="M473 41c0,0 -106,3 -211,4 -27,1 -53,1 -78,2 -12,-1 -24,0 -36,-1 -11,0 -22,-1 -32,-1 -10,0 -19,-1 -27,-1 -8,-1 -15,-1 -21,-1 -11,-1 -18,-2 -18,-2l0 -1c0,0 7,-1 18,-1 6,-1 13,-1 21,-2 8,0 17,-1 27,-1 10,0 21,-1 32,-1 12,0 24,0 36,0 25,0 51,1 78,1 105,2 211,4 211,4l0 1z"/>
    <path class="fil1" d="M473 41c0,0 -106,3 -211,4 -27,1 -53,1 -78,2 -12,-1 -24,0 -36,-1 -11,0 -22,-1 -32,-1 -10,0 -19,-1 -27,-1 -8,-1 -15,-1 -21,-1 -11,-1 -18,-2 -18,-2l0 -1c0,0 7,-1 18,-1 6,-1 13,-1 21,-2 8,0 17,-1 27,-1 10,0 21,-1 32,-1 12,0 24,0 36,0 25,0 51,1 78,1 105,2 211,4 211,4l0 1z"/>
    <path class="fil1" d="M41 473c0,0 3,-106 4,-211 1,-27 1,-53 2,-78 -1,-12 0,-24 -1,-36 0,-11 -1,-22 -1,-32 0,-10 -1,-19 -1,-27 -1,-8 -1,-15 -1,-21 -1,-11 -2,-18 -2,-18l-1 0c0,0 -1,7 -1,18 -1,6 -1,13 -2,21 0,8 -1,17 -1,27 0,10 -1,21 -1,32 0,12 0,24 0,36 0,25 1,51 1,78 1,105 4,211 4,211l1 0z"/>
    <path class="fil1" d="M41 473c0,0 3,-106 4,-211 1,-27 1,-53 2,-78 -1,-12 0,-24 -1,-36 0,-11 -1,-22 -1,-32 0,-10 -1,-19 -1,-27 -1,-8 -1,-15 -1,-21 -1,-11 -2,-18 -2,-18l-1 0c0,0 -1,7 -1,18 -1,6 -1,13 -2,21 0,8 -1,17 -1,27 0,10 -1,21 -1,32 0,12 0,24 0,36 0,25 1,51 1,78 1,105 4,211 4,211l1 0z"/>
   </g>
   <rect class="fil2" width="479" height="479"/>
  </g>
  <g id="_1853851103328">
   <g>
    <path class="fil0" d="M8 1283l147 0 0 146 -147 0 0 -146zm155 -9l-163 0 0 163 163 0 0 -163z"/>
    <path class="fil0" d="M100 1369c-19,0 -34,-15 -34,-33 0,-18 15,-33 34,-33 18,0 33,15 33,33 0,18 -15,33 -33,33zm0 -75c-23,0 -42,19 -42,42 0,23 19,41 42,41 23,0 41,-18 41,-41 0,-23 -18,-42 -41,-42z"/>
    <path class="fil0" d="M79 1336c0,-12 9,-21 21,-21 11,0 21,9 21,21 0,12 -10,21 -21,21 -12,0 -21,-9 -21,-21z"/>
    <path class="fil1" d="M473 1396c0,0 -106,-2 -211,-4 -27,0 -53,-1 -78,-1 -12,0 -24,0 -36,0 -11,1 -22,1 -32,1 -10,1 -19,1 -27,2 -8,0 -15,0 -21,1 -11,1 -18,1 -18,1l0 1c0,0 7,1 18,2 6,0 13,1 21,1 8,0 17,1 27,1 10,1 21,1 32,1 12,1 24,1 36,1 25,-1 51,-1 78,-2 105,-1 211,-4 211,-4l0 -1z"/>
    <path class="fil1" d="M473 1396c0,0 -106,-2 -211,-4 -27,0 -53,-1 -78,-1 -12,0 -24,0 -36,0 -11,1 -22,1 -32,1 -10,1 -19,1 -27,2 -8,0 -15,0 -21,1 -11,1 -18,1 -18,1l0 1c0,0 7,1 18,2 6,0 13,1 21,1 8,0 17,1 27,1 10,1 21,1 32,1 12,1 24,1 36,1 25,-1 51,-1 78,-2 105,-1 211,-4 211,-4l0 -1z"/>
    <path class="fil1" d="M41 964c0,0 3,106 4,212 1,26 1,53 2,77 -1,13 0,25 -1,36 0,11 -1,22 -1,32 0,10 -1,19 -1,27 -1,8 -1,15 -1,21 -1,12 -2,18 -2,18l-1 0c0,0 -1,-6 -1,-18 -1,-6 -1,-13 -2,-21 0,-8 -1,-17 -1,-27 0,-10 -1,-21 -1,-32 0,-11 0,-23 0,-36 0,-24 1,-51 1,-77 1,-106 4,-212 4,-212l1 0z"/>
    <path class="fil1" d="M41 964c0,0 3,106 4,212 1,26 1,53 2,77 -1,13 0,25 -1,36 0,11 -1,22 -1,32 0,10 -1,19 -1,27 -1,8 -1,15 -1,21 -1,12 -2,18 -2,18l-1 0c0,0 -1,-6 -1,-18 -1,-6 -1,-13 -2,-21 0,-8 -1,-17 -1,-27 0,-10 -1,-21 -1,-32 0,-11 0,-23 0,-36 0,-24 1,-51 1,-77 1,-106 4,-212 4,-212l1 0z"/>
   </g>
   <rect class="fil2" y="958" width="479" height="479"/>
  </g>
  <g id="_1853851106080">
   <g>
    <path class="fil0" d="M1429 155l-146 0 0 -147 146 0 0 147zm-155 8l163 0 0 -163 -163 0 0 163z"/>
    <path class="fil0" d="M1338 68c18,0 33,15 33,33 0,19 -15,34 -33,34 -19,0 -34,-15 -34,-34 0,-18 15,-33 34,-33zm0 75c23,0 41,-19 41,-42 0,-22 -18,-41 -41,-41 -23,0 -42,19 -42,41 0,23 19,42 42,42z"/>
    <path class="fil0" d="M1359 101c0,12 -10,22 -21,22 -12,0 -22,-10 -22,-22 0,-11 10,-21 22,-21 11,0 21,10 21,21z"/>
    <path class="fil1" d="M964 41c0,0 106,3 212,4 26,1 53,1 77,2 13,-1 25,0 36,-1 11,0 22,-1 32,-1 10,0 19,-1 27,-1 8,-1 15,-1 21,-1 12,-1 18,-2 18,-2l0 -1c0,0 -6,-1 -18,-1 -6,-1 -13,-1 -21,-2 -8,0 -17,-1 -27,-1 -10,0 -21,-1 -32,-1 -11,0 -23,0 -36,0 -24,0 -51,1 -77,1 -106,2 -212,4 -212,4l0 1z"/>
    <path class="fil1" d="M964 41c0,0 106,3 212,4 26,1 53,1 77,2 13,-1 25,0 36,-1 11,0 22,-1 32,-1 10,0 19,-1 27,-1 8,-1 15,-1 21,-1 12,-1 18,-2 18,-2l0 -1c0,0 -6,-1 -18,-1 -6,-1 -13,-1 -21,-2 -8,0 -17,-1 -27,-1 -10,0 -21,-1 -32,-1 -11,0 -23,0 -36,0 -24,0 -51,1 -77,1 -106,2 -212,4 -212,4l0 1z"/>
    <path class="fil1" d="M1396 473c0,0 -2,-106 -4,-211 0,-27 -1,-53 -1,-78 0,-12 0,-24 0,-36 1,-11 1,-22 1,-32 1,-10 1,-19 2,-27 0,-8 0,-15 1,-21 1,-11 1,-18 1,-18l1 0c0,0 1,7 2,18 0,6 1,13 1,21 0,8 1,17 1,27 1,10 1,21 1,32 1,12 1,24 1,36 -1,25 -1,51 -2,78 -1,105 -4,211 -4,211l-1 0z"/>
    <path class="fil1" d="M1396 473c0,0 -2,-106 -4,-211 0,-27 -1,-53 -1,-78 0,-12 0,-24 0,-36 1,-11 1,-22 1,-32 1,-10 1,-19 2,-27 0,-8 0,-15 1,-21 1,-11 1,-18 1,-18l1 0c0,0 1,7 2,18 0,6 1,13 1,21 0,8 1,17 1,27 1,10 1,21 1,32 1,12 1,24 1,36 -1,25 -1,51 -2,78 -1,105 -4,211 -4,211l-1 0z"/>
   </g>
   <rect class="fil2" x="958" width="479" height="479"/>
  </g>
  <g id="_1853851108000">
   <g>
    <path class="fil0" d="M1429 1283l-146 0 0 146 146 0 0 -146zm-155 -9l163 0 0 163 -163 0 0 -163z"/>
    <path class="fil0" d="M1338 1369c18,0 33,-15 33,-33 0,-18 -15,-33 -33,-33 -19,0 -34,15 -34,33 0,18 15,33 34,33zm0 -75c23,0 41,19 41,42 0,23 -18,41 -41,41 -23,0 -42,-18 -42,-41 0,-23 19,-42 42,-42z"/>
    <path class="fil0" d="M1359 1336c0,-12 -10,-21 -21,-21 -12,0 -22,9 -22,21 0,12 10,21 22,21 11,0 21,-9 21,-21z"/>
    <path class="fil1" d="M964 1396c0,0 106,-2 212,-4 26,0 53,-1 77,-1 13,0 25,0 36,0 11,1 22,1 32,1 10,1 19,1 27,2 8,0 15,0 21,1 12,1 18,1 18,1l0 1c0,0 -6,1 -18,2 -6,0 -13,1 -21,1 -8,0 -17,1 -27,1 -10,1 -21,1 -32,1 -11,1 -23,1 -36,1 -24,-1 -51,-1 -77,-2 -106,-1 -212,-4 -212,-4l0 -1z"/>
    <path class="fil1" d="M964 1396c0,0 106,-2 212,-4 26,0 53,-1 77,-1 13,0 25,0 36,0 11,1 22,1 32,1 10,1 19,1 27,2 8,0 15,0 21,1 12,1 18,1 18,1l0 1c0,0 -6,1 -18,2 -6,0 -13,1 -21,1 -8,0 -17,1 -27,1 -10,1 -21,1 -32,1 -11,1 -23,1 -36,1 -24,-1 -51,-1 -77,-2 -106,-1 -212,-4 -212,-4l0 -1z"/>
    <path class="fil1" d="M1396 964c0,0 -2,106 -4,212 0,26 -1,53 -1,77 0,13 0,25 0,36 1,11 1,22 1,32 1,10 1,19 2,27 0,8 0,15 1,21 1,12 1,18 1,18l1 0c0,0 1,-6 2,-18 0,-6 1,-13 1,-21 0,-8 1,-17 1,-27 1,-10 1,-21 1,-32 1,-11 1,-23 1,-36 -1,-24 -1,-51 -2,-77 -1,-106 -4,-212 -4,-212l-1 0z"/>
    <path class="fil1" d="M1396 964c0,0 -2,106 -4,212 0,26 -1,53 -1,77 0,13 0,25 0,36 1,11 1,22 1,32 1,10 1,19 2,27 0,8 0,15 1,21 1,12 1,18 1,18l1 0c0,0 1,-6 2,-18 0,-6 1,-13 1,-21 0,-8 1,-17 1,-27 1,-10 1,-21 1,-32 1,-11 1,-23 1,-36 -1,-24 -1,-51 -2,-77 -1,-106 -4,-212 -4,-212l-1 0z"/>
   </g>
   <rect class="fil2" x="958" y="958" width="479" height="479"/>
  </g>
 </g>
</svg>
