<?xml version="1.0" encoding="UTF-8"?>
<!DOCTYPE svg PUBLIC "-//W3C//DTD SVG 1.1//EN" "http://www.w3.org/Graphics/SVG/1.1/DTD/svg11.dtd">
<!-- Creator: CorelDRAW X7 -->
<svg xmlns="http://www.w3.org/2000/svg" xml:space="preserve" width="2.66135in" height="0.533488in" version="1.1" style="shape-rendering:geometricPrecision; text-rendering:geometricPrecision; image-rendering:optimizeQuality; fill-rule:evenodd; clip-rule:evenodd"
viewBox="0 0 1260 253"
 xmlns:xlink="http://www.w3.org/1999/xlink">
 <defs>
  <style type="text/css">
   <![CDATA[
    .fil0 {fill:#DC5E65}
    .fil1 {fill:#C47E3C;fill-rule:nonzero}
   ]]>
  </style>
 </defs>
 <g id="Layer_x0020_1">
  <metadata id="CorelCorpID_0Corel-Layer"/>
  <path class="fil0" d="M609 60l24 -22c2,1 4,2 6,3l-25 23 -5 -4z"/>
  <path class="fil0" d="M18 188l18 -16c2,1 4,3 5,3l-18 17c-2,-1 -3,-3 -5,-4z"/>
  <g>
   <path class="fil1" d="M23 153c3,6 6,11 9,15l0 0 -19 17c-5,-5 -10,-11 -13,-18l23 -14zm852 -110l0 -27 37 0 0 13 -37 14zm-311 7l0 123 16 0c15,0 28,-5 36,-16 8,-10 13,-26 13,-45 0,-19 -4,-33 -11,-44l0 0 26 -23c11,7 19,17 25,28 7,12 10,25 10,39 0,13 -2,25 -7,37 -5,11 -13,21 -23,29 -7,6 -15,10 -25,13 -9,3 -19,5 -30,5l-77 0 0 -168 56 0c17,0 30,1 41,3 4,1 9,3 13,5l-23 20 0 0c-7,-4 -15,-6 -24,-6l-16 0zm164 146c-8,0 -15,-2 -18,-6 -4,-4 -5,-10 -5,-20l0 -60c0,-10 1,-16 5,-20 3,-4 10,-6 18,-6l52 0 0 17 -28 0c-4,0 -7,1 -9,3 -1,1 -2,5 -2,10l0 18 35 0 0 16 -35 0 0 19c0,5 1,8 2,10 2,1 5,2 9,2l30 0 0 17 -54 0zm147 -96c-12,0 -21,3 -26,9 -5,7 -8,17 -8,31 0,15 3,25 8,31 5,6 14,9 26,9l0 -80zm37 -52l0 148 -47 0c-21,0 -36,-5 -47,-14 -11,-9 -16,-22 -16,-40 0,-19 5,-33 17,-43 12,-10 29,-15 51,-15l5 0 0 -22 37 -14zm56 148c-9,0 -15,-2 -18,-6 -4,-4 -6,-10 -6,-20l0 -60c0,-10 2,-16 6,-20 3,-4 9,-6 18,-6l52 0 0 17 -28 0c-4,0 -7,1 -9,3 -2,1 -2,5 -2,10l0 18 35 0 0 16 -35 0 0 19c0,5 0,8 2,10 1,1 5,2 9,2l30 0 0 17 -54 0zm100 -73l0 73 -18 0 0 -94c0,-7 1,-13 4,-16 3,-4 8,-5 14,-5 5,0 9,1 13,4 4,3 9,8 13,15l25 40 0 -56 18 0 0 97c0,7 -1,12 -3,15 -2,3 -6,4 -10,4 -3,0 -6,-1 -9,-3 -3,-3 -6,-7 -11,-13l-36 -61zm-1021 55c2,0 4,0 6,0 7,0 12,-2 16,-5 4,-4 6,-9 6,-14 0,-5 -2,-9 -5,-13 -3,-4 -8,-8 -15,-11l-7 -4c-15,-8 -24,-14 -27,-16 -7,-6 -11,-11 -14,-17 -2,-5 -4,-12 -4,-19 0,-16 6,-30 17,-40 11,-10 25,-15 42,-15 12,0 23,3 32,8 10,6 17,14 22,24l-19 14c-3,-8 -8,-15 -13,-19 -5,-4 -11,-6 -18,-6 -6,0 -11,2 -15,6 -4,4 -6,8 -6,14 0,4 2,9 5,12 3,4 9,8 19,12l3 2c17,9 27,14 31,17 6,5 11,11 13,16 3,6 4,13 4,20 0,17 -5,30 -17,41 -11,10 -26,15 -45,15 -11,0 -20,-2 -29,-5l18 -17 0 0zm99 18l0 -112 49 0c15,0 26,3 34,9 8,5 12,14 12,24 0,8 -2,14 -5,19 -4,4 -9,8 -16,10l33 50 -43 0 -25 -53 0 -2c7,-1 12,-3 15,-6 3,-4 5,-9 5,-15 0,-7 -2,-12 -5,-15 -4,-4 -9,-5 -16,-5 0,0 -1,0 -2,0 -1,0 -1,0 -2,0l0 96 -34 0zm124 -12l0 -100 36 0 0 86 -36 14zm36 6l0 6 -16 0 16 -6zm-37 -152c0,-5 2,-9 6,-13 3,-4 8,-6 13,-6 6,0 10,2 14,6 3,4 5,8 5,13 0,6 -2,10 -5,14 -4,4 -9,5 -14,5 -5,0 -10,-1 -13,-5 -4,-4 -6,-8 -6,-14zm643 -9l-37 14 37 -14z"/>
  </g>
  <polygon class="fil0" points="875,56 875,49 912,35 912,42 "/>
  <polygon class="fil0" points="306,177 270,191 270,197 306,183 "/>
  <path class="fil0" d="M1259 44c2,7 -1,14 -8,16 -5,2 -11,0 -14,-5 0,0 -2,2 -5,4 -3,2 -7,5 -11,7 -5,2 -9,4 -13,4 -1,1 -2,1 -3,1l-7 25 -5 18c3,-3 6,-5 10,-7 4,-3 8,-5 12,-6 3,-2 6,-2 6,-2 0,0 -2,2 -5,5 -2,2 -6,5 -10,8 -5,2 -9,4 -12,6 -1,0 -2,0 -2,0l-6 20 0 1c1,0 1,0 2,-1 2,0 4,1 5,1 2,1 3,1 3,1 0,-5 3,-10 8,-11 6,-2 13,1 15,7 2,7 -1,13 -8,15 -6,2 -13,-1 -15,-7 0,-1 0,-2 0,-4 0,1 -1,2 -2,2 -2,1 -3,2 -5,2 -2,0 -3,0 -4,0l-5 16c-2,7 -4,14 -6,20 -4,14 -8,26 -11,37 -3,11 -6,20 -8,26 -2,6 -4,10 -4,10 0,0 1,-4 2,-11 2,-6 3,-15 6,-26 2,-11 5,-24 8,-38 2,-6 4,-13 6,-20 -1,-1 -1,-2 -1,-2 -2,-5 -3,-11 -5,-18 -1,-6 -2,-12 -2,-17 0,-5 0,-8 0,-8 0,0 2,3 3,7 2,5 4,11 5,17 1,5 1,9 2,13 1,-5 2,-9 4,-14 3,-13 7,-27 11,-39 0,-1 0,-1 0,-2 -2,-3 -4,-8 -5,-13 -1,-5 -2,-10 -2,-14 0,-4 0,-7 0,-7 -7,2 -14,-2 -16,-8 -2,-7 1,-14 8,-16 7,-3 14,1 16,8 3,7 -1,14 -8,16 0,0 2,2 3,6 2,3 4,8 5,13 1,4 1,7 2,10 3,-12 7,-23 11,-32 4,-11 7,-20 10,-26 1,-4 3,-7 3,-8 -4,-1 -8,-4 -10,-8 -2,-7 2,-13 8,-15 6,-2 13,1 15,7 2,7 -1,13 -8,15 -1,1 -3,1 -5,1l-9 35 -2 9c0,0 0,0 1,0 3,-3 7,-5 11,-7 5,-2 9,-4 13,-5 3,-1 6,-1 6,-1 0,-1 -1,-2 -1,-3 -2,-7 1,-14 8,-16 6,-2 13,2 15,8zm-16 45c2,6 -2,13 -8,15 -6,2 -13,-1 -15,-8 -2,-6 1,-13 8,-15 6,-2 13,1 15,8zm-71 10c2,6 -1,12 -7,14 -5,1 -12,-2 -14,-7 -1,-6 2,-12 8,-14 5,-2 11,1 13,7z"/>
  <path class="fil1" d="M421 27l-2 0c0,0 1,0 2,0 0,0 -1,2 -1,2 -1,1 0,2 0,2 0,1 0,1 1,2 0,0 0,0 0,1 0,0 0,1 0,1 1,0 1,0 1,1 0,2 3,3 4,2 1,0 1,0 1,1 1,1 1,3 0,4 0,2 1,2 3,2 -1,1 -4,-1 -4,-1 0,0 -1,-1 -1,-1 -2,1 -3,4 -4,6 0,1 0,2 -1,3 0,0 0,1 -1,2 -1,3 0,3 -1,5 0,1 0,2 -1,3 -1,-1 -4,-3 -4,-5 -1,-1 -1,-3 -1,-4 0,-1 -1,-1 -1,-1l0 -6c0,-1 0,-2 0,-3 0,0 0,-5 0,-5 -1,0 -1,1 -1,1 -1,0 -1,-1 -1,-1 -1,1 -1,1 -1,3 0,1 1,2 0,3 0,0 0,0 0,1l-2 -3c0,-1 -1,-1 -1,-1 -1,2 1,3 2,5 -1,0 -2,-1 -3,0 0,0 0,0 1,1 0,0 1,0 1,0 1,0 1,1 1,2 0,1 0,1 0,2 0,4 1,3 1,5 0,1 0,1 0,2 1,1 1,1 2,2 0,0 0,1 0,1 1,0 1,0 1,1 1,2 1,1 3,3 0,0 1,1 0,2 0,0 0,0 0,1 -1,0 -3,0 -3,1 -1,0 -1,1 -2,2 0,1 -1,3 0,4 0,0 0,0 1,0 1,1 1,1 0,2 0,0 0,1 -1,1 -1,1 -3,0 -3,2 0,0 -1,3 1,3 1,0 1,-1 1,-1 1,-1 1,-1 2,-2 0,0 2,0 2,1 0,1 -1,1 -2,1 -1,1 -1,1 -1,1 -2,1 -1,4 -2,6 -1,1 -1,1 -1,2 0,2 2,4 2,5 0,1 0,2 0,3 0,1 0,3 0,4 0,1 0,2 0,2 1,-1 1,-4 1,-5 0,-1 0,-2 1,-3 0,-1 0,-2 0,-3 1,1 1,1 1,1 0,1 0,3 0,4 0,1 1,2 2,3 1,-1 1,-1 1,-2 -1,0 -1,-1 -1,-1 0,-1 -2,-4 -1,-5 1,-1 2,-1 3,-1 0,2 0,2 0,4 0,0 0,1 0,2 1,1 1,1 1,2 1,5 0,9 0,14 1,1 1,5 1,6l0 9c0,1 1,3 1,4 0,2 0,4 0,5 0,1 0,1 0,1l0 11c0,1 0,1 0,2l0 6c-2,9 -4,19 -5,28 0,1 0,1 0,2 0,3 0,3 0,5 0,1 0,4 1,5 0,0 1,0 1,0l41 0c1,0 3,0 4,0l31 0c0,-1 -1,-2 -2,-3 0,0 0,0 -1,0 -1,0 -2,0 -3,0 -3,0 -5,0 -7,-1 -2,0 -4,-2 -6,-3 -2,-2 -4,-4 -6,-6 -1,-2 -4,-4 -5,-7 0,0 -1,0 -1,-1 -2,-2 -3,-6 -4,-9 -2,-5 -4,-12 -5,-17 -1,-2 -1,-4 -2,-7 0,-1 0,-2 0,-4l-2 -7c0,-3 0,-5 -1,-8 -1,-4 -2,-9 -3,-14 -1,-1 -1,-2 -1,-3 -1,-1 -1,-2 -1,-4 -1,-4 -2,-6 -2,-11l1 -7c1,-5 0,-5 2,-10 1,-3 2,-7 2,-11 1,-2 2,-12 2,-14l-2 -5c0,-1 -1,-2 -1,-3 1,1 2,3 3,4 1,1 1,2 1,3l3 7c1,2 4,13 4,15 0,1 0,2 1,3 0,2 0,4 0,6 1,1 1,2 1,3 0,1 0,1 0,2l0 8c1,1 1,3 1,5l0 4c0,2 0,4 0,5 0,1 0,2 0,3l0 8c0,1 0,2 0,3 0,1 0,9 1,10 0,1 1,3 3,2 1,-1 -1,-4 1,-9 1,-3 2,-5 3,-8l1 -4c0,-1 0,-3 0,-5 0,-2 1,-5 1,-7l0 -1c0,-2 0,-6 1,-8 0,-1 0,-2 1,-3 0,-1 1,-2 1,-3 0,0 0,-2 0,-3 -1,-3 -2,-7 -2,-11 -1,-2 -1,-4 -1,-7 -1,-3 -1,-6 -3,-9 -1,-1 -1,-2 -2,-3l-3 -3c0,-1 0,-1 0,-2 -2,-1 -2,-3 -4,-4 0,-1 -1,-2 -2,-3 0,0 0,0 0,0l-2 -2c0,0 0,-1 0,-1 -1,-1 -2,-2 -3,-3 -1,-1 -1,-1 -2,-1 0,-1 -1,-2 -2,-2 -1,-1 -2,-1 -2,-2 -1,0 -1,-1 -1,-1 0,-1 0,-4 0,-4 0,-1 1,-1 1,-3 -1,-1 -1,-2 -2,-3 -1,-1 -1,-2 -2,-2 -1,-1 -1,-1 -1,-1 -1,-1 -1,-1 -2,-2 -1,0 -1,0 -2,0 -1,0 -2,-1 -4,-1 0,0 -4,1 -5,1 -1,0 -2,1 -2,2 -1,2 -1,2 -1,4 -1,1 -1,3 -1,3 1,2 1,1 1,3zm-35 22c0,0 0,1 0,1 1,2 1,3 2,5 1,1 3,4 5,4 0,0 -1,0 -1,-1l-1 -2c-1,-1 -1,-1 0,-2l1 -2c1,-1 1,-1 2,-1 0,0 1,0 1,0 0,0 1,0 1,0 1,-1 1,-3 2,-3 1,0 4,0 4,-1l0 -1 0 0c1,-1 1,-2 0,-3 0,0 1,0 0,-1 0,-1 -2,-2 -3,-2 -1,0 -2,0 -2,0 0,0 0,-1 0,-2 1,0 3,-1 4,-1 0,0 0,-1 0,-1 0,0 0,0 0,0l0 -1c-1,1 -2,1 -3,1 0,-1 0,-1 0,-1 -1,-1 -2,0 -2,0 -1,1 -4,4 -4,4 -1,2 -1,5 -2,7 0,2 0,2 -1,2 -2,2 -1,1 -3,1zm-18 -37c0,2 0,4 1,6 0,1 0,3 0,5 0,1 -2,1 -2,2 -1,1 -1,1 -2,1 -2,1 -4,3 -7,4 0,1 0,1 -1,1 -1,0 -1,1 -2,1l-2 2c-2,3 -2,6 -2,9 0,1 0,2 0,2 0,1 0,1 0,2 0,0 0,1 0,1 0,1 0,1 0,2 0,3 0,7 0,10 0,2 1,5 2,7 0,1 0,2 0,3 1,1 1,2 2,3 1,1 1,1 0,2 0,2 -2,4 -2,6l-2 19c0,1 0,2 0,2 0,3 -1,5 -1,7 0,2 0,3 0,5 0,1 0,2 0,2l0 9c0,1 0,3 0,4 0,1 1,2 1,2l0 2c0,0 0,0 0,0 1,0 2,-2 2,-2 0,-1 1,-2 1,-2 0,1 0,2 0,3 0,1 0,2 0,3 0,1 0,2 0,3 0,2 0,3 0,4 0,2 0,5 0,7 0,1 0,2 0,3 0,2 -1,3 -1,6l0 7c0,1 0,2 0,3l0 16c0,1 0,1 0,2 0,1 0,2 0,3 0,1 -1,3 -1,5 0,0 0,0 0,1 -1,0 -1,1 -1,2 -1,1 1,3 2,3 3,0 7,0 10,0l3 0c0,-1 0,-2 0,-3 -2,-3 0,-5 0,-10 -1,-2 0,-5 0,-7l-1 -8c0,-1 0,-3 0,-4l0 -6c0,-2 0,-4 0,-6 1,-3 1,-7 1,-10l1 -10c0,-1 0,-2 0,-3 0,-5 1,-7 2,-9 0,1 1,4 2,6 0,0 0,1 0,1 1,1 1,2 2,2l0 0c1,-1 2,-2 2,-2 0,1 0,3 0,4 1,2 1,3 1,4 0,1 0,2 0,2l1 14c0,1 0,1 0,2l0 29c0,1 0,1 0,2 0,2 0,3 0,5 -1,1 -2,3 -1,5 0,1 6,1 7,1 1,0 1,0 1,0l5 0c1,0 1,0 2,0 1,0 3,0 4,0l3 0c0,-1 0,-2 -2,-3l-4 0c0,0 -1,-1 -2,-1 0,0 0,0 0,-1 -1,-2 0,-5 0,-7 0,-3 0,-9 0,-11 0,-2 -1,-4 -1,-7l0 -13c0,-2 1,-4 1,-5 0,-2 0,-4 0,-5 0,-2 0,-4 0,-5 0,-4 -2,-10 -3,-14 0,-3 -1,-6 -1,-9 -1,-5 -1,-9 -2,-14 0,-1 0,-3 0,-5 0,-1 0,-15 0,-16 0,0 0,-1 0,-2l-1 -5c0,-1 0,-2 0,-3l-1 -4c0,-1 1,-1 1,-1l7 -4c0,0 -1,-2 -2,-3 -1,-2 -2,-5 -3,-9 0,0 0,-1 0,-2 -1,0 -1,0 -2,0 0,0 0,-1 1,-1 0,-2 1,-5 0,-7 0,-2 0,-1 -1,-2 0,-1 0,-2 -1,-3l-3 -3c-1,-2 -1,-2 -1,-4 1,0 1,2 5,1 0,0 0,0 0,-1 0,0 0,-1 0,-1 0,0 1,-1 1,-1l1 0 0 -1 1 0c0,0 0,0 0,-1 1,1 1,1 2,1 0,0 0,-1 0,-1 0,1 0,0 0,0 0,0 0,0 0,0 0,0 0,-1 0,-1 0,-1 1,-1 1,-2 0,-2 -1,-2 0,-3 0,0 1,0 1,-1 0,0 0,0 0,0 1,-4 1,-2 1,-6 0,0 2,-1 0,-3 0,0 -1,-1 -1,-1 -2,-1 -7,-4 -9,-5 -1,0 -5,0 -6,1 -3,1 -7,4 -7,7z"/>
 </g>
</svg>
