<?xml version="1.0" encoding="UTF-8"?>
<!DOCTYPE svg PUBLIC "-//W3C//DTD SVG 1.1//EN" "http://www.w3.org/Graphics/SVG/1.1/DTD/svg11.dtd">
<!-- Creator: CorelDRAW X7 -->
<svg xmlns="http://www.w3.org/2000/svg" xml:space="preserve" width="2.93745in" height="0.533488in" version="1.1" style="shape-rendering:geometricPrecision; text-rendering:geometricPrecision; image-rendering:optimizeQuality; fill-rule:evenodd; clip-rule:evenodd"
viewBox="0 0 1702 309"
 xmlns:xlink="http://www.w3.org/1999/xlink">
 <defs>
  <style type="text/css">
   <![CDATA[
    .fil0 {fill:#DC5E65}
    .fil2 {fill:#C47E3C}
    .fil1 {fill:#C47E3C;fill-rule:nonzero}
   ]]>
  </style>
 </defs>
 <g id="Layer_x0020_1">
  <metadata id="CorelCorpID_0Corel-Layer"/>
  <path class="fil0" d="M906 73l29 -26c2,1 5,2 7,4l-31 27 -5 -5z"/>
  <path class="fil0" d="M182 230l22 -20c2,2 4,4 7,5l-23 20c-2,-2 -4,-3 -6,-5z"/>
  <g>
   <path class="fil1" d="M188 187c3,8 7,14 11,18l0 1 -23 20c-6,-6 -12,-13 -16,-22l28 -17zm1044 -134l0 -34 44 0 0 17 -44 17zm-382 9l0 150 20 0c19,0 34,-6 44,-20 10,-13 16,-31 16,-55 0,-23 -5,-40 -14,-53l0 0 32 -29c13,9 24,21 31,35 9,15 13,30 13,47 0,16 -3,31 -10,45 -6,14 -15,26 -27,36 -9,7 -19,12 -31,16 -11,4 -24,6 -37,6l-95 0 0 -206 70 0c20,0 37,1 49,4 6,2 11,3 17,5l-28 26 0 0c-9,-5 -19,-7 -30,-7l-20 0zm201 178c-10,0 -18,-3 -22,-7 -5,-5 -7,-13 -7,-24l0 -75c0,-11 2,-19 7,-24 4,-5 12,-7 22,-7l64 0 0 21 -34 0c-6,0 -9,1 -11,3 -2,2 -3,6 -3,12l0 22 43 0 0 21 -43 0 0 22c0,6 1,10 3,12 1,2 5,3 11,3l36 0 0 21 -66 0zm181 -118c-15,0 -26,4 -33,12 -6,8 -10,20 -10,38 0,17 4,30 10,37 7,8 17,12 33,12l0 -99zm44 -63l0 181 -57 0c-26,0 -45,-6 -58,-17 -13,-11 -20,-28 -20,-49 0,-23 7,-40 22,-53 14,-12 35,-18 62,-18l7 0 0 -27 44 -17zm69 181c-11,0 -18,-3 -23,-7 -4,-5 -6,-13 -6,-24l0 -75c0,-11 2,-19 6,-24 5,-5 12,-7 23,-7l63 0 0 21 -33 0c-6,0 -10,1 -12,3 -2,2 -3,6 -3,12l0 22 43 0 0 21 -43 0 0 22c0,6 1,10 3,12 2,2 6,3 12,3l35 0 0 21 -65 0zm122 -89l0 89 -22 0 0 -115c0,-9 1,-16 5,-20 4,-4 9,-6 17,-6 6,0 12,2 17,5 5,4 10,10 15,18l30 50 0 -69 22 0 0 119c0,8 -1,14 -3,18 -3,3 -7,5 -12,5 -4,0 -8,-2 -12,-4 -3,-3 -7,-8 -12,-16l-45 -74zm-1249 66c2,1 4,1 7,1 8,0 14,-2 19,-7 5,-4 8,-10 8,-17 0,-6 -2,-11 -6,-15 -4,-5 -10,-10 -18,-14l-9 -5c-18,-10 -30,-16 -33,-20 -8,-6 -14,-13 -17,-20 -3,-7 -5,-14 -5,-23 0,-20 7,-37 20,-49 13,-13 31,-19 52,-19 15,0 28,3 40,10 11,7 20,17 26,30l-23 16c-4,-10 -10,-17 -16,-22 -6,-5 -14,-7 -23,-7 -7,0 -13,2 -18,6 -4,5 -7,11 -7,17 0,6 2,11 6,15 4,5 12,10 23,16l4 2c21,10 34,17 38,21 8,6 13,12 16,19 4,7 5,15 5,25 0,20 -7,36 -21,49 -14,13 -32,19 -55,19 -13,0 -25,-2 -36,-7l23 -20 0 -1zm121 23l0 -137 59 0c19,0 33,4 42,11 10,6 15,17 15,30 0,9 -2,16 -7,22 -4,6 -10,10 -19,12l40 62 -52 0 -31 -65 0 -2c9,-1 15,-4 19,-8 4,-5 6,-11 6,-19 0,-8 -2,-14 -6,-18 -5,-4 -11,-6 -19,-6 -1,0 -2,0 -3,0 -1,0 -2,0 -2,0l0 118 -42 0zm151 -14l0 -123 45 0 0 106 -45 17zm45 6l0 8 -20 0 20 -8zm-46 -185c0,-6 3,-12 7,-17 5,-4 10,-6 17,-6 6,0 12,2 16,6 5,5 7,10 7,17 0,7 -2,12 -7,17 -4,4 -10,6 -16,6 -7,0 -12,-2 -17,-6 -4,-5 -7,-11 -7,-17zm787 -11l-44 17 44 -17z"/>
  </g>
  <polygon class="fil0" points="1232,69 1232,60 1276,43 1276,51 "/>
  <polygon class="fil0" points="535,216 490,233 490,242 535,225 "/>
  <path class="fil0" d="M1701 54c3,8 -1,17 -9,19 -7,3 -14,0 -18,-6 0,1 -2,3 -6,5 -3,3 -8,6 -14,9 -5,2 -11,4 -15,5 -2,1 -3,1 -4,1l-9 30 -6 22c4,-3 8,-6 12,-8 5,-3 10,-6 15,-8 4,-1 7,-2 7,-2 0,0 -2,3 -5,6 -4,3 -8,6 -13,10 -6,3 -11,5 -15,7 -1,0 -2,0 -2,1l-7 24 0 1c0,0 1,0 2,-1 2,0 5,1 7,1 1,1 2,2 3,2 -1,-6 3,-12 10,-14 7,-3 16,1 18,9 3,8 -2,16 -9,18 -8,3 -16,-1 -19,-9 0,-1 0,-3 0,-4 -1,0 -2,1 -3,2 -2,1 -4,2 -6,2 -2,1 -4,0 -5,0l-6 19c-2,9 -5,17 -7,26 -5,16 -10,31 -14,45 -4,13 -7,24 -10,31 -2,8 -4,12 -4,12 0,0 1,-4 3,-12 1,-8 3,-19 6,-33 3,-13 6,-29 11,-46 2,-8 4,-16 6,-25 0,-1 0,-2 -1,-3 -2,-5 -4,-13 -5,-21 -2,-7 -3,-15 -3,-21 0,-6 0,-10 0,-10 0,0 2,3 4,9 2,6 4,13 6,21 1,5 1,11 2,15 1,-5 3,-11 5,-17 4,-16 9,-32 14,-48 0,0 0,-1 -1,-1 -2,-5 -4,-11 -5,-17 -2,-6 -3,-12 -3,-17 0,-5 0,-8 0,-8 -8,2 -17,-2 -20,-10 -2,-9 2,-18 10,-20 9,-3 18,2 20,10 3,8 -2,17 -10,20 0,0 2,2 4,7 2,4 4,10 5,16 1,4 2,9 3,12 4,-14 9,-28 13,-40 5,-12 10,-23 12,-31 3,-5 4,-8 5,-10 -5,-1 -10,-4 -12,-10 -3,-8 2,-16 9,-18 8,-3 16,1 19,9 2,8 -2,16 -10,18 -2,1 -4,1 -6,1l-11 43 -3 12c0,-1 0,-1 1,-1 4,-3 9,-6 14,-9 6,-2 11,-4 16,-5 4,-1 7,-2 7,-2 0,-1 -1,-2 -1,-3 -3,-8 1,-17 9,-19 8,-3 17,1 19,9zm-20 55c3,7 -1,16 -9,18 -8,3 -17,-1 -19,-9 -3,-8 2,-16 10,-19 7,-2 16,2 18,10zm-86 12c2,7 -2,14 -9,17 -7,2 -14,-2 -17,-9 -2,-7 2,-14 9,-17 7,-2 15,2 17,9z"/>
  <path class="fil1" d="M675 33l-2 0c0,0 1,0 2,0 0,0 -1,3 -1,3 -1,1 0,1 1,2 0,1 -1,2 0,2 0,1 0,1 0,1 1,1 0,1 0,2 1,0 1,0 1,2 0,2 4,2 6,2 0,0 1,0 1,0 1,2 1,4 0,5 -1,3 1,3 3,3 -1,1 -4,-1 -5,-1 0,-1 0,-1 -1,-1 -2,1 -4,5 -5,7 0,1 0,2 -1,3 0,1 0,2 -1,3 -1,4 0,4 -1,7 0,1 -1,2 -2,2 -1,0 -4,-3 -5,-5 -1,-2 -1,-3 -1,-5 0,-1 0,-1 0,-2l-1 -6c0,-1 0,-3 0,-4 0,-1 0,-6 0,-6 -1,0 -1,1 -1,1 -1,-1 -1,-1 -1,-2 -1,2 -1,2 -1,4 0,1 0,2 0,4 0,0 0,0 0,1l-3 -4c-1,-1 -1,-1 -2,-1 0,2 2,4 3,6 -1,0 -2,0 -3,0 0,1 0,1 0,1 1,0 1,0 2,0 1,1 1,1 1,3 1,1 0,2 0,3 0,4 1,4 1,6 0,1 0,1 1,2 0,1 1,2 2,2 0,1 0,1 0,2 1,0 1,0 1,0 2,3 2,2 3,4 1,1 2,2 1,3 0,0 0,0 -1,1 -1,0 -2,0 -3,1 -1,1 -1,1 -2,3 -1,1 -2,4 -1,5 1,0 1,0 2,0 0,0 1,1 0,2 0,1 -1,1 -1,1 -2,1 -4,1 -4,2 -1,1 -1,5 1,4 1,0 2,-1 2,-1 0,-1 1,-1 1,-2 1,0 3,0 3,1 0,1 -1,2 -2,2 -1,0 -1,0 -2,1 -1,1 0,4 -2,7 -1,1 -1,1 -1,3 0,2 2,4 2,6 1,1 1,2 0,3 0,2 0,4 0,5 0,1 0,2 1,2 1,-1 0,-4 1,-6 0,-1 0,-2 0,-3 0,-1 1,-3 1,-3 1,0 1,0 1,0 0,2 0,3 0,5 1,1 1,3 3,3 0,0 0,0 0,-1 0,-1 0,-1 0,-2 -1,-1 -2,-5 -1,-6 1,-1 1,-1 3,-1 0,2 -1,2 -1,4 0,1 1,2 1,3 1,1 1,2 1,3 1,5 0,11 1,17 0,1 0,6 0,7l1 11c0,2 0,4 0,6 1,1 1,3 1,5 0,1 0,1 0,2l-1 12c0,1 0,3 0,4l0 6c-2,12 -4,23 -5,35 0,1 0,2 0,3 -1,2 -1,3 -1,6 0,1 0,4 1,5 1,0 1,1 2,1l50 0c2,0 4,0 5,0l38 0c0,-2 -1,-3 -2,-4 -1,0 -1,0 -1,0 -2,0 -3,0 -5,0 -3,0 -5,0 -8,-1 -3,-1 -5,-2 -7,-4 -2,-2 -5,-5 -7,-7 -2,-3 -5,-6 -7,-8 0,-1 0,-1 -1,-2 -2,-3 -3,-8 -5,-11 -2,-6 -5,-15 -6,-20 -1,-3 -2,-6 -2,-9 -1,-2 -1,-4 -1,-5l-1 -9c-1,-3 -1,-6 -2,-9 -1,-6 -2,-12 -4,-18 0,-1 -1,-2 -2,-4 0,-1 0,-3 -1,-4 -1,-5 -1,-8 -1,-13l0 -10c1,-6 1,-6 3,-12 1,-4 2,-8 3,-13 0,-3 2,-15 1,-18l-2 -6c0,-1 0,-2 -1,-3 1,1 3,3 4,4 1,2 1,3 2,4l3 9c1,2 4,16 5,18 0,1 0,3 0,4 1,2 1,5 1,8 1,1 1,2 1,3 0,1 0,2 0,2l1 10c0,2 0,4 0,6l0 6c0,2 1,4 1,6 0,1 0,2 0,3l0 10c0,1 0,2 0,3 0,2 0,12 0,13 0,1 2,4 4,3 2,-2 0,-6 2,-12 1,-3 2,-6 3,-9l1 -5c0,-1 0,-5 1,-6 0,-3 0,-6 0,-10l1 -1c0,-2 0,-7 1,-9 0,-1 0,-2 1,-3 0,-2 1,-3 1,-4 1,-1 0,-3 0,-4 -1,-4 -2,-9 -2,-13 -1,-3 -1,-6 -2,-9 -1,-4 -1,-7 -4,-11 0,-1 -1,-2 -2,-3l-3 -5c0,-1 0,-1 -1,-2 -1,-2 -2,-3 -4,-5 -1,-2 -1,-2 -2,-3 0,-1 0,-1 -1,-1l-1 -2c-1,0 -1,-1 -2,-1 -1,-2 -2,-3 -3,-4 -1,-1 -1,-1 -2,-2 0,0 -1,-1 -2,-2 -1,0 -3,-1 -3,-2 -1,-1 -1,-1 -1,-2 0,0 -1,-4 -1,-4 1,-1 2,-1 1,-4 0,-1 0,-2 -1,-3 -1,-2 -2,-3 -3,-3 -1,-1 -1,-1 -1,-1 -1,-1 -2,-2 -3,-2 -1,-1 -1,-1 -2,-1 -1,0 -3,-1 -4,-1 -1,0 -6,1 -7,1 -2,1 -2,2 -3,3 -1,2 -1,2 -1,4 0,1 -1,4 0,5 0,1 0,1 0,3zm-42 27c-1,0 0,1 0,2 1,2 1,3 2,5 1,2 4,5 6,6 0,-1 -1,-1 -1,-2l-2 -2c-1,-2 0,-1 0,-3l2 -2c1,-1 1,-1 2,-1 1,0 1,0 1,-1 1,0 1,0 2,0 1,-1 0,-3 2,-4 2,0 5,0 5,-1l0 -1 0 0c1,-1 1,-3 0,-3 1,-1 2,-1 0,-2 0,-1 -3,-2 -4,-2 -1,0 -2,0 -3,0 0,-1 1,-2 1,-2 1,-1 4,-1 5,-2 0,0 0,0 0,-1 0,0 0,0 0,0l0 -1c-2,1 -3,1 -4,1 0,-1 1,-1 0,-2 -1,0 -2,1 -3,1 -1,1 -4,4 -4,5 -1,2 -2,6 -2,9 -1,1 -1,1 -2,2 -3,2 -2,1 -3,1zm-22 -46c0,3 0,5 0,8 1,1 1,4 1,6 -1,2 -2,2 -3,3 -2,1 -1,1 -3,1 -1,1 -5,4 -7,5 -1,1 -1,1 -2,1 -1,0 -2,1 -2,1l-3 2c-2,4 -2,8 -2,12 0,1 0,2 0,2 0,1 0,2 0,2 -1,1 0,2 0,2 0,1 -1,2 -1,2 0,4 0,9 1,12 0,3 1,6 2,9 0,1 0,2 1,3 0,2 0,3 1,4 1,1 1,1 1,3 -1,2 -3,4 -3,7l-2 24c0,1 0,2 0,2 -1,3 -1,6 -1,9 0,2 0,4 0,5 0,1 -1,3 -1,4l0 10c0,1 1,3 1,5 0,1 0,2 0,3l1 1c0,1 0,1 0,1 1,0 2,-2 2,-3 0,-1 1,-2 1,-3 0,2 0,3 0,4 0,2 0,3 0,4 0,2 0,3 0,5 0,1 0,2 0,4 0,3 0,5 0,8 0,1 1,3 0,4 0,3 -1,4 -1,7l0 9c0,1 0,3 0,4l0 19c0,1 0,2 0,3 0,1 -1,2 -1,3 0,2 0,4 0,6 0,1 0,1 0,1 -1,1 -2,2 -2,3 0,2 1,4 3,4 4,0 9,0 13,0l3 -1c0,0 0,-2 0,-2 -2,-4 0,-7 0,-13 -1,-2 0,-7 0,-9l-1 -10c0,-1 0,-3 0,-4l0 -8c0,-3 0,-5 0,-7 1,-4 1,-8 1,-12l1 -13c0,-1 0,-2 0,-4 0,-5 2,-8 2,-10 1,1 2,5 3,7 0,1 0,1 0,1 1,1 1,2 2,3l1 0c0,-1 1,-3 2,-3 0,2 0,4 0,6 1,1 1,3 1,5 0,0 0,1 0,2l1 17c0,1 0,1 0,2l0 36c0,1 0,1 0,2 0,2 0,4 0,6 0,2 -2,4 -1,6 0,1 7,2 9,2 1,0 1,0 1,0l7 0c0,0 1,0 2,0 1,0 3,0 5,0l4 -1c-1,-1 -1,-2 -4,-3l-4 0c-1,-1 -2,-1 -3,-2 0,0 0,0 0,0 0,-3 1,-6 1,-9 0,-3 -1,-11 -1,-13 0,-3 0,-6 0,-9l0 -16c0,-2 0,-4 0,-6 0,-2 0,-4 0,-7 0,-2 0,-4 0,-6 0,-5 -2,-11 -3,-17 0,-3 -1,-7 -2,-11 -1,-5 -1,-11 -2,-17 0,-1 -1,-4 0,-6 0,-1 0,-18 0,-19 0,-1 0,-2 0,-3l-1 -6c0,-1 0,-2 0,-3l-1 -6c0,0 1,0 1,-1l9 -5c0,0 -2,-2 -3,-3 -2,-3 -3,-7 -3,-11 0,-1 0,-2 0,-3 -1,0 -2,1 -3,1 0,-1 0,-1 0,-2 1,-3 2,-6 1,-9 0,-2 0,-1 -1,-3 0,0 -1,-1 -1,-2l-4 -5c-2,-2 -1,-2 -1,-5 1,1 1,3 5,2 1,-1 1,-1 1,-1 0,-1 0,-1 0,-2 0,0 0,0 1,-1l1 0 0 -1 2 0c0,0 0,0 0,-1 0,0 1,1 2,1 0,-1 0,-1 0,-1 0,0 0,0 0,0 0,0 0,0 0,0 0,0 0,-1 0,-1 0,-1 1,-2 1,-3 0,-2 -1,-2 0,-4 1,0 1,0 1,0 0,-1 0,0 1,-1 0,-4 0,-2 0,-7 1,0 3,-1 1,-3 -1,-1 -1,-1 -2,-2 -2,-1 -8,-5 -10,-6 -2,0 -6,0 -8,1 -3,2 -8,4 -8,8z"/>
  <path class="fil2" d="M163 256c-2,-6 -4,-12 -6,-18 -3,-6 -6,-13 -9,-20 -2,-6 -5,-13 -9,-20 -1,-3 -2,-6 -4,-9 6,-8 21,-38 14,-79 0,0 -17,41 -16,75 -1,-3 -2,-6 -4,-8 -2,-5 -4,-10 -7,-14 6,-9 23,-36 20,-72 0,0 -22,41 -22,67l-2 -3c-2,-4 -5,-9 -7,-13 5,-7 23,-36 17,-75 0,0 -22,44 -19,71l-2 -3c-2,-4 -5,-8 -7,-12 3,-9 16,-45 2,-86 0,0 -9,55 -5,82l-1 -2c-4,-6 -8,-12 -11,-17l-1 -1c2,-8 11,-42 -4,-74 0,0 -3,34 3,73 -3,-4 -6,-8 -8,-11 -2,-2 -3,-4 -5,-6 2,-4 8,-25 -4,-58 0,0 -5,35 3,57 -1,-1 -1,-2 -2,-3 -3,-3 -5,-6 -6,-7 1,-28 -21,-65 -21,-65 1,20 5,34 9,44 -8,-10 -19,-22 -37,-36 0,0 15,27 49,57 1,1 2,4 5,7 -4,-3 -32,-25 -62,-38 0,0 40,33 62,38l0 0c2,3 5,7 7,11l2 3c-9,-7 -41,-27 -75,-37 0,0 49,36 76,38 2,3 4,6 6,10l5 7c-10,-7 -40,-26 -77,-38 0,0 49,36 78,41l4 6c4,6 7,11 10,17 -12,-8 -50,-32 -88,-45 0,0 56,43 90,48l9 17c-50,-28 -90,-38 -90,-38 40,27 79,37 91,40l0 0c3,7 7,14 10,21l1 0c-38,-22 -72,-33 -72,-33 40,28 65,34 72,35 3,6 7,13 10,19 3,7 6,14 9,20 3,7 6,14 9,20 2,6 5,12 7,17 3,5 5,10 7,15 1,4 3,8 4,11 -4,-17 -6,-23 -8,-26z"/>
 </g>
</svg>
